<?xml version="1.0" encoding="UTF-8" standalone="no"?>
<svg
   xmlns:dc="http://purl.org/dc/elements/1.1/"
   xmlns:cc="http://creativecommons.org/ns#"
   xmlns:rdf="http://www.w3.org/1999/02/22-rdf-syntax-ns#"
   xmlns:svg="http://www.w3.org/2000/svg"
   xmlns="http://www.w3.org/2000/svg"
   version="1.1"
   id="Layer_1"
   x="0px"
   y="0px"
   viewBox="0 0 495.35341 385.83579"
   xml:space="preserve"
   width="800"
   height="600"
   style="background-color:white;">><metadata
   id="metadata993"><rdf:RDF><cc:Work
       rdf:about=""><dc:format>image/svg+xml</dc:format><dc:type
         rdf:resource="http://purl.org/dc/dcmitype/StillImage" /><dc:title></dc:title></cc:Work></rdf:RDF></metadata><defs
   id="defs991" />
<style
   type="text/css"
   id="style2">
	.st0{fill:#FFFFFF;}
	
		.st1{opacity:0.251;fill:none;stroke:#1A1A1A;stroke-width:0.6;stroke-linejoin:bevel;stroke-miterlimit:1;stroke-dasharray:0.6,1.8;}
	.st2{fill:none;stroke:#262626;stroke-width:0.6;stroke-linecap:square;stroke-miterlimit:10;}
	.st3{fill:#262626;}
	.st4{font-family:'ArialMT';}
	.st5{font-size:10.2px;}
	.st6{font-size:10.8px;}
	.st7{fill:none;stroke:#0072BD;stroke-width:0.6;stroke-linejoin:bevel;stroke-miterlimit:10;}
	.st8{fill:none;stroke:#D95319;stroke-width:0.6;stroke-linejoin:bevel;stroke-miterlimit:10;}
	.st9{fill:none;stroke:#EDB120;stroke-width:0.6;stroke-linejoin:bevel;stroke-miterlimit:1;stroke-dasharray:6,3.6;}
	.st10{fill:none;stroke:#7E2F8E;stroke-width:0.6;stroke-linejoin:bevel;stroke-miterlimit:1;stroke-dasharray:6,3.6;}
	.st11{font-size:9px;}
	.st12{fill:none;stroke:#0072BD;stroke-width:0.6;stroke-linecap:square;stroke-miterlimit:10;}
	.st13{fill:none;stroke:#D95319;stroke-width:0.6;stroke-linecap:square;stroke-miterlimit:10;}
	.st14{fill:none;stroke:#EDB120;stroke-width:0.6;stroke-linejoin:bevel;stroke-miterlimit:10;}
	.st15{fill:none;stroke:#262626;stroke-width:0.6;stroke-linejoin:bevel;stroke-miterlimit:10;}
	.st16{fill:none;stroke:#0072BD;stroke-width:0.6;stroke-linejoin:bevel;stroke-miterlimit:1;stroke-dasharray:6,3.6;}
	.st17{fill:none;stroke:#000000;stroke-width:0.6;stroke-linejoin:bevel;stroke-miterlimit:10;}
	.st18{fill:none;stroke:#FF0000;stroke-width:0.6;stroke-linejoin:bevel;stroke-miterlimit:1;stroke-dasharray:6,3.6;}
	.st19{fill:none;stroke:#000000;stroke-width:0.6;stroke-linecap:square;stroke-miterlimit:10;}
	.st20{fill:none;stroke:#D95319;stroke-width:0.6;stroke-linejoin:bevel;stroke-miterlimit:1;stroke-dasharray:6,3.6;}
</style>
<g
   id="g986"
   transform="translate(-11.638121,-0.74834898)">
	<rect
   x="54.200001"
   y="15.8"
   class="st0"
   width="445.20001"
   height="64.800003"
   id="rect4" />
	<line
   class="st1"
   x1="54.200001"
   y1="80.599998"
   x2="54.200001"
   y2="15.8"
   id="line6" />
	<line
   class="st1"
   x1="63.099998"
   y1="80.599998"
   x2="63.099998"
   y2="15.8"
   id="line8" />
	<line
   class="st1"
   x1="72.099998"
   y1="80.599998"
   x2="72.099998"
   y2="15.8"
   id="line10" />
	<line
   class="st1"
   x1="81"
   y1="80.599998"
   x2="81"
   y2="15.8"
   id="line12" />
	<line
   class="st1"
   x1="89.900002"
   y1="80.599998"
   x2="89.900002"
   y2="15.8"
   id="line14" />
	<line
   class="st1"
   x1="98.800003"
   y1="80.599998"
   x2="98.800003"
   y2="15.8"
   id="line16" />
	<line
   class="st1"
   x1="107.7"
   y1="80.599998"
   x2="107.7"
   y2="15.8"
   id="line18" />
	<line
   class="st1"
   x1="116.6"
   y1="80.599998"
   x2="116.6"
   y2="15.8"
   id="line20" />
	<line
   class="st1"
   x1="125.5"
   y1="80.599998"
   x2="125.5"
   y2="15.8"
   id="line22" />
	<line
   class="st1"
   x1="134.39999"
   y1="80.599998"
   x2="134.39999"
   y2="15.8"
   id="line24" />
	<line
   class="st1"
   x1="143.3"
   y1="80.599998"
   x2="143.3"
   y2="15.8"
   id="line26" />
	<line
   class="st1"
   x1="152.2"
   y1="80.599998"
   x2="152.2"
   y2="15.8"
   id="line28" />
	<line
   class="st1"
   x1="161.10001"
   y1="80.599998"
   x2="161.10001"
   y2="15.8"
   id="line30" />
	<line
   class="st1"
   x1="170"
   y1="80.599998"
   x2="170"
   y2="15.8"
   id="line32" />
	<line
   class="st1"
   x1="178.89999"
   y1="80.599998"
   x2="178.89999"
   y2="15.8"
   id="line34" />
	<line
   class="st1"
   x1="187.8"
   y1="80.599998"
   x2="187.8"
   y2="15.8"
   id="line36" />
	<line
   class="st1"
   x1="196.7"
   y1="80.599998"
   x2="196.7"
   y2="15.8"
   id="line38" />
	<line
   class="st1"
   x1="205.60001"
   y1="80.599998"
   x2="205.60001"
   y2="15.8"
   id="line40" />
	<line
   class="st1"
   x1="214.5"
   y1="80.599998"
   x2="214.5"
   y2="15.8"
   id="line42" />
	<line
   class="st1"
   x1="223.39999"
   y1="80.599998"
   x2="223.39999"
   y2="15.8"
   id="line44" />
	<line
   class="st1"
   x1="232.3"
   y1="80.599998"
   x2="232.3"
   y2="15.8"
   id="line46" />
	<line
   class="st1"
   x1="241.2"
   y1="80.599998"
   x2="241.2"
   y2="15.8"
   id="line48" />
	<line
   class="st1"
   x1="250.10001"
   y1="80.599998"
   x2="250.10001"
   y2="15.8"
   id="line50" />
	<line
   class="st1"
   x1="259"
   y1="80.599998"
   x2="259"
   y2="15.8"
   id="line52" />
	<line
   class="st1"
   x1="267.89999"
   y1="80.599998"
   x2="267.89999"
   y2="15.8"
   id="line54" />
	<line
   class="st1"
   x1="276.79999"
   y1="80.599998"
   x2="276.79999"
   y2="15.8"
   id="line56" />
	<line
   class="st1"
   x1="285.70001"
   y1="80.599998"
   x2="285.70001"
   y2="15.8"
   id="line58" />
	<line
   class="st1"
   x1="294.70001"
   y1="80.599998"
   x2="294.70001"
   y2="15.8"
   id="line60" />
	<line
   class="st1"
   x1="303.60001"
   y1="80.599998"
   x2="303.60001"
   y2="15.8"
   id="line62" />
	<line
   class="st1"
   x1="312.5"
   y1="80.599998"
   x2="312.5"
   y2="15.8"
   id="line64" />
	<line
   class="st1"
   x1="321.39999"
   y1="80.599998"
   x2="321.39999"
   y2="15.8"
   id="line66" />
	<line
   class="st1"
   x1="330.29999"
   y1="80.599998"
   x2="330.29999"
   y2="15.8"
   id="line68" />
	<line
   class="st1"
   x1="339.20001"
   y1="80.599998"
   x2="339.20001"
   y2="15.8"
   id="line70" />
	<line
   class="st1"
   x1="348.10001"
   y1="80.599998"
   x2="348.10001"
   y2="15.8"
   id="line72" />
	<line
   class="st1"
   x1="357"
   y1="80.599998"
   x2="357"
   y2="15.8"
   id="line74" />
	<line
   class="st1"
   x1="365.89999"
   y1="80.599998"
   x2="365.89999"
   y2="15.8"
   id="line76" />
	<line
   class="st1"
   x1="374.79999"
   y1="80.599998"
   x2="374.79999"
   y2="15.8"
   id="line78" />
	<line
   class="st1"
   x1="383.70001"
   y1="80.599998"
   x2="383.70001"
   y2="15.8"
   id="line80" />
	<line
   class="st1"
   x1="392.60001"
   y1="80.599998"
   x2="392.60001"
   y2="15.8"
   id="line82" />
	<line
   class="st1"
   x1="401.5"
   y1="80.599998"
   x2="401.5"
   y2="15.8"
   id="line84" />
	<line
   class="st1"
   x1="410.39999"
   y1="80.599998"
   x2="410.39999"
   y2="15.8"
   id="line86" />
	<line
   class="st1"
   x1="419.29999"
   y1="80.599998"
   x2="419.29999"
   y2="15.8"
   id="line88" />
	<line
   class="st1"
   x1="428.20001"
   y1="80.599998"
   x2="428.20001"
   y2="15.8"
   id="line90" />
	<line
   class="st1"
   x1="437.10001"
   y1="80.599998"
   x2="437.10001"
   y2="15.8"
   id="line92" />
	<line
   class="st1"
   x1="446"
   y1="80.599998"
   x2="446"
   y2="15.8"
   id="line94" />
	<line
   class="st1"
   x1="454.89999"
   y1="80.599998"
   x2="454.89999"
   y2="15.8"
   id="line96" />
	<line
   class="st1"
   x1="463.79999"
   y1="80.599998"
   x2="463.79999"
   y2="15.8"
   id="line98" />
	<line
   class="st1"
   x1="472.70001"
   y1="80.599998"
   x2="472.70001"
   y2="15.8"
   id="line100" />
	<line
   class="st1"
   x1="481.60001"
   y1="80.599998"
   x2="481.60001"
   y2="15.8"
   id="line102" />
	<line
   class="st1"
   x1="490.5"
   y1="80.599998"
   x2="490.5"
   y2="15.8"
   id="line104" />
	<line
   class="st1"
   x1="499.39999"
   y1="80.599998"
   x2="499.39999"
   y2="15.8"
   id="line106" />
	<line
   class="st1"
   x1="499.39999"
   y1="80.599998"
   x2="54.200001"
   y2="80.599998"
   id="line108" />
	<line
   class="st1"
   x1="499.39999"
   y1="72.5"
   x2="54.200001"
   y2="72.5"
   id="line110" />
	<line
   class="st1"
   x1="499.39999"
   y1="64.400002"
   x2="54.200001"
   y2="64.400002"
   id="line112" />
	<line
   class="st1"
   x1="499.39999"
   y1="56.299999"
   x2="54.200001"
   y2="56.299999"
   id="line114" />
	<line
   class="st1"
   x1="499.39999"
   y1="48.200001"
   x2="54.200001"
   y2="48.200001"
   id="line116" />
	<line
   class="st1"
   x1="499.39999"
   y1="40.099998"
   x2="54.200001"
   y2="40.099998"
   id="line118" />
	<line
   class="st1"
   x1="499.39999"
   y1="32"
   x2="54.200001"
   y2="32"
   id="line120" />
	<line
   class="st1"
   x1="499.39999"
   y1="23.9"
   x2="54.200001"
   y2="23.9"
   id="line122" />
	<line
   class="st1"
   x1="499.39999"
   y1="15.8"
   x2="54.200001"
   y2="15.8"
   id="line124" />
	<line
   class="st2"
   x1="54.200001"
   y1="80.599998"
   x2="499.39999"
   y2="80.599998"
   id="line126" />
	<line
   class="st2"
   x1="54.200001"
   y1="15.8"
   x2="499.39999"
   y2="15.8"
   id="line128" />
	<line
   class="st2"
   x1="54.200001"
   y1="80.599998"
   x2="54.200001"
   y2="76.099998"
   id="line130" />
	<line
   class="st2"
   x1="98.800003"
   y1="80.599998"
   x2="98.800003"
   y2="76.099998"
   id="line132" />
	<line
   class="st2"
   x1="143.3"
   y1="80.599998"
   x2="143.3"
   y2="76.099998"
   id="line134" />
	<line
   class="st2"
   x1="187.8"
   y1="80.599998"
   x2="187.8"
   y2="76.099998"
   id="line136" />
	<line
   class="st2"
   x1="232.3"
   y1="80.599998"
   x2="232.3"
   y2="76.099998"
   id="line138" />
	<line
   class="st2"
   x1="276.79999"
   y1="80.599998"
   x2="276.79999"
   y2="76.099998"
   id="line140" />
	<line
   class="st2"
   x1="321.39999"
   y1="80.599998"
   x2="321.39999"
   y2="76.099998"
   id="line142" />
	<line
   class="st2"
   x1="365.89999"
   y1="80.599998"
   x2="365.89999"
   y2="76.099998"
   id="line144" />
	<line
   class="st2"
   x1="410.39999"
   y1="80.599998"
   x2="410.39999"
   y2="76.099998"
   id="line146" />
	<line
   class="st2"
   x1="454.89999"
   y1="80.599998"
   x2="454.89999"
   y2="76.099998"
   id="line148" />
	<line
   class="st2"
   x1="499.39999"
   y1="80.599998"
   x2="499.39999"
   y2="76.099998"
   id="line150" />
	<line
   class="st2"
   x1="54.200001"
   y1="15.8"
   x2="54.200001"
   y2="20.200001"
   id="line152" />
	<line
   class="st2"
   x1="98.800003"
   y1="15.8"
   x2="98.800003"
   y2="20.200001"
   id="line154" />
	<line
   class="st2"
   x1="143.3"
   y1="15.8"
   x2="143.3"
   y2="20.200001"
   id="line156" />
	<line
   class="st2"
   x1="187.8"
   y1="15.8"
   x2="187.8"
   y2="20.200001"
   id="line158" />
	<line
   class="st2"
   x1="232.3"
   y1="15.8"
   x2="232.3"
   y2="20.200001"
   id="line160" />
	<line
   class="st2"
   x1="276.79999"
   y1="15.8"
   x2="276.79999"
   y2="20.200001"
   id="line162" />
	<line
   class="st2"
   x1="321.39999"
   y1="15.8"
   x2="321.39999"
   y2="20.200001"
   id="line164" />
	<line
   class="st2"
   x1="365.89999"
   y1="15.8"
   x2="365.89999"
   y2="20.200001"
   id="line166" />
	<line
   class="st2"
   x1="410.39999"
   y1="15.8"
   x2="410.39999"
   y2="20.200001"
   id="line168" />
	<line
   class="st2"
   x1="454.89999"
   y1="15.8"
   x2="454.89999"
   y2="20.200001"
   id="line170" />
	<line
   class="st2"
   x1="499.39999"
   y1="15.8"
   x2="499.39999"
   y2="20.200001"
   id="line172" />
	<text
   transform="translate(51.2431,95.3595)"
   class="st3 st4 st5"
   id="text174">0</text>
	<text
   transform="translate(91.5634,95.3595)"
   class="st3 st4 st5"
   id="text176">0.1</text>
	<text
   transform="translate(136.0839,95.3595)"
   class="st3 st4 st5"
   id="text178">0.2</text>
	<text
   transform="translate(180.6035,95.3595)"
   class="st3 st4 st5"
   id="text180">0.3</text>
	<text
   transform="translate(225.124,95.3595)"
   class="st3 st4 st5"
   id="text182">0.4</text>
	<text
   transform="translate(269.6435,95.3595)"
   class="st3 st4 st5"
   id="text184">0.5</text>
	<text
   transform="translate(314.164,95.3595)"
   class="st3 st4 st5"
   id="text186">0.6</text>
	<text
   transform="translate(358.6835,95.3595)"
   class="st3 st4 st5"
   id="text188">0.7</text>
	<text
   transform="translate(403.204,95.3595)"
   class="st3 st4 st5"
   id="text190">0.8</text>
	<text
   transform="translate(447.7236,95.3595)"
   class="st3 st4 st5"
   id="text192">0.9</text>
	<text
   transform="translate(496.4433,95.3595)"
   class="st3 st4 st5"
   id="text194">1</text>
	<text
   transform="rotate(-90,53.309548,28.465951)"
   class="st3 st4 st6"
   id="text196">Current dq [A]</text>
	<line
   class="st2"
   x1="54.200001"
   y1="80.599998"
   x2="54.200001"
   y2="15.8"
   id="line198" />
	<line
   class="st2"
   x1="499.39999"
   y1="80.599998"
   x2="499.39999"
   y2="15.8"
   id="line200" />
	<line
   class="st2"
   x1="54.200001"
   y1="80.599998"
   x2="58.700001"
   y2="80.599998"
   id="line202" />
	<line
   class="st2"
   x1="54.200001"
   y1="48.200001"
   x2="58.700001"
   y2="48.200001"
   id="line204" />
	<line
   class="st2"
   x1="54.200001"
   y1="15.8"
   x2="58.700001"
   y2="15.8"
   id="line206" />
	<line
   class="st2"
   x1="499.39999"
   y1="80.599998"
   x2="495"
   y2="80.599998"
   id="line208" />
	<line
   class="st2"
   x1="499.39999"
   y1="48.200001"
   x2="495"
   y2="48.200001"
   id="line210" />
	<line
   class="st2"
   x1="499.39999"
   y1="15.8"
   x2="495"
   y2="15.8"
   id="line212" />
	<text
   transform="translate(35.2431,84.7599)"
   class="st3 st4 st5"
   id="text214">-10</text>
	<text
   transform="translate(44.2431,52.3595)"
   class="st3 st4 st5"
   id="text216">0</text>
	<text
   transform="translate(38.8437,19.9601)"
   class="st3 st4 st5"
   id="text218">10</text>
	<polyline
   class="st7"
   points="54.2,40.2 58.7,40.1 63.1,39.9 67.6,39.9 72.1,40.2 76.5,39.8 81,40.3 85.4,40.2 89.9,40.1    94.3,40.2 98.8,40.7 103.2,40.2 107.7,39.9 112.1,40 116.6,39.8 121,39.9 125.5,39.8 129.9,40 134.4,39.9 138.8,40 143.3,40.1    147.7,40.2 152.2,39.9 156.6,40 161.1,39.9 165.5,40.3 170,40.2 174.4,40.2 178.9,40 183.4,40.1 187.8,40 192.3,39.8 196.7,40.1    201.2,39.8 205.6,40.4 210.1,39.8 214.5,40.2 219,39.9 223.4,39.4 227.9,40 232.3,40.2 236.8,40.2 241.2,39.9 245.7,39.8    250.1,40.3 254.6,40.1 259,39.8 263.5,40 267.9,40.1 272.4,39.8  "
   id="polyline220" />
	<polyline
   class="st7"
   points="272.4,39.8 276.8,40.2 281.3,40 285.7,40.3 290.2,40.3 294.7,40.2 299.1,40.4 303.6,39.9 308,39.9    312.5,40 316.9,39.9 321.4,39.9 325.8,40.2 330.3,40.1 334.7,39.8 339.2,40 343.6,40.3 348.1,39.6 352.5,40.2 357,40.1 361.4,40.4    365.9,40 370.3,40.2 374.8,39.9 379.2,39.7 383.7,40 388.1,40.4 392.6,40.1 397,40.2 401.5,39.9 406,40.2 410.4,39.9 414.9,40.4    419.3,39.9 423.8,40.4 428.2,39.9 432.7,39.9 437.1,40.3 441.6,40.1 446,39.9 450.5,39.8 454.9,40.2 459.4,39.8 463.8,39.9    468.3,40.3 472.7,40 477.2,39.9 481.6,40.2 486.1,40.3 490.5,39.9  "
   id="polyline222" />
	<polyline
   class="st7"
   points="490.5,39.9 495,40.4 499.4,40 499.5,40  "
   id="polyline224" />
	<polyline
   class="st8"
   points="54.2,47.5 58.7,47 63.1,47.5 67.6,47.3 72.1,47.7 76.5,47.4 81,47.8 85.4,47.5 89.9,47.9 94.3,46.8    98.8,50.4 103.2,66.4 107.7,63.1 112.1,63.6 116.6,63.2 121,63.7 125.5,63.9 129.9,64.4 134.4,63.8 138.8,64.7 143.3,64.5    147.7,65 152.2,64.7 156.6,64.5 161.1,64.5 165.5,64.9 170,65.2 174.4,64.6 178.9,64.6 183.4,65.1 187.8,64.8 192.3,64.6    196.7,64.1 201.2,63.6 205.6,64.1 210.1,63.7 214.5,64 219,63 223.4,58.9 227.9,47.2 232.3,45.9 236.8,45.4 241.2,45.6 245.7,45.7    250.1,45.7 254.6,45.9 259,45.1 263.5,45.2 267.9,45.9 272.4,45.1  "
   id="polyline226" />
	<polyline
   class="st8"
   points="272.4,45.1 276.8,45.5 281.3,45.6 285.7,44.9 290.2,45.1 294.7,45.4 299.1,45.4 303.6,45.7 308,45.5    312.5,45.5 316.9,45.4 321.4,45.6 325.8,44.8 330.3,45.9 334.7,45.5 339.2,45.6 343.6,46.2 348.1,45 352.5,45.6 357,45.9    361.4,45.6 365.9,46.3 370.3,45.9 374.8,45.8 379.2,45.6 383.7,45.3 388.1,45.9 392.6,45.6 397,45.5 401.5,46.1 406,45.8 410.4,46    414.9,45 419.3,45.5 423.8,45.5 428.2,45.3 432.7,45.5 437.1,45.4 441.6,45.3 446,45.6 450.5,45.4 454.9,45.9 459.4,45.4    463.8,45.2 468.3,45.5 472.7,46 477.2,45.4 481.6,45.6 486.1,45.6 490.5,45.7  "
   id="polyline228" />
	<polyline
   class="st8"
   points="490.5,45.7 495,45.1 499.4,45.8 499.5,45.8  "
   id="polyline230" />
	<polyline
   class="st9"
   points="54.2,40.1 58.7,40.1 63.1,40.1 67.6,40.1 72.1,40.1 76.5,40.1 81,40.1 85.4,40.1 89.9,40.1    94.3,40.1 98.8,40.1 103.2,40.1 107.7,40.1 112.1,40.1 116.6,40.1 121,40.1 125.5,40.1 129.9,40.1 134.4,40.1 138.8,40.1    143.3,40.1 147.7,40.1 152.2,40.1 156.6,40.1 161.1,40.1 165.5,40.1 170,40.1 174.4,40.1 178.9,40.1 183.4,40.1 187.8,40.1    192.3,40.1 196.7,40.1 201.2,40.1 205.6,40.1 210.1,40.1 214.5,40.1 219,40.1 223.4,40.1 227.9,40.1 232.3,40.1 236.8,40.1    241.2,40.1 245.7,40.1 250.1,40.1 254.6,40.1 259,40.1 263.5,40.1 267.9,40.1 272.4,40.1 276.8,40.1 281.3,40.1 285.7,40.1    290.2,40.1 294.7,40.1 299.1,40.1 303.6,40.1 308,40.1 312.5,40.1 316.9,40.1 321.4,40.1 325.8,40.1 330.3,40.1 334.7,40.1    339.2,40.1 343.6,40.1 348.1,40.1 352.5,40.1 357,40.1 361.4,40.1 365.9,40.1 370.3,40.1 374.8,40.1 379.2,40.1 383.7,40.1    388.1,40.1 392.6,40.1 397,40.1 401.5,40.1 406,40.1 410.4,40.1 414.9,40.1 419.3,40.1 423.8,40.1 428.2,40.1 432.7,40.1    437.1,40.1 441.6,40.1 446,40.1 450.5,40.1 454.9,40.1 459.4,40.1 463.8,40.1 468.3,40.1 472.7,40.1 477.2,40.1 481.6,40.1    486.1,40.1 490.5,40.1 495,40.1 499.4,40.1 499.5,40.1  "
   id="polyline232" />
	<polyline
   class="st10"
   points="54.2,47.8 58.7,47.7 63.1,47.2 67.6,47.4 72.1,47.5 76.5,47.4 81,47.5 85.4,47.5 89.9,47.9    94.3,47.5 98.8,52.2 103.2,65.3 107.7,63.3 112.1,63.7 116.6,63.3 121,63.6 125.5,63.9 129.9,64 134.4,64.2 138.8,64.6 143.3,64.7    147.7,64.9 152.2,64.8 156.6,64.9 161.1,64.7 165.5,65.3 170,65.4 174.4,65 178.9,64.4 183.4,64.8 187.8,64.7 192.3,64.2    196.7,64.1 201.2,63.7 205.6,63.9 210.1,63.9 214.5,63.7 219,63.1 223.4,56.8 227.9,46.9 232.3,46 236.8,45.6 241.2,45.3    245.7,45.8 250.1,45.7 254.6,45.7 259,45.1 263.5,45.6 267.9,46.1 272.4,45.4 276.8,45.3 281.3,45.3 285.7,45.2 290.2,45.1    294.7,45.7 299.1,45.6 303.6,45.7 308,45.8 312.5,45.3 316.9,45.4 321.4,46.1 325.8,45.1 330.3,45.9 334.7,45.5 339.2,45.5    343.6,46.4 348.1,45.5 352.5,45.1 357,45.6 361.4,45.6 365.9,45.6 370.3,45.7 374.8,45.6 379.2,45.4 383.7,45.4 388.1,45.6    392.6,46.2 397,45.5 401.5,45.6 406,45.9 410.4,46 414.9,45.2 419.3,45.5 423.8,45.6 428.2,45.7 432.7,45.5 437.1,45.5 441.6,45.9    446,45.3 450.5,45.8 454.9,45.6 459.4,45 463.8,45.5 468.3,46 472.7,45.8 477.2,45.6 481.6,46 486.1,45.2 490.5,45.6 495,45.7    499.4,45.5 499.5,45.5  "
   id="polyline234" />
	<rect
   x="425.60001"
   y="26"
   class="st0"
   width="63.599998"
   height="53.400002"
   id="rect236" />
	<text
   transform="translate(464.6435,37.5451)"
   class="st4 st11"
   id="text238">Id</text>
	<line
   class="st12"
   x1="431.60001"
   y1="33.900002"
   x2="461.60001"
   y2="33.900002"
   id="line240" />
	<text
   transform="translate(464.6435,50.0216)"
   class="st4 st11"
   id="text242">Iq</text>
	<line
   class="st13"
   x1="431.60001"
   y1="46.400002"
   x2="461.60001"
   y2="46.400002"
   id="line244" />
	<text
   transform="translate(464.6435,62.4982)"
   class="st4 st11"
   id="text246">IdRef</text>
	<line
   class="st9"
   x1="431.60001"
   y1="58.900002"
   x2="461.60001"
   y2="58.900002"
   id="line248" />
	<text
   transform="translate(464.6435,74.9748)"
   class="st4 st11"
   id="text250">IqRef</text>
	<line
   class="st10"
   x1="431.60001"
   y1="71.400002"
   x2="461.60001"
   y2="71.400002"
   id="line252" />
	<polyline
   class="st2"
   points="425.6,79.4 425.6,26 489.2,26 489.2,79.4 425.6,79.4  "
   id="polyline254" />
	<rect
   x="54.200001"
   y="105.8"
   class="st0"
   width="445.20001"
   height="64.800003"
   id="rect256" />
	<line
   class="st1"
   x1="54.200001"
   y1="170.60001"
   x2="54.200001"
   y2="105.8"
   id="line258" />
	<line
   class="st1"
   x1="63.099998"
   y1="170.60001"
   x2="63.099998"
   y2="105.8"
   id="line260" />
	<line
   class="st1"
   x1="72.099998"
   y1="170.60001"
   x2="72.099998"
   y2="105.8"
   id="line262" />
	<line
   class="st1"
   x1="81"
   y1="170.60001"
   x2="81"
   y2="105.8"
   id="line264" />
	<line
   class="st1"
   x1="89.900002"
   y1="170.60001"
   x2="89.900002"
   y2="105.8"
   id="line266" />
	<line
   class="st1"
   x1="98.800003"
   y1="170.60001"
   x2="98.800003"
   y2="105.8"
   id="line268" />
	<line
   class="st1"
   x1="107.7"
   y1="170.60001"
   x2="107.7"
   y2="105.8"
   id="line270" />
	<line
   class="st1"
   x1="116.6"
   y1="170.60001"
   x2="116.6"
   y2="105.8"
   id="line272" />
	<line
   class="st1"
   x1="125.5"
   y1="170.60001"
   x2="125.5"
   y2="105.8"
   id="line274" />
	<line
   class="st1"
   x1="134.39999"
   y1="170.60001"
   x2="134.39999"
   y2="105.8"
   id="line276" />
	<line
   class="st1"
   x1="143.3"
   y1="170.60001"
   x2="143.3"
   y2="105.8"
   id="line278" />
	<line
   class="st1"
   x1="152.2"
   y1="170.60001"
   x2="152.2"
   y2="105.8"
   id="line280" />
	<line
   class="st1"
   x1="161.10001"
   y1="170.60001"
   x2="161.10001"
   y2="105.8"
   id="line282" />
	<line
   class="st1"
   x1="170"
   y1="170.60001"
   x2="170"
   y2="105.8"
   id="line284" />
	<line
   class="st1"
   x1="178.89999"
   y1="170.60001"
   x2="178.89999"
   y2="105.8"
   id="line286" />
	<line
   class="st1"
   x1="187.8"
   y1="170.60001"
   x2="187.8"
   y2="105.8"
   id="line288" />
	<line
   class="st1"
   x1="196.7"
   y1="170.60001"
   x2="196.7"
   y2="105.8"
   id="line290" />
	<line
   class="st1"
   x1="205.60001"
   y1="170.60001"
   x2="205.60001"
   y2="105.8"
   id="line292" />
	<line
   class="st1"
   x1="214.5"
   y1="170.60001"
   x2="214.5"
   y2="105.8"
   id="line294" />
	<line
   class="st1"
   x1="223.39999"
   y1="170.60001"
   x2="223.39999"
   y2="105.8"
   id="line296" />
	<line
   class="st1"
   x1="232.3"
   y1="170.60001"
   x2="232.3"
   y2="105.8"
   id="line298" />
	<line
   class="st1"
   x1="241.2"
   y1="170.60001"
   x2="241.2"
   y2="105.8"
   id="line300" />
	<line
   class="st1"
   x1="250.10001"
   y1="170.60001"
   x2="250.10001"
   y2="105.8"
   id="line302" />
	<line
   class="st1"
   x1="259"
   y1="170.60001"
   x2="259"
   y2="105.8"
   id="line304" />
	<line
   class="st1"
   x1="267.89999"
   y1="170.60001"
   x2="267.89999"
   y2="105.8"
   id="line306" />
	<line
   class="st1"
   x1="276.79999"
   y1="170.60001"
   x2="276.79999"
   y2="105.8"
   id="line308" />
	<line
   class="st1"
   x1="285.70001"
   y1="170.60001"
   x2="285.70001"
   y2="105.8"
   id="line310" />
	<line
   class="st1"
   x1="294.70001"
   y1="170.60001"
   x2="294.70001"
   y2="105.8"
   id="line312" />
	<line
   class="st1"
   x1="303.60001"
   y1="170.60001"
   x2="303.60001"
   y2="105.8"
   id="line314" />
	<line
   class="st1"
   x1="312.5"
   y1="170.60001"
   x2="312.5"
   y2="105.8"
   id="line316" />
	<line
   class="st1"
   x1="321.39999"
   y1="170.60001"
   x2="321.39999"
   y2="105.8"
   id="line318" />
	<line
   class="st1"
   x1="330.29999"
   y1="170.60001"
   x2="330.29999"
   y2="105.8"
   id="line320" />
	<line
   class="st1"
   x1="339.20001"
   y1="170.60001"
   x2="339.20001"
   y2="105.8"
   id="line322" />
	<line
   class="st1"
   x1="348.10001"
   y1="170.60001"
   x2="348.10001"
   y2="105.8"
   id="line324" />
	<line
   class="st1"
   x1="357"
   y1="170.60001"
   x2="357"
   y2="105.8"
   id="line326" />
	<line
   class="st1"
   x1="365.89999"
   y1="170.60001"
   x2="365.89999"
   y2="105.8"
   id="line328" />
	<line
   class="st1"
   x1="374.79999"
   y1="170.60001"
   x2="374.79999"
   y2="105.8"
   id="line330" />
	<line
   class="st1"
   x1="383.70001"
   y1="170.60001"
   x2="383.70001"
   y2="105.8"
   id="line332" />
	<line
   class="st1"
   x1="392.60001"
   y1="170.60001"
   x2="392.60001"
   y2="105.8"
   id="line334" />
	<line
   class="st1"
   x1="401.5"
   y1="170.60001"
   x2="401.5"
   y2="105.8"
   id="line336" />
	<line
   class="st1"
   x1="410.39999"
   y1="170.60001"
   x2="410.39999"
   y2="105.8"
   id="line338" />
	<line
   class="st1"
   x1="419.29999"
   y1="170.60001"
   x2="419.29999"
   y2="105.8"
   id="line340" />
	<line
   class="st1"
   x1="428.20001"
   y1="170.60001"
   x2="428.20001"
   y2="105.8"
   id="line342" />
	<line
   class="st1"
   x1="437.10001"
   y1="170.60001"
   x2="437.10001"
   y2="105.8"
   id="line344" />
	<line
   class="st1"
   x1="446"
   y1="170.60001"
   x2="446"
   y2="105.8"
   id="line346" />
	<line
   class="st1"
   x1="454.89999"
   y1="170.60001"
   x2="454.89999"
   y2="105.8"
   id="line348" />
	<line
   class="st1"
   x1="463.79999"
   y1="170.60001"
   x2="463.79999"
   y2="105.8"
   id="line350" />
	<line
   class="st1"
   x1="472.70001"
   y1="170.60001"
   x2="472.70001"
   y2="105.8"
   id="line352" />
	<line
   class="st1"
   x1="481.60001"
   y1="170.60001"
   x2="481.60001"
   y2="105.8"
   id="line354" />
	<line
   class="st1"
   x1="490.5"
   y1="170.60001"
   x2="490.5"
   y2="105.8"
   id="line356" />
	<line
   class="st1"
   x1="499.39999"
   y1="170.60001"
   x2="499.39999"
   y2="105.8"
   id="line358" />
	<line
   class="st1"
   x1="499.39999"
   y1="170.60001"
   x2="54.200001"
   y2="170.60001"
   id="line360" />
	<line
   class="st1"
   x1="499.39999"
   y1="162.5"
   x2="54.200001"
   y2="162.5"
   id="line362" />
	<line
   class="st1"
   x1="499.39999"
   y1="154.39999"
   x2="54.200001"
   y2="154.39999"
   id="line364" />
	<line
   class="st1"
   x1="499.39999"
   y1="146.3"
   x2="54.200001"
   y2="146.3"
   id="line366" />
	<line
   class="st1"
   x1="499.39999"
   y1="138.2"
   x2="54.200001"
   y2="138.2"
   id="line368" />
	<line
   class="st1"
   x1="499.39999"
   y1="130.10001"
   x2="54.200001"
   y2="130.10001"
   id="line370" />
	<line
   class="st1"
   x1="499.39999"
   y1="122"
   x2="54.200001"
   y2="122"
   id="line372" />
	<line
   class="st1"
   x1="499.39999"
   y1="113.9"
   x2="54.200001"
   y2="113.9"
   id="line374" />
	<line
   class="st1"
   x1="499.39999"
   y1="105.8"
   x2="54.200001"
   y2="105.8"
   id="line376" />
	<line
   class="st2"
   x1="54.200001"
   y1="170.60001"
   x2="499.39999"
   y2="170.60001"
   id="line378" />
	<line
   class="st2"
   x1="54.200001"
   y1="105.8"
   x2="499.39999"
   y2="105.8"
   id="line380" />
	<line
   class="st2"
   x1="54.200001"
   y1="170.60001"
   x2="54.200001"
   y2="166.10001"
   id="line382" />
	<line
   class="st2"
   x1="98.800003"
   y1="170.60001"
   x2="98.800003"
   y2="166.10001"
   id="line384" />
	<line
   class="st2"
   x1="143.3"
   y1="170.60001"
   x2="143.3"
   y2="166.10001"
   id="line386" />
	<line
   class="st2"
   x1="187.8"
   y1="170.60001"
   x2="187.8"
   y2="166.10001"
   id="line388" />
	<line
   class="st2"
   x1="232.3"
   y1="170.60001"
   x2="232.3"
   y2="166.10001"
   id="line390" />
	<line
   class="st2"
   x1="276.79999"
   y1="170.60001"
   x2="276.79999"
   y2="166.10001"
   id="line392" />
	<line
   class="st2"
   x1="321.39999"
   y1="170.60001"
   x2="321.39999"
   y2="166.10001"
   id="line394" />
	<line
   class="st2"
   x1="365.89999"
   y1="170.60001"
   x2="365.89999"
   y2="166.10001"
   id="line396" />
	<line
   class="st2"
   x1="410.39999"
   y1="170.60001"
   x2="410.39999"
   y2="166.10001"
   id="line398" />
	<line
   class="st2"
   x1="454.89999"
   y1="170.60001"
   x2="454.89999"
   y2="166.10001"
   id="line400" />
	<line
   class="st2"
   x1="499.39999"
   y1="170.60001"
   x2="499.39999"
   y2="166.10001"
   id="line402" />
	<line
   class="st2"
   x1="54.200001"
   y1="105.8"
   x2="54.200001"
   y2="110.2"
   id="line404" />
	<line
   class="st2"
   x1="98.800003"
   y1="105.8"
   x2="98.800003"
   y2="110.2"
   id="line406" />
	<line
   class="st2"
   x1="143.3"
   y1="105.8"
   x2="143.3"
   y2="110.2"
   id="line408" />
	<line
   class="st2"
   x1="187.8"
   y1="105.8"
   x2="187.8"
   y2="110.2"
   id="line410" />
	<line
   class="st2"
   x1="232.3"
   y1="105.8"
   x2="232.3"
   y2="110.2"
   id="line412" />
	<line
   class="st2"
   x1="276.79999"
   y1="105.8"
   x2="276.79999"
   y2="110.2"
   id="line414" />
	<line
   class="st2"
   x1="321.39999"
   y1="105.8"
   x2="321.39999"
   y2="110.2"
   id="line416" />
	<line
   class="st2"
   x1="365.89999"
   y1="105.8"
   x2="365.89999"
   y2="110.2"
   id="line418" />
	<line
   class="st2"
   x1="410.39999"
   y1="105.8"
   x2="410.39999"
   y2="110.2"
   id="line420" />
	<line
   class="st2"
   x1="454.89999"
   y1="105.8"
   x2="454.89999"
   y2="110.2"
   id="line422" />
	<line
   class="st2"
   x1="499.39999"
   y1="105.8"
   x2="499.39999"
   y2="110.2"
   id="line424" />
	<text
   transform="translate(51.2431,185.3595)"
   class="st3 st4 st5"
   id="text426">0</text>
	<text
   transform="translate(91.5634,185.3595)"
   class="st3 st4 st5"
   id="text428">0.1</text>
	<text
   transform="translate(136.0839,185.3595)"
   class="st3 st4 st5"
   id="text430">0.2</text>
	<text
   transform="translate(180.6035,185.3595)"
   class="st3 st4 st5"
   id="text432">0.3</text>
	<text
   transform="translate(225.124,185.3595)"
   class="st3 st4 st5"
   id="text434">0.4</text>
	<text
   transform="translate(269.6435,185.3595)"
   class="st3 st4 st5"
   id="text436">0.5</text>
	<text
   transform="translate(314.164,185.3595)"
   class="st3 st4 st5"
   id="text438">0.6</text>
	<text
   transform="translate(358.6835,185.3595)"
   class="st3 st4 st5"
   id="text440">0.7</text>
	<text
   transform="translate(403.204,185.3595)"
   class="st3 st4 st5"
   id="text442">0.8</text>
	<text
   transform="translate(447.7236,185.3595)"
   class="st3 st4 st5"
   id="text444">0.9</text>
	<text
   transform="translate(496.4433,185.3595)"
   class="st3 st4 st5"
   id="text446">1</text>
	<text
   transform="rotate(-90,99.205946,74.362351)"
   class="st3 st4 st6"
   id="text448">Current DC [A]</text>
	<line
   class="st2"
   x1="54.200001"
   y1="170.60001"
   x2="54.200001"
   y2="105.8"
   id="line450" />
	<line
   class="st2"
   x1="499.39999"
   y1="170.60001"
   x2="499.39999"
   y2="105.8"
   id="line452" />
	<line
   class="st2"
   x1="54.200001"
   y1="170.60001"
   x2="58.700001"
   y2="170.60001"
   id="line454" />
	<line
   class="st2"
   x1="54.200001"
   y1="138.2"
   x2="58.700001"
   y2="138.2"
   id="line456" />
	<line
   class="st2"
   x1="54.200001"
   y1="105.8"
   x2="58.700001"
   y2="105.8"
   id="line458" />
	<line
   class="st2"
   x1="499.39999"
   y1="170.60001"
   x2="495"
   y2="170.60001"
   id="line460" />
	<line
   class="st2"
   x1="499.39999"
   y1="138.2"
   x2="495"
   y2="138.2"
   id="line462" />
	<line
   class="st2"
   x1="499.39999"
   y1="105.8"
   x2="495"
   y2="105.8"
   id="line464" />
	<text
   transform="translate(40.6435,174.7599)"
   class="st3 st4 st5"
   id="text466">-5</text>
	<text
   transform="translate(44.2431,142.3595)"
   class="st3 st4 st5"
   id="text468">0</text>
	<text
   transform="translate(44.2431,109.9601)"
   class="st3 st4 st5"
   id="text470">5</text>
	<polyline
   class="st7"
   points="54.2,136 58.7,136.1 63.1,135.5 67.6,136.3 72.1,136.4 76.5,135.9 81,135.7 85.4,136.5 89.9,135.9    94.3,136.5 98.8,129.5 103.2,128.4 107.7,129.5 112.1,129.7 116.6,129.3 121,129.6 125.5,129.6 129.9,129.8 134.4,129.6    138.8,129.2 143.3,129.1 147.7,129.2 152.2,129.1 156.6,128.9 161.1,128.6 165.5,128.5 170,128.5 174.4,128.3 178.9,128.4    183.4,128.4 187.8,128.2 192.3,128.4 196.7,128.2 201.2,128.1 205.6,127.8 210.1,128.2 214.5,128.1 219,127.8 223.4,134.5    227.9,135.5 232.3,135.2 236.8,134 241.2,134.2 245.7,134.4 250.1,134.5 254.6,133.8 259,133 263.5,133.8 267.9,133.5 272.4,133.8     "
   id="polyline472" />
	<polyline
   class="st7"
   points="272.4,133.8 276.8,133.4 281.3,133.4 285.7,133.2 290.2,133.5 294.7,133.2 299.1,133.5 303.6,133.3    308,133.5 312.5,133.1 316.9,133.4 321.4,133 325.8,133.3 330.3,133.6 334.7,133.5 339.2,133.3 343.6,133.3 348.1,132.7    352.5,133.2 357,133.4 361.4,133.5 365.9,133.7 370.3,133.4 374.8,133.9 379.2,132.9 383.7,133.2 388.1,133.9 392.6,133.5    397,133.3 401.5,132.6 406,132.9 410.4,133.3 414.9,132.9 419.3,132.9 423.8,133.2 428.2,132.7 432.7,133.2 437.1,132.8    441.6,132.7 446,133.3 450.5,133 454.9,133.5 459.4,132.9 463.8,133.6 468.3,133 472.7,133.4 477.2,134 481.6,133.6 486.1,133.5    490.5,132.5  "
   id="polyline474" />
	<polyline
   class="st7"
   points="490.5,132.5 495,132.9 499.4,133.2 499.5,133.2  "
   id="polyline476" />
	<polyline
   class="st8"
   points="54.2,140.5 58.7,140.5 63.1,140.1 67.6,140.6 72.1,141.2 76.5,139.9 81,139.9 85.4,141.2 89.9,140.2    94.3,141.5 98.8,122.8 103.2,124.6 107.7,123.4 112.1,122.8 116.6,122.6 121,123 125.5,122.6 129.9,123 134.4,123.6 138.8,123.1    143.3,123.6 147.7,123.7 152.2,123.6 156.6,123.9 161.1,124.3 165.5,124.3 170,124.4 174.4,123.9 178.9,124.4 183.4,124.6    187.8,124.3 192.3,124.4 196.7,124.7 201.2,124.7 205.6,124.4 210.1,124.9 214.5,124.9 219,125 223.4,141.2 227.9,140.8    232.3,141.5 236.8,141.1 241.2,141.8 245.7,142.9 250.1,142.2 254.6,142.4 259,141.6 263.5,143.1 267.9,142.8 272.4,143.2  "
   id="polyline478" />
	<polyline
   class="st8"
   points="272.4,143.2 276.8,141.9 281.3,142.7 285.7,143.2 290.2,142.2 294.7,142.7 299.1,142.8 303.6,142.4    308,143.4 312.5,142.2 316.9,142.9 321.4,143.1 325.8,143.1 330.3,142.8 334.7,142.8 339.2,143.4 343.6,142.9 348.1,142.7    352.5,142.8 357,143.1 361.4,144.4 365.9,142.9 370.3,143.4 374.8,143.8 379.2,142.8 383.7,143.4 388.1,143.7 392.6,143.4    397,142.9 401.5,142.4 406,142.4 410.4,142.8 414.9,142.9 419.3,142.5 423.8,143.1 428.2,142.4 432.7,142.7 437.1,142.5    441.6,142.8 446,143.1 450.5,142.4 454.9,142.5 459.4,143.1 463.8,144.1 468.3,142.2 472.7,142.9 477.2,144.4 481.6,143.7    486.1,143.1 490.5,141.9  "
   id="polyline480" />
	<polyline
   class="st8"
   points="490.5,141.9 495,143.4 499.4,142.9 499.5,142.9  "
   id="polyline482" />
	<polyline
   class="st14"
   points="54.2,138.4 58.7,138.5 63.1,137.4 67.6,138.8 72.1,139.5 76.5,137.7 81,137.4 85.4,139.6 89.9,138    94.3,139.9 98.8,114.2 103.2,114.8 107.7,114.8 112.1,114.4 116.6,113.7 121,114.5 125.5,114 129.9,114.6 134.4,115 138.8,114.2    143.3,114.5 147.7,114.8 152.2,114.5 156.6,114.5 161.1,114.7 165.5,114.6 170,114.7 174.4,114 178.9,114.7 183.4,114.8    187.8,114.3 192.3,114.7 196.7,114.7 201.2,114.6 205.6,114.1 210.1,114.9 214.5,114.8 219,114.6 223.4,137.6 227.9,138.1    232.3,138.5 236.8,136.9 241.2,137.9 245.7,139.2 250.1,138.6 254.6,138 259,136.5 263.5,138.8 267.9,138.2 272.4,138.9  "
   id="polyline484" />
	<polyline
   class="st14"
   points="272.4,138.9 276.8,137.1 281.3,137.9 285.7,138.2 290.2,137.6 294.7,137.7 299.1,138.2 303.6,137.5    308,138.7 312.5,137.1 316.9,138.1 321.4,137.9 325.8,138.2 330.3,138.3 334.7,138.2 339.2,138.5 343.6,138 348.1,137.2    352.5,137.8 357,138.3 361.4,139.8 365.9,138.5 370.3,138.6 374.8,139.6 379.2,137.5 383.7,138.4 388.1,139.4 392.6,138.7 397,138    401.5,136.8 406,137.1 410.4,137.9 414.9,137.7 419.3,137.2 423.8,138.1 428.2,136.9 432.7,137.7 437.1,137.1 441.6,137.3    446,138.2 450.5,137.2 454.9,137.8 459.4,137.8 463.8,139.6 468.3,137 472.7,138.1 477.2,140.2 481.6,139.1 486.1,138.4    490.5,136.3  "
   id="polyline486" />
	<polyline
   class="st14"
   points="490.5,136.3 495,138.1 499.4,138 499.5,137.9  "
   id="polyline488" />
	<rect
   x="427.39999"
   y="116"
   class="st0"
   width="61.799999"
   height="40.799999"
   id="rect490" />
	<text
   transform="translate(466.4433,127.5207)"
   class="st4 st11"
   id="text492">Ibat</text>
	<line
   class="st7"
   x1="433.39999"
   y1="123.9"
   x2="463.39999"
   y2="123.9"
   id="line494" />
	<text
   transform="translate(466.4433,139.9601)"
   class="st4 st11"
   id="text496">IFW</text>
	<line
   class="st8"
   x1="433.39999"
   y1="136.39999"
   x2="463.39999"
   y2="136.39999"
   id="line498" />
	<text
   transform="translate(466.4433,152.3986)"
   class="st4 st11"
   id="text500">Iload</text>
	<line
   class="st14"
   x1="433.39999"
   y1="148.8"
   x2="463.39999"
   y2="148.8"
   id="line502" />
	<polyline
   class="st15"
   points="427.4,156.8 427.4,116 489.2,116 489.2,156.8 427.4,156.8  "
   id="polyline504" />
	<rect
   x="54.200001"
   y="195.8"
   class="st0"
   width="445.20001"
   height="64.800003"
   id="rect506" />
	<line
   class="st1"
   x1="54.200001"
   y1="260.60001"
   x2="54.200001"
   y2="195.8"
   id="line508" />
	<line
   class="st1"
   x1="63.099998"
   y1="260.60001"
   x2="63.099998"
   y2="195.8"
   id="line510" />
	<line
   class="st1"
   x1="72.099998"
   y1="260.60001"
   x2="72.099998"
   y2="195.8"
   id="line512" />
	<line
   class="st1"
   x1="81"
   y1="260.60001"
   x2="81"
   y2="195.8"
   id="line514" />
	<line
   class="st1"
   x1="89.900002"
   y1="260.60001"
   x2="89.900002"
   y2="195.8"
   id="line516" />
	<line
   class="st1"
   x1="98.800003"
   y1="260.60001"
   x2="98.800003"
   y2="195.8"
   id="line518" />
	<line
   class="st1"
   x1="107.7"
   y1="260.60001"
   x2="107.7"
   y2="195.8"
   id="line520" />
	<line
   class="st1"
   x1="116.6"
   y1="260.60001"
   x2="116.6"
   y2="195.8"
   id="line522" />
	<line
   class="st1"
   x1="125.5"
   y1="260.60001"
   x2="125.5"
   y2="195.8"
   id="line524" />
	<line
   class="st1"
   x1="134.39999"
   y1="260.60001"
   x2="134.39999"
   y2="195.8"
   id="line526" />
	<line
   class="st1"
   x1="143.3"
   y1="260.60001"
   x2="143.3"
   y2="195.8"
   id="line528" />
	<line
   class="st1"
   x1="152.2"
   y1="260.60001"
   x2="152.2"
   y2="195.8"
   id="line530" />
	<line
   class="st1"
   x1="161.10001"
   y1="260.60001"
   x2="161.10001"
   y2="195.8"
   id="line532" />
	<line
   class="st1"
   x1="170"
   y1="260.60001"
   x2="170"
   y2="195.8"
   id="line534" />
	<line
   class="st1"
   x1="178.89999"
   y1="260.60001"
   x2="178.89999"
   y2="195.8"
   id="line536" />
	<line
   class="st1"
   x1="187.8"
   y1="260.60001"
   x2="187.8"
   y2="195.8"
   id="line538" />
	<line
   class="st1"
   x1="196.7"
   y1="260.60001"
   x2="196.7"
   y2="195.8"
   id="line540" />
	<line
   class="st1"
   x1="205.60001"
   y1="260.60001"
   x2="205.60001"
   y2="195.8"
   id="line542" />
	<line
   class="st1"
   x1="214.5"
   y1="260.60001"
   x2="214.5"
   y2="195.8"
   id="line544" />
	<line
   class="st1"
   x1="223.39999"
   y1="260.60001"
   x2="223.39999"
   y2="195.8"
   id="line546" />
	<line
   class="st1"
   x1="232.3"
   y1="260.60001"
   x2="232.3"
   y2="195.8"
   id="line548" />
	<line
   class="st1"
   x1="241.2"
   y1="260.60001"
   x2="241.2"
   y2="195.8"
   id="line550" />
	<line
   class="st1"
   x1="250.10001"
   y1="260.60001"
   x2="250.10001"
   y2="195.8"
   id="line552" />
	<line
   class="st1"
   x1="259"
   y1="260.60001"
   x2="259"
   y2="195.8"
   id="line554" />
	<line
   class="st1"
   x1="267.89999"
   y1="260.60001"
   x2="267.89999"
   y2="195.8"
   id="line556" />
	<line
   class="st1"
   x1="276.79999"
   y1="260.60001"
   x2="276.79999"
   y2="195.8"
   id="line558" />
	<line
   class="st1"
   x1="285.70001"
   y1="260.60001"
   x2="285.70001"
   y2="195.8"
   id="line560" />
	<line
   class="st1"
   x1="294.70001"
   y1="260.60001"
   x2="294.70001"
   y2="195.8"
   id="line562" />
	<line
   class="st1"
   x1="303.60001"
   y1="260.60001"
   x2="303.60001"
   y2="195.8"
   id="line564" />
	<line
   class="st1"
   x1="312.5"
   y1="260.60001"
   x2="312.5"
   y2="195.8"
   id="line566" />
	<line
   class="st1"
   x1="321.39999"
   y1="260.60001"
   x2="321.39999"
   y2="195.8"
   id="line568" />
	<line
   class="st1"
   x1="330.29999"
   y1="260.60001"
   x2="330.29999"
   y2="195.8"
   id="line570" />
	<line
   class="st1"
   x1="339.20001"
   y1="260.60001"
   x2="339.20001"
   y2="195.8"
   id="line572" />
	<line
   class="st1"
   x1="348.10001"
   y1="260.60001"
   x2="348.10001"
   y2="195.8"
   id="line574" />
	<line
   class="st1"
   x1="357"
   y1="260.60001"
   x2="357"
   y2="195.8"
   id="line576" />
	<line
   class="st1"
   x1="365.89999"
   y1="260.60001"
   x2="365.89999"
   y2="195.8"
   id="line578" />
	<line
   class="st1"
   x1="374.79999"
   y1="260.60001"
   x2="374.79999"
   y2="195.8"
   id="line580" />
	<line
   class="st1"
   x1="383.70001"
   y1="260.60001"
   x2="383.70001"
   y2="195.8"
   id="line582" />
	<line
   class="st1"
   x1="392.60001"
   y1="260.60001"
   x2="392.60001"
   y2="195.8"
   id="line584" />
	<line
   class="st1"
   x1="401.5"
   y1="260.60001"
   x2="401.5"
   y2="195.8"
   id="line586" />
	<line
   class="st1"
   x1="410.39999"
   y1="260.60001"
   x2="410.39999"
   y2="195.8"
   id="line588" />
	<line
   class="st1"
   x1="419.29999"
   y1="260.60001"
   x2="419.29999"
   y2="195.8"
   id="line590" />
	<line
   class="st1"
   x1="428.20001"
   y1="260.60001"
   x2="428.20001"
   y2="195.8"
   id="line592" />
	<line
   class="st1"
   x1="437.10001"
   y1="260.60001"
   x2="437.10001"
   y2="195.8"
   id="line594" />
	<line
   class="st1"
   x1="446"
   y1="260.60001"
   x2="446"
   y2="195.8"
   id="line596" />
	<line
   class="st1"
   x1="454.89999"
   y1="260.60001"
   x2="454.89999"
   y2="195.8"
   id="line598" />
	<line
   class="st1"
   x1="463.79999"
   y1="260.60001"
   x2="463.79999"
   y2="195.8"
   id="line600" />
	<line
   class="st1"
   x1="472.70001"
   y1="260.60001"
   x2="472.70001"
   y2="195.8"
   id="line602" />
	<line
   class="st1"
   x1="481.60001"
   y1="260.60001"
   x2="481.60001"
   y2="195.8"
   id="line604" />
	<line
   class="st1"
   x1="490.5"
   y1="260.60001"
   x2="490.5"
   y2="195.8"
   id="line606" />
	<line
   class="st1"
   x1="499.39999"
   y1="260.60001"
   x2="499.39999"
   y2="195.8"
   id="line608" />
	<line
   class="st1"
   x1="499.39999"
   y1="260.60001"
   x2="54.200001"
   y2="260.60001"
   id="line610" />
	<line
   class="st1"
   x1="499.39999"
   y1="252.5"
   x2="54.200001"
   y2="252.5"
   id="line612" />
	<line
   class="st1"
   x1="499.39999"
   y1="244.39999"
   x2="54.200001"
   y2="244.39999"
   id="line614" />
	<line
   class="st1"
   x1="499.39999"
   y1="236.3"
   x2="54.200001"
   y2="236.3"
   id="line616" />
	<line
   class="st1"
   x1="499.39999"
   y1="228.2"
   x2="54.200001"
   y2="228.2"
   id="line618" />
	<line
   class="st1"
   x1="499.39999"
   y1="220.10001"
   x2="54.200001"
   y2="220.10001"
   id="line620" />
	<line
   class="st1"
   x1="499.39999"
   y1="212"
   x2="54.200001"
   y2="212"
   id="line622" />
	<line
   class="st1"
   x1="499.39999"
   y1="203.89999"
   x2="54.200001"
   y2="203.89999"
   id="line624" />
	<line
   class="st1"
   x1="499.39999"
   y1="195.8"
   x2="54.200001"
   y2="195.8"
   id="line626" />
	<line
   class="st2"
   x1="54.200001"
   y1="260.60001"
   x2="499.39999"
   y2="260.60001"
   id="line628" />
	<line
   class="st2"
   x1="54.200001"
   y1="195.8"
   x2="499.39999"
   y2="195.8"
   id="line630" />
	<line
   class="st2"
   x1="54.200001"
   y1="260.60001"
   x2="54.200001"
   y2="256.10001"
   id="line632" />
	<line
   class="st2"
   x1="98.800003"
   y1="260.60001"
   x2="98.800003"
   y2="256.10001"
   id="line634" />
	<line
   class="st2"
   x1="143.3"
   y1="260.60001"
   x2="143.3"
   y2="256.10001"
   id="line636" />
	<line
   class="st2"
   x1="187.8"
   y1="260.60001"
   x2="187.8"
   y2="256.10001"
   id="line638" />
	<line
   class="st2"
   x1="232.3"
   y1="260.60001"
   x2="232.3"
   y2="256.10001"
   id="line640" />
	<line
   class="st2"
   x1="276.79999"
   y1="260.60001"
   x2="276.79999"
   y2="256.10001"
   id="line642" />
	<line
   class="st2"
   x1="321.39999"
   y1="260.60001"
   x2="321.39999"
   y2="256.10001"
   id="line644" />
	<line
   class="st2"
   x1="365.89999"
   y1="260.60001"
   x2="365.89999"
   y2="256.10001"
   id="line646" />
	<line
   class="st2"
   x1="410.39999"
   y1="260.60001"
   x2="410.39999"
   y2="256.10001"
   id="line648" />
	<line
   class="st2"
   x1="454.89999"
   y1="260.60001"
   x2="454.89999"
   y2="256.10001"
   id="line650" />
	<line
   class="st2"
   x1="499.39999"
   y1="260.60001"
   x2="499.39999"
   y2="256.10001"
   id="line652" />
	<line
   class="st2"
   x1="54.200001"
   y1="195.8"
   x2="54.200001"
   y2="200.2"
   id="line654" />
	<line
   class="st2"
   x1="98.800003"
   y1="195.8"
   x2="98.800003"
   y2="200.2"
   id="line656" />
	<line
   class="st2"
   x1="143.3"
   y1="195.8"
   x2="143.3"
   y2="200.2"
   id="line658" />
	<line
   class="st2"
   x1="187.8"
   y1="195.8"
   x2="187.8"
   y2="200.2"
   id="line660" />
	<line
   class="st2"
   x1="232.3"
   y1="195.8"
   x2="232.3"
   y2="200.2"
   id="line662" />
	<line
   class="st2"
   x1="276.79999"
   y1="195.8"
   x2="276.79999"
   y2="200.2"
   id="line664" />
	<line
   class="st2"
   x1="321.39999"
   y1="195.8"
   x2="321.39999"
   y2="200.2"
   id="line666" />
	<line
   class="st2"
   x1="365.89999"
   y1="195.8"
   x2="365.89999"
   y2="200.2"
   id="line668" />
	<line
   class="st2"
   x1="410.39999"
   y1="195.8"
   x2="410.39999"
   y2="200.2"
   id="line670" />
	<line
   class="st2"
   x1="454.89999"
   y1="195.8"
   x2="454.89999"
   y2="200.2"
   id="line672" />
	<line
   class="st2"
   x1="499.39999"
   y1="195.8"
   x2="499.39999"
   y2="200.2"
   id="line674" />
	<text
   transform="translate(51.2431,275.3595)"
   class="st3 st4 st5"
   id="text676">0</text>
	<text
   transform="translate(91.5634,275.3595)"
   class="st3 st4 st5"
   id="text678">0.1</text>
	<text
   transform="translate(136.0839,275.3595)"
   class="st3 st4 st5"
   id="text680">0.2</text>
	<text
   transform="translate(180.6035,275.3595)"
   class="st3 st4 st5"
   id="text682">0.3</text>
	<text
   transform="translate(225.124,275.3595)"
   class="st3 st4 st5"
   id="text684">0.4</text>
	<text
   transform="translate(269.6435,275.3595)"
   class="st3 st4 st5"
   id="text686">0.5</text>
	<text
   transform="translate(314.164,275.3595)"
   class="st3 st4 st5"
   id="text688">0.6</text>
	<text
   transform="translate(358.6835,275.3595)"
   class="st3 st4 st5"
   id="text690">0.7</text>
	<text
   transform="translate(403.204,275.3595)"
   class="st3 st4 st5"
   id="text692">0.8</text>
	<text
   transform="translate(447.7236,275.3595)"
   class="st3 st4 st5"
   id="text694">0.9</text>
	<text
   transform="translate(496.4433,275.3595)"
   class="st3 st4 st5"
   id="text696">1</text>
	<text
   transform="rotate(-90)"
   class="st3 st4 st6"
   id="text698"
   x="-257.0766"
   y="24.84359">Voltage [V]</text>
	<line
   class="st2"
   x1="54.200001"
   y1="260.60001"
   x2="54.200001"
   y2="195.8"
   id="line700" />
	<line
   class="st2"
   x1="499.39999"
   y1="260.60001"
   x2="499.39999"
   y2="195.8"
   id="line702" />
	<line
   class="st2"
   x1="54.200001"
   y1="260.60001"
   x2="58.700001"
   y2="260.60001"
   id="line704" />
	<line
   class="st2"
   x1="54.200001"
   y1="228.2"
   x2="58.700001"
   y2="228.2"
   id="line706" />
	<line
   class="st2"
   x1="54.200001"
   y1="195.8"
   x2="58.700001"
   y2="195.8"
   id="line708" />
	<line
   class="st2"
   x1="499.39999"
   y1="260.60001"
   x2="495"
   y2="260.60001"
   id="line710" />
	<line
   class="st2"
   x1="499.39999"
   y1="228.2"
   x2="495"
   y2="228.2"
   id="line712" />
	<line
   class="st2"
   x1="499.39999"
   y1="195.8"
   x2="495"
   y2="195.8"
   id="line714" />
	<text
   transform="translate(32.8437,264.7599)"
   class="st3 st4 st5"
   id="text716">240</text>
	<text
   transform="translate(32.8437,232.3595)"
   class="st3 st4 st5"
   id="text718">260</text>
	<text
   transform="translate(32.8437,199.9601)"
   class="st3 st4 st5"
   id="text720">280</text>
	<polyline
   class="st16"
   points="54.2,219.8 58.7,219.8 63.1,219.9 67.6,219.9 72.1,219.9 76.5,220 81,220.1 85.4,220 89.9,219.8    94.3,219.8 98.8,219.9 103.2,219.9 107.7,219.8 112.1,219.8 116.6,220 121,220.1 125.5,220.2 129.9,220.4 134.4,220.7 138.8,220.9    143.3,221 147.7,221 152.2,221.3 156.6,221.6 161.1,221.9 165.5,222 170,222.2 174.4,222.3 178.9,222.6 183.4,222.8 187.8,223    192.3,223.2 196.7,223.5 201.2,223.8 205.6,223.9 210.1,224.1 214.5,224.3 219,224.6 223.4,224.7 227.9,224.8 232.3,225.1    236.8,225.3 241.2,225.5 245.7,225.5 250.1,225.5 254.6,225.7 259,225.7 263.5,225.8 267.9,225.8 272.4,225.7 276.8,225.8    281.3,225.8 285.7,225.8 290.2,225.7 294.7,225.7 299.1,225.8 303.6,225.8 308,225.7 312.5,225.7 316.9,225.7 321.4,225.7    325.8,225.6 330.3,225.4 334.7,225.6 339.2,225.7 343.6,225.6 348.1,225.5 352.5,225.4 357,225.5 361.4,225.5 365.9,225.5    370.3,225.4 374.8,225.4 379.2,225.4 383.7,225.4 388.1,225.4 392.6,225.4 397,225.4 401.5,225.4 406,225.2 410.4,225.1    414.9,225.2 419.3,225.4 423.8,225.4 428.2,225.2 432.7,225.2 437.1,225.3 441.6,225.3 446,225.1 450.5,225 454.9,225.1    459.4,225.2 463.8,225.2 468.3,225.1 472.7,225 477.2,225 481.6,225 486.1,225 490.5,225 495,225 499.4,225 499.5,225  "
   id="polyline722" />
	<polyline
   class="st17"
   points="54.2,219.9 58.7,220 63.1,219.8 67.6,219.9 72.1,219.9 76.5,219.9 81,220.1 85.4,220 89.9,220    94.3,219.8 98.8,221.7 103.2,226.5 107.7,225.7 112.1,225.7 116.6,225.7 121,225.8 125.5,225.9 129.9,225.9 134.4,226.2    138.8,226.5 143.3,226.5 147.7,226.6 152.2,226.8 156.6,227 161.1,227.1 165.5,227.4 170,227.5 174.4,227.5 178.9,227.5    183.4,227.7 187.8,227.8 192.3,227.8 196.7,228 201.2,228 205.6,228.1 210.1,228.3 214.5,228.4 219,228.3 223.4,226.1 227.9,222.5    232.3,222.4 236.8,222.6 241.2,222.7 245.7,222.9 250.1,222.9 254.6,223.1 259,223 263.5,223.2 267.9,223.5 272.4,223.2  "
   id="polyline724" />
	<polyline
   class="st17"
   points="272.4,223.2 276.8,223.2 281.3,223.3 285.7,223.3 290.2,223.3 294.7,223.5 299.1,223.5 303.6,223.6    308,223.6 312.5,223.5 316.9,223.6 321.4,223.8 325.8,223.3 330.3,223.5 334.7,223.5 339.2,223.7 343.6,224 348.1,223.5    352.5,223.3 357,223.6 361.4,223.8 365.9,223.7 370.3,223.6 374.8,223.6 379.2,223.6 383.7,223.7 388.1,223.8 392.6,223.9    397,223.7 401.5,223.8 406,223.8 410.4,223.8 414.9,223.6 419.3,223.8 423.8,223.9 428.2,223.8 432.7,223.8 437.1,223.9 441.6,224    446,223.6 450.5,223.8 454.9,223.8 459.4,223.7 463.8,223.9 468.3,223.9 472.7,223.8 477.2,223.8 481.6,223.9 486.1,223.7    490.5,223.8  "
   id="polyline726" />
	<polyline
   class="st17"
   points="490.5,223.8 495,223.9 499.4,223.8 499.5,223.8  "
   id="polyline728" />
	<polyline
   class="st18"
   points="54.2,220 58.7,220.4 63.1,219.6 67.6,219.5 72.1,219.7 76.5,220.6 81,220.1 85.4,219.5 89.9,219.4    94.3,219.6 98.8,222 103.2,230.2 107.7,236.7 112.1,239.5 116.6,240.5 121,240.7 125.5,240.2 129.9,240.9 134.4,241.2 138.8,240.7    143.3,240.8 147.7,240.7 152.2,240.2 156.6,240.9 161.1,241.2 165.5,240.7 170,240.8 174.4,240.7 178.9,240.2 183.4,240.7    187.8,240.7 192.3,240.2 196.7,240.9 201.2,241.2 205.6,240.7 210.1,240.8 214.5,239.6 219,230.8 223.4,225.8 227.9,223.8    232.3,223 236.8,221.2 241.2,220.3 245.7,220.8 250.1,220.7 254.6,220.1 259,220.4 263.5,220.3 267.9,220.3 272.4,221 276.8,220.8    281.3,220 285.7,220.4 290.2,220.6 294.7,221.1 299.1,220.6 303.6,220.4 308,220.6 312.5,221.1 316.9,219.1 321.4,220.4    325.8,220.8 330.3,220.6 334.7,220.7 339.2,219.7 343.6,219.6 348.1,220 352.5,220 357,219.9 361.4,220 365.9,219.4 370.3,220.6    374.8,220.8 379.2,219.9 383.7,218.5 388.1,220 392.6,220.4 397,220.1 401.5,219.9 406,219.9 410.4,221.1 414.9,221 419.3,220.7    423.8,220.3 428.2,220.3 432.7,220.6 437.1,220.8 441.6,220.3 446,220 450.5,220.6 454.9,220.4 459.4,220.1 463.8,220.1    468.3,220.6 472.7,220.3 477.2,219.7 481.6,220 486.1,220.3 490.5,220.3 495,219.7 499.4,220.6 499.5,220.5  "
   id="polyline730" />
	<rect
   x="404.60001"
   y="206"
   class="st0"
   width="84.599998"
   height="40.799999"
   id="rect732" />
	<text
   transform="translate(443.6435,217.5207)"
   class="st4 st11"
   id="text734">VdcRef</text>
	<line
   class="st16"
   x1="410.60001"
   y1="213.89999"
   x2="440.60001"
   y2="213.89999"
   id="line736" />
	<text
   transform="translate(443.6435,229.9601)"
   class="st4 st11"
   id="text738">Vdc</text>
	<line
   class="st19"
   x1="410.60001"
   y1="226.39999"
   x2="440.60001"
   y2="226.39999"
   id="line740" />
	<text
   transform="translate(443.6435,242.3986)"
   class="st4 st11"
   id="text742">Natural</text>
	<line
   class="st18"
   x1="410.60001"
   y1="238.8"
   x2="440.60001"
   y2="238.8"
   id="line744" />
	<polyline
   class="st2"
   points="404.6,246.8 404.6,206 489.2,206 489.2,246.8 404.6,246.8  "
   id="polyline746" />
	<rect
   x="54.200001"
   y="285.79999"
   class="st0"
   width="445.20001"
   height="64.800003"
   id="rect748" />
	<line
   class="st1"
   x1="54.200001"
   y1="350.60001"
   x2="54.200001"
   y2="285.79999"
   id="line750" />
	<line
   class="st1"
   x1="63.099998"
   y1="350.60001"
   x2="63.099998"
   y2="285.79999"
   id="line752" />
	<line
   class="st1"
   x1="72.099998"
   y1="350.60001"
   x2="72.099998"
   y2="285.79999"
   id="line754" />
	<line
   class="st1"
   x1="81"
   y1="350.60001"
   x2="81"
   y2="285.79999"
   id="line756" />
	<line
   class="st1"
   x1="89.900002"
   y1="350.60001"
   x2="89.900002"
   y2="285.79999"
   id="line758" />
	<line
   class="st1"
   x1="98.800003"
   y1="350.60001"
   x2="98.800003"
   y2="285.79999"
   id="line760" />
	<line
   class="st1"
   x1="107.7"
   y1="350.60001"
   x2="107.7"
   y2="285.79999"
   id="line762" />
	<line
   class="st1"
   x1="116.6"
   y1="350.60001"
   x2="116.6"
   y2="285.79999"
   id="line764" />
	<line
   class="st1"
   x1="125.5"
   y1="350.60001"
   x2="125.5"
   y2="285.79999"
   id="line766" />
	<line
   class="st1"
   x1="134.39999"
   y1="350.60001"
   x2="134.39999"
   y2="285.79999"
   id="line768" />
	<line
   class="st1"
   x1="143.3"
   y1="350.60001"
   x2="143.3"
   y2="285.79999"
   id="line770" />
	<line
   class="st1"
   x1="152.2"
   y1="350.60001"
   x2="152.2"
   y2="285.79999"
   id="line772" />
	<line
   class="st1"
   x1="161.10001"
   y1="350.60001"
   x2="161.10001"
   y2="285.79999"
   id="line774" />
	<line
   class="st1"
   x1="170"
   y1="350.60001"
   x2="170"
   y2="285.79999"
   id="line776" />
	<line
   class="st1"
   x1="178.89999"
   y1="350.60001"
   x2="178.89999"
   y2="285.79999"
   id="line778" />
	<line
   class="st1"
   x1="187.8"
   y1="350.60001"
   x2="187.8"
   y2="285.79999"
   id="line780" />
	<line
   class="st1"
   x1="196.7"
   y1="350.60001"
   x2="196.7"
   y2="285.79999"
   id="line782" />
	<line
   class="st1"
   x1="205.60001"
   y1="350.60001"
   x2="205.60001"
   y2="285.79999"
   id="line784" />
	<line
   class="st1"
   x1="214.5"
   y1="350.60001"
   x2="214.5"
   y2="285.79999"
   id="line786" />
	<line
   class="st1"
   x1="223.39999"
   y1="350.60001"
   x2="223.39999"
   y2="285.79999"
   id="line788" />
	<line
   class="st1"
   x1="232.3"
   y1="350.60001"
   x2="232.3"
   y2="285.79999"
   id="line790" />
	<line
   class="st1"
   x1="241.2"
   y1="350.60001"
   x2="241.2"
   y2="285.79999"
   id="line792" />
	<line
   class="st1"
   x1="250.10001"
   y1="350.60001"
   x2="250.10001"
   y2="285.79999"
   id="line794" />
	<line
   class="st1"
   x1="259"
   y1="350.60001"
   x2="259"
   y2="285.79999"
   id="line796" />
	<line
   class="st1"
   x1="267.89999"
   y1="350.60001"
   x2="267.89999"
   y2="285.79999"
   id="line798" />
	<line
   class="st1"
   x1="276.79999"
   y1="350.60001"
   x2="276.79999"
   y2="285.79999"
   id="line800" />
	<line
   class="st1"
   x1="285.70001"
   y1="350.60001"
   x2="285.70001"
   y2="285.79999"
   id="line802" />
	<line
   class="st1"
   x1="294.70001"
   y1="350.60001"
   x2="294.70001"
   y2="285.79999"
   id="line804" />
	<line
   class="st1"
   x1="303.60001"
   y1="350.60001"
   x2="303.60001"
   y2="285.79999"
   id="line806" />
	<line
   class="st1"
   x1="312.5"
   y1="350.60001"
   x2="312.5"
   y2="285.79999"
   id="line808" />
	<line
   class="st1"
   x1="321.39999"
   y1="350.60001"
   x2="321.39999"
   y2="285.79999"
   id="line810" />
	<line
   class="st1"
   x1="330.29999"
   y1="350.60001"
   x2="330.29999"
   y2="285.79999"
   id="line812" />
	<line
   class="st1"
   x1="339.20001"
   y1="350.60001"
   x2="339.20001"
   y2="285.79999"
   id="line814" />
	<line
   class="st1"
   x1="348.10001"
   y1="350.60001"
   x2="348.10001"
   y2="285.79999"
   id="line816" />
	<line
   class="st1"
   x1="357"
   y1="350.60001"
   x2="357"
   y2="285.79999"
   id="line818" />
	<line
   class="st1"
   x1="365.89999"
   y1="350.60001"
   x2="365.89999"
   y2="285.79999"
   id="line820" />
	<line
   class="st1"
   x1="374.79999"
   y1="350.60001"
   x2="374.79999"
   y2="285.79999"
   id="line822" />
	<line
   class="st1"
   x1="383.70001"
   y1="350.60001"
   x2="383.70001"
   y2="285.79999"
   id="line824" />
	<line
   class="st1"
   x1="392.60001"
   y1="350.60001"
   x2="392.60001"
   y2="285.79999"
   id="line826" />
	<line
   class="st1"
   x1="401.5"
   y1="350.60001"
   x2="401.5"
   y2="285.79999"
   id="line828" />
	<line
   class="st1"
   x1="410.39999"
   y1="350.60001"
   x2="410.39999"
   y2="285.79999"
   id="line830" />
	<line
   class="st1"
   x1="419.29999"
   y1="350.60001"
   x2="419.29999"
   y2="285.79999"
   id="line832" />
	<line
   class="st1"
   x1="428.20001"
   y1="350.60001"
   x2="428.20001"
   y2="285.79999"
   id="line834" />
	<line
   class="st1"
   x1="437.10001"
   y1="350.60001"
   x2="437.10001"
   y2="285.79999"
   id="line836" />
	<line
   class="st1"
   x1="446"
   y1="350.60001"
   x2="446"
   y2="285.79999"
   id="line838" />
	<line
   class="st1"
   x1="454.89999"
   y1="350.60001"
   x2="454.89999"
   y2="285.79999"
   id="line840" />
	<line
   class="st1"
   x1="463.79999"
   y1="350.60001"
   x2="463.79999"
   y2="285.79999"
   id="line842" />
	<line
   class="st1"
   x1="472.70001"
   y1="350.60001"
   x2="472.70001"
   y2="285.79999"
   id="line844" />
	<line
   class="st1"
   x1="481.60001"
   y1="350.60001"
   x2="481.60001"
   y2="285.79999"
   id="line846" />
	<line
   class="st1"
   x1="490.5"
   y1="350.60001"
   x2="490.5"
   y2="285.79999"
   id="line848" />
	<line
   class="st1"
   x1="499.39999"
   y1="350.60001"
   x2="499.39999"
   y2="285.79999"
   id="line850" />
	<line
   class="st1"
   x1="499.39999"
   y1="350.60001"
   x2="54.200001"
   y2="350.60001"
   id="line852" />
	<line
   class="st1"
   x1="499.39999"
   y1="342.5"
   x2="54.200001"
   y2="342.5"
   id="line854" />
	<line
   class="st1"
   x1="499.39999"
   y1="334.39999"
   x2="54.200001"
   y2="334.39999"
   id="line856" />
	<line
   class="st1"
   x1="499.39999"
   y1="326.29999"
   x2="54.200001"
   y2="326.29999"
   id="line858" />
	<line
   class="st1"
   x1="499.39999"
   y1="318.20001"
   x2="54.200001"
   y2="318.20001"
   id="line860" />
	<line
   class="st1"
   x1="499.39999"
   y1="310.10001"
   x2="54.200001"
   y2="310.10001"
   id="line862" />
	<line
   class="st1"
   x1="499.39999"
   y1="302"
   x2="54.200001"
   y2="302"
   id="line864" />
	<line
   class="st1"
   x1="499.39999"
   y1="293.89999"
   x2="54.200001"
   y2="293.89999"
   id="line866" />
	<line
   class="st1"
   x1="499.39999"
   y1="285.79999"
   x2="54.200001"
   y2="285.79999"
   id="line868" />
	<text
   transform="translate(267.8437,380.1603)"
   class="st3 st4 st6"
   id="text870">t [s]</text>
	<line
   class="st2"
   x1="54.200001"
   y1="350.60001"
   x2="499.39999"
   y2="350.60001"
   id="line872" />
	<line
   class="st2"
   x1="54.200001"
   y1="285.79999"
   x2="499.39999"
   y2="285.79999"
   id="line874" />
	<line
   class="st2"
   x1="54.200001"
   y1="350.60001"
   x2="54.200001"
   y2="346.10001"
   id="line876" />
	<line
   class="st2"
   x1="98.800003"
   y1="350.60001"
   x2="98.800003"
   y2="346.10001"
   id="line878" />
	<line
   class="st2"
   x1="143.3"
   y1="350.60001"
   x2="143.3"
   y2="346.10001"
   id="line880" />
	<line
   class="st2"
   x1="187.8"
   y1="350.60001"
   x2="187.8"
   y2="346.10001"
   id="line882" />
	<line
   class="st2"
   x1="232.3"
   y1="350.60001"
   x2="232.3"
   y2="346.10001"
   id="line884" />
	<line
   class="st2"
   x1="276.79999"
   y1="350.60001"
   x2="276.79999"
   y2="346.10001"
   id="line886" />
	<line
   class="st2"
   x1="321.39999"
   y1="350.60001"
   x2="321.39999"
   y2="346.10001"
   id="line888" />
	<line
   class="st2"
   x1="365.89999"
   y1="350.60001"
   x2="365.89999"
   y2="346.10001"
   id="line890" />
	<line
   class="st2"
   x1="410.39999"
   y1="350.60001"
   x2="410.39999"
   y2="346.10001"
   id="line892" />
	<line
   class="st2"
   x1="454.89999"
   y1="350.60001"
   x2="454.89999"
   y2="346.10001"
   id="line894" />
	<line
   class="st2"
   x1="499.39999"
   y1="350.60001"
   x2="499.39999"
   y2="346.10001"
   id="line896" />
	<line
   class="st2"
   x1="54.200001"
   y1="285.79999"
   x2="54.200001"
   y2="290.20001"
   id="line898" />
	<line
   class="st2"
   x1="98.800003"
   y1="285.79999"
   x2="98.800003"
   y2="290.20001"
   id="line900" />
	<line
   class="st2"
   x1="143.3"
   y1="285.79999"
   x2="143.3"
   y2="290.20001"
   id="line902" />
	<line
   class="st2"
   x1="187.8"
   y1="285.79999"
   x2="187.8"
   y2="290.20001"
   id="line904" />
	<line
   class="st2"
   x1="232.3"
   y1="285.79999"
   x2="232.3"
   y2="290.20001"
   id="line906" />
	<line
   class="st2"
   x1="276.79999"
   y1="285.79999"
   x2="276.79999"
   y2="290.20001"
   id="line908" />
	<line
   class="st2"
   x1="321.39999"
   y1="285.79999"
   x2="321.39999"
   y2="290.20001"
   id="line910" />
	<line
   class="st2"
   x1="365.89999"
   y1="285.79999"
   x2="365.89999"
   y2="290.20001"
   id="line912" />
	<line
   class="st2"
   x1="410.39999"
   y1="285.79999"
   x2="410.39999"
   y2="290.20001"
   id="line914" />
	<line
   class="st2"
   x1="454.89999"
   y1="285.79999"
   x2="454.89999"
   y2="290.20001"
   id="line916" />
	<line
   class="st2"
   x1="499.39999"
   y1="285.79999"
   x2="499.39999"
   y2="290.20001"
   id="line918" />
	<text
   transform="translate(51.2431,365.3595)"
   class="st3 st4 st5"
   id="text920">0</text>
	<text
   transform="translate(91.5634,365.3595)"
   class="st3 st4 st5"
   id="text922">0.1</text>
	<text
   transform="translate(136.0839,365.3595)"
   class="st3 st4 st5"
   id="text924">0.2</text>
	<text
   transform="translate(180.6035,365.3595)"
   class="st3 st4 st5"
   id="text926">0.3</text>
	<text
   transform="translate(225.124,365.3595)"
   class="st3 st4 st5"
   id="text928">0.4</text>
	<text
   transform="translate(269.6435,365.3595)"
   class="st3 st4 st5"
   id="text930">0.5</text>
	<text
   transform="translate(314.164,365.3595)"
   class="st3 st4 st5"
   id="text932">0.6</text>
	<text
   transform="translate(358.6835,365.3595)"
   class="st3 st4 st5"
   id="text934">0.7</text>
	<text
   transform="translate(403.204,365.3595)"
   class="st3 st4 st5"
   id="text936">0.8</text>
	<text
   transform="translate(447.7236,365.3595)"
   class="st3 st4 st5"
   id="text938">0.9</text>
	<text
   transform="translate(496.4433,365.3595)"
   class="st3 st4 st5"
   id="text940">1</text>
	<text
   transform="rotate(-90)"
   class="st3 st4 st6"
   id="text942"
   x="-339.75958"
   y="24.84359"> {RPM]</text>
	<line
   class="st2"
   x1="54.200001"
   y1="350.60001"
   x2="54.200001"
   y2="285.79999"
   id="line944" />
	<line
   class="st2"
   x1="499.39999"
   y1="350.60001"
   x2="499.39999"
   y2="285.79999"
   id="line946" />
	<line
   class="st2"
   x1="54.200001"
   y1="350.60001"
   x2="58.700001"
   y2="350.60001"
   id="line948" />
	<line
   class="st2"
   x1="54.200001"
   y1="318.20001"
   x2="58.700001"
   y2="318.20001"
   id="line950" />
	<line
   class="st2"
   x1="54.200001"
   y1="285.79999"
   x2="58.700001"
   y2="285.79999"
   id="line952" />
	<line
   class="st2"
   x1="499.39999"
   y1="350.60001"
   x2="495"
   y2="350.60001"
   id="line954" />
	<line
   class="st2"
   x1="499.39999"
   y1="318.20001"
   x2="495"
   y2="318.20001"
   id="line956" />
	<line
   class="st2"
   x1="499.39999"
   y1="285.79999"
   x2="495"
   y2="285.79999"
   id="line958" />
	<text
   transform="translate(27.4433,354.7599)"
   class="st3 st4 st5"
   id="text960">1200</text>
	<text
   transform="translate(27.4433,322.3595)"
   class="st3 st4 st5"
   id="text962">1300</text>
	<text
   transform="translate(27.4433,289.9601)"
   class="st3 st4 st5"
   id="text964">1400</text>
	<polyline
   class="st7"
   points="54.2,299.8 58.7,299.9 63.1,299.6 67.6,299.6 72.1,299.9 76.5,300.1 81,299.8 85.4,299.8 89.9,299.9    94.3,299.9 98.8,299.6 103.2,299.8 107.7,299.6 112.1,300 116.6,300.5 121,300.3 125.5,300.6 129.9,301.2 134.4,301.3 138.8,301.7    143.3,301.7 147.7,302 152.2,302.5 156.6,303.2 161.1,303.1 165.5,303.4 170,304 174.4,304.4 178.9,304.7 183.4,304.7 187.8,305.3    192.3,305.6 196.7,306.4 201.2,306.4 205.6,306.6 210.1,307.1 214.5,307.5 219,307.7 223.4,307.8 227.9,308.2 232.3,308.7    236.8,309.1 241.2,308.8 245.7,308.9 250.1,309.1 254.6,309.2 259,309.1 263.5,309.1 267.9,309 272.4,309.2  "
   id="polyline966" />
	<polyline
   class="st7"
   points="272.4,309.2 276.8,309.5 281.3,309.1 285.7,309 290.2,309.1 294.7,309.4 299.1,309 303.6,309.1    308,309 312.5,309 316.9,309.1 321.4,308.7 325.8,308.7 330.3,308.9 334.7,308.8 339.2,308.7 343.6,308.5 348.1,308.4 352.5,308.7    357,308.8 361.4,308.5 365.9,308.3 370.3,308.4 374.8,308.4 379.2,308.3 383.7,308.2 388.1,308.1 392.6,308.2 397,308.3    401.5,307.8 406,307.8 410.4,308.1 414.9,308.2 419.3,307.8 423.8,307.9 428.2,307.7 432.7,307.9 437.1,308.1 441.6,307.6    446,307.5 450.5,307.7 454.9,307.8 459.4,307.7 463.8,307.3 468.3,307.3 472.7,307.5 477.2,307.6 481.6,307.2 486.1,307.1    490.5,307.3  "
   id="polyline968" />
	<polyline
   class="st7"
   points="490.5,307.3 495,307.3 499.4,307.1 499.5,307.1  "
   id="polyline970" />
	<polyline
   class="st20"
   points="54.2,302 58.7,302 63.1,302 67.6,302 72.1,302 76.5,302 81,302 85.4,302 89.9,302 94.3,302    98.8,302 103.2,302 107.7,302 112.1,302 116.6,302 121,302 125.5,302 129.9,302 134.4,302 138.8,302 143.3,302 147.7,302    152.2,302 156.6,302 161.1,302 165.5,302 170,302 174.4,302 178.9,302 183.4,302 187.8,302 192.3,302 196.7,302 201.2,302    205.6,302 210.1,302 214.5,302 219,302 223.4,302 227.9,302 232.3,302 236.8,302 241.2,302 245.7,302 250.1,302 254.6,302 259,302    263.5,302 267.9,302 272.4,302 276.8,302 281.3,302 285.7,302 290.2,302 294.7,302 299.1,302 303.6,302 308,302 312.5,302    316.9,302 321.4,302 325.8,302 330.3,302 334.7,302 339.2,302 343.6,302 348.1,302 352.5,302 357,302 361.4,302 365.9,302    370.3,302 374.8,302 379.2,302 383.7,302 388.1,302 392.6,302 397,302 401.5,302 406,302 410.4,302 414.9,302 419.3,302 423.8,302    428.2,302 432.7,302 437.1,302 441.6,302 446,302 450.5,302 454.9,302 459.4,302 463.8,302 468.3,302 472.7,302 477.2,302    481.6,302 486.1,302 490.5,302 495,302 499.4,302 499.5,302  "
   id="polyline972" />
	<rect
   x="407.60001"
   y="296"
   class="st0"
   width="81.599998"
   height="28.200001"
   id="rect974" />
	<text
   transform="translate(446.6435,307.4757)"
   class="st4 st11"
   id="text976">Speed</text>
	<line
   class="st12"
   x1="413.60001"
   y1="303.89999"
   x2="443.60001"
   y2="303.89999"
   id="line978" />
	<text
   transform="translate(446.6435,319.8439)"
   class="st4 st11"
   id="text980">StandBy</text>
	<line
   class="st20"
   x1="413.60001"
   y1="316.20001"
   x2="443.60001"
   y2="316.20001"
   id="line982" />
	<polyline
   class="st2"
   points="407.6,324.2 407.6,296 489.2,296 489.2,324.2 407.6,324.2  "
   id="polyline984" />
</g>
</svg>
