<?xml version="1.0" encoding="UTF-8" standalone="no"?>
<svg
   xmlns:dc="http://purl.org/dc/elements/1.1/"
   xmlns:cc="http://creativecommons.org/ns#"
   xmlns:rdf="http://www.w3.org/1999/02/22-rdf-syntax-ns#"
   xmlns:svg="http://www.w3.org/2000/svg"
   xmlns="http://www.w3.org/2000/svg"
   version="1.1"
   id="Layer_1"
   x="0px"
   y="0px"
   viewBox="0 0 498.80663 386.35169"
   xml:space="preserve"
   width="800"
   height="600"
   style="background-color:white;">"><metadata
   id="metadata1019"><rdf:RDF><cc:Work
       rdf:about=""><dc:format>image/svg+xml</dc:format><dc:type
         rdf:resource="http://purl.org/dc/dcmitype/StillImage" /><dc:title></dc:title></cc:Work></rdf:RDF></metadata><defs
   id="defs1017" />
<style
   type="text/css"
   id="style2">
	.st0{fill:#FFFFFF;}
	
		.st1{opacity:0.251;fill:none;stroke:#1A1A1A;stroke-width:0.6;stroke-linejoin:bevel;stroke-miterlimit:1;stroke-dasharray:0.6,1.8;}
	.st2{fill:none;stroke:#262626;stroke-width:0.6;stroke-linecap:square;stroke-miterlimit:10;}
	.st3{fill:#262626;}
	.st4{font-family:'ArialMT';}
	.st5{font-size:10.2px;}
	.st6{font-size:10.8px;}
	.st7{fill:none;stroke:#0072BD;stroke-width:0.6;stroke-linejoin:bevel;stroke-miterlimit:10;}
	.st8{fill:none;stroke:#D95319;stroke-width:0.6;stroke-linejoin:bevel;stroke-miterlimit:10;}
	.st9{fill:none;stroke:#EDB120;stroke-width:0.6;stroke-linejoin:bevel;stroke-miterlimit:1;stroke-dasharray:6,3.6;}
	.st10{fill:none;stroke:#7E2F8E;stroke-width:0.6;stroke-linejoin:bevel;stroke-miterlimit:1;stroke-dasharray:6,3.6;}
	.st11{font-size:9px;}
	.st12{fill:none;stroke:#0072BD;stroke-width:0.6;stroke-linecap:square;stroke-miterlimit:10;}
	.st13{fill:none;stroke:#D95319;stroke-width:0.6;stroke-linecap:square;stroke-miterlimit:10;}
	.st14{fill:none;stroke:#EDB120;stroke-width:0.6;stroke-linejoin:bevel;stroke-miterlimit:10;}
	.st15{fill:none;stroke:#262626;stroke-width:0.6;stroke-linejoin:bevel;stroke-miterlimit:10;}
	.st16{fill:none;stroke:#0072BD;stroke-width:0.6;stroke-linejoin:bevel;stroke-miterlimit:1;stroke-dasharray:6,3.6;}
	.st17{fill:none;stroke:#000000;stroke-width:0.6;stroke-linejoin:bevel;stroke-miterlimit:10;}
	.st18{fill:none;stroke:#FF0000;stroke-width:0.6;stroke-linejoin:bevel;stroke-miterlimit:1;stroke-dasharray:6,3.6;}
	.st19{fill:none;stroke:#000000;stroke-width:0.6;stroke-linecap:square;stroke-miterlimit:10;}
	.st20{fill:none;stroke:#D95319;stroke-width:0.6;stroke-linejoin:bevel;stroke-miterlimit:1;stroke-dasharray:6,3.6;}
</style>
<rect
   x="42.04818"
   y="15.567555"
   class="st0"
   width="445.20001"
   height="64.800003"
   id="rect4" />
<line
   class="st1"
   x1="42.04818"
   y1="80.367554"
   x2="42.04818"
   y2="15.567555"
   id="line6" />
<line
   class="st1"
   x1="50.948181"
   y1="80.367554"
   x2="50.948181"
   y2="15.567555"
   id="line8" />
<line
   class="st1"
   x1="59.848183"
   y1="80.367554"
   x2="59.848183"
   y2="15.567555"
   id="line10" />
<line
   class="st1"
   x1="68.748177"
   y1="80.367554"
   x2="68.748177"
   y2="15.567555"
   id="line12" />
<line
   class="st1"
   x1="77.648178"
   y1="80.367554"
   x2="77.648178"
   y2="15.567555"
   id="line14" />
<line
   class="st1"
   x1="86.54818"
   y1="80.367554"
   x2="86.54818"
   y2="15.567555"
   id="line16" />
<line
   class="st1"
   x1="95.448181"
   y1="80.367554"
   x2="95.448181"
   y2="15.567555"
   id="line18" />
<line
   class="st1"
   x1="104.34818"
   y1="80.367554"
   x2="104.34818"
   y2="15.567555"
   id="line20" />
<line
   class="st1"
   x1="113.24818"
   y1="80.367554"
   x2="113.24818"
   y2="15.567555"
   id="line22" />
<line
   class="st1"
   x1="122.14819"
   y1="80.367554"
   x2="122.14819"
   y2="15.567555"
   id="line24" />
<line
   class="st1"
   x1="131.04817"
   y1="80.367554"
   x2="131.04817"
   y2="15.567555"
   id="line26" />
<line
   class="st1"
   x1="139.94817"
   y1="80.367554"
   x2="139.94817"
   y2="15.567555"
   id="line28" />
<line
   class="st1"
   x1="148.84818"
   y1="80.367554"
   x2="148.84818"
   y2="15.567555"
   id="line30" />
<line
   class="st1"
   x1="157.74817"
   y1="80.367554"
   x2="157.74817"
   y2="15.567555"
   id="line32" />
<line
   class="st1"
   x1="166.64818"
   y1="80.367554"
   x2="166.64818"
   y2="15.567555"
   id="line34" />
<line
   class="st1"
   x1="175.54817"
   y1="80.367554"
   x2="175.54817"
   y2="15.567555"
   id="line36" />
<line
   class="st1"
   x1="184.44817"
   y1="80.367554"
   x2="184.44817"
   y2="15.567555"
   id="line38" />
<line
   class="st1"
   x1="193.34818"
   y1="80.367554"
   x2="193.34818"
   y2="15.567555"
   id="line40" />
<line
   class="st1"
   x1="202.24817"
   y1="80.367554"
   x2="202.24817"
   y2="15.567555"
   id="line42" />
<line
   class="st1"
   x1="211.14818"
   y1="80.367554"
   x2="211.14818"
   y2="15.567555"
   id="line44" />
<line
   class="st1"
   x1="220.04817"
   y1="80.367554"
   x2="220.04817"
   y2="15.567555"
   id="line46" />
<line
   class="st1"
   x1="228.94817"
   y1="80.367554"
   x2="228.94817"
   y2="15.567555"
   id="line48" />
<line
   class="st1"
   x1="237.84818"
   y1="80.367554"
   x2="237.84818"
   y2="15.567555"
   id="line50" />
<line
   class="st1"
   x1="246.74818"
   y1="80.367554"
   x2="246.74818"
   y2="15.567555"
   id="line52" />
<line
   class="st1"
   x1="255.74818"
   y1="80.367554"
   x2="255.74818"
   y2="15.567555"
   id="line54" />
<line
   class="st1"
   x1="264.64816"
   y1="80.367554"
   x2="264.64816"
   y2="15.567555"
   id="line56" />
<line
   class="st1"
   x1="273.54816"
   y1="80.367554"
   x2="273.54816"
   y2="15.567555"
   id="line58" />
<line
   class="st1"
   x1="282.44815"
   y1="80.367554"
   x2="282.44815"
   y2="15.567555"
   id="line60" />
<line
   class="st1"
   x1="291.34814"
   y1="80.367554"
   x2="291.34814"
   y2="15.567555"
   id="line62" />
<line
   class="st1"
   x1="300.24817"
   y1="80.367554"
   x2="300.24817"
   y2="15.567555"
   id="line64" />
<line
   class="st1"
   x1="309.14816"
   y1="80.367554"
   x2="309.14816"
   y2="15.567555"
   id="line66" />
<line
   class="st1"
   x1="318.04816"
   y1="80.367554"
   x2="318.04816"
   y2="15.567555"
   id="line68" />
<line
   class="st1"
   x1="326.94815"
   y1="80.367554"
   x2="326.94815"
   y2="15.567555"
   id="line70" />
<line
   class="st1"
   x1="335.84814"
   y1="80.367554"
   x2="335.84814"
   y2="15.567555"
   id="line72" />
<line
   class="st1"
   x1="344.74817"
   y1="80.367554"
   x2="344.74817"
   y2="15.567555"
   id="line74" />
<line
   class="st1"
   x1="353.64816"
   y1="80.367554"
   x2="353.64816"
   y2="15.567555"
   id="line76" />
<line
   class="st1"
   x1="362.54816"
   y1="80.367554"
   x2="362.54816"
   y2="15.567555"
   id="line78" />
<line
   class="st1"
   x1="371.44815"
   y1="80.367554"
   x2="371.44815"
   y2="15.567555"
   id="line80" />
<line
   class="st1"
   x1="380.34814"
   y1="80.367554"
   x2="380.34814"
   y2="15.567555"
   id="line82" />
<line
   class="st1"
   x1="389.24817"
   y1="80.367554"
   x2="389.24817"
   y2="15.567555"
   id="line84" />
<line
   class="st1"
   x1="398.14816"
   y1="80.367554"
   x2="398.14816"
   y2="15.567555"
   id="line86" />
<line
   class="st1"
   x1="407.04816"
   y1="80.367554"
   x2="407.04816"
   y2="15.567555"
   id="line88" />
<line
   class="st1"
   x1="415.94815"
   y1="80.367554"
   x2="415.94815"
   y2="15.567555"
   id="line90" />
<line
   class="st1"
   x1="424.84814"
   y1="80.367554"
   x2="424.84814"
   y2="15.567555"
   id="line92" />
<line
   class="st1"
   x1="433.74817"
   y1="80.367554"
   x2="433.74817"
   y2="15.567555"
   id="line94" />
<line
   class="st1"
   x1="442.64816"
   y1="80.367554"
   x2="442.64816"
   y2="15.567555"
   id="line96" />
<line
   class="st1"
   x1="451.54816"
   y1="80.367554"
   x2="451.54816"
   y2="15.567555"
   id="line98" />
<line
   class="st1"
   x1="460.44815"
   y1="80.367554"
   x2="460.44815"
   y2="15.567555"
   id="line100" />
<line
   class="st1"
   x1="469.34814"
   y1="80.367554"
   x2="469.34814"
   y2="15.567555"
   id="line102" />
<line
   class="st1"
   x1="478.34814"
   y1="80.367554"
   x2="478.34814"
   y2="15.567555"
   id="line104" />
<line
   class="st1"
   x1="487.24817"
   y1="80.367554"
   x2="487.24817"
   y2="15.567555"
   id="line106" />
<line
   class="st1"
   x1="487.24817"
   y1="80.367554"
   x2="42.04818"
   y2="80.367554"
   id="line108" />
<line
   class="st1"
   x1="487.24817"
   y1="72.267555"
   x2="42.04818"
   y2="72.267555"
   id="line110" />
<line
   class="st1"
   x1="487.24817"
   y1="64.167557"
   x2="42.04818"
   y2="64.167557"
   id="line112" />
<line
   class="st1"
   x1="487.24817"
   y1="56.067554"
   x2="42.04818"
   y2="56.067554"
   id="line114" />
<line
   class="st1"
   x1="487.24817"
   y1="47.967556"
   x2="42.04818"
   y2="47.967556"
   id="line116" />
<line
   class="st1"
   x1="487.24817"
   y1="39.867554"
   x2="42.04818"
   y2="39.867554"
   id="line118" />
<line
   class="st1"
   x1="487.24817"
   y1="31.767553"
   x2="42.04818"
   y2="31.767553"
   id="line120" />
<line
   class="st1"
   x1="487.24817"
   y1="23.667553"
   x2="42.04818"
   y2="23.667553"
   id="line122" />
<line
   class="st1"
   x1="487.24817"
   y1="15.567555"
   x2="42.04818"
   y2="15.567555"
   id="line124" />
<line
   class="st2"
   x1="42.04818"
   y1="80.367554"
   x2="487.24817"
   y2="80.367554"
   id="line126" />
<line
   class="st2"
   x1="42.04818"
   y1="15.567555"
   x2="487.24817"
   y2="15.567555"
   id="line128" />
<line
   class="st2"
   x1="42.04818"
   y1="80.367554"
   x2="42.04818"
   y2="75.867554"
   id="line130" />
<line
   class="st2"
   x1="86.54818"
   y1="80.367554"
   x2="86.54818"
   y2="75.867554"
   id="line132" />
<line
   class="st2"
   x1="131.04817"
   y1="80.367554"
   x2="131.04817"
   y2="75.867554"
   id="line134" />
<line
   class="st2"
   x1="175.54817"
   y1="80.367554"
   x2="175.54817"
   y2="75.867554"
   id="line136" />
<line
   class="st2"
   x1="220.04817"
   y1="80.367554"
   x2="220.04817"
   y2="75.867554"
   id="line138" />
<line
   class="st2"
   x1="264.64816"
   y1="80.367554"
   x2="264.64816"
   y2="75.867554"
   id="line140" />
<line
   class="st2"
   x1="309.14816"
   y1="80.367554"
   x2="309.14816"
   y2="75.867554"
   id="line142" />
<line
   class="st2"
   x1="353.64816"
   y1="80.367554"
   x2="353.64816"
   y2="75.867554"
   id="line144" />
<line
   class="st2"
   x1="398.14816"
   y1="80.367554"
   x2="398.14816"
   y2="75.867554"
   id="line146" />
<line
   class="st2"
   x1="442.64816"
   y1="80.367554"
   x2="442.64816"
   y2="75.867554"
   id="line148" />
<line
   class="st2"
   x1="487.24817"
   y1="80.367554"
   x2="487.24817"
   y2="75.867554"
   id="line150" />
<line
   class="st2"
   x1="42.04818"
   y1="15.567555"
   x2="42.04818"
   y2="19.967556"
   id="line152" />
<line
   class="st2"
   x1="86.54818"
   y1="15.567555"
   x2="86.54818"
   y2="19.967556"
   id="line154" />
<line
   class="st2"
   x1="131.04817"
   y1="15.567555"
   x2="131.04817"
   y2="19.967556"
   id="line156" />
<line
   class="st2"
   x1="175.54817"
   y1="15.567555"
   x2="175.54817"
   y2="19.967556"
   id="line158" />
<line
   class="st2"
   x1="220.04817"
   y1="15.567555"
   x2="220.04817"
   y2="19.967556"
   id="line160" />
<line
   class="st2"
   x1="264.64816"
   y1="15.567555"
   x2="264.64816"
   y2="19.967556"
   id="line162" />
<line
   class="st2"
   x1="309.14816"
   y1="15.567555"
   x2="309.14816"
   y2="19.967556"
   id="line164" />
<line
   class="st2"
   x1="353.64816"
   y1="15.567555"
   x2="353.64816"
   y2="19.967556"
   id="line166" />
<line
   class="st2"
   x1="398.14816"
   y1="15.567555"
   x2="398.14816"
   y2="19.967556"
   id="line168" />
<line
   class="st2"
   x1="442.64816"
   y1="15.567555"
   x2="442.64816"
   y2="19.967556"
   id="line170" />
<line
   class="st2"
   x1="487.24817"
   y1="15.567555"
   x2="487.24817"
   y2="19.967556"
   id="line172" />
<text
   class="st3 st4 st5"
   id="text174"
   x="39.004879"
   y="95.12706">0</text>
<text
   class="st3 st4 st5"
   id="text176"
   x="83.525375"
   y="95.12706">2</text>
<text
   class="st3 st4 st5"
   id="text178"
   x="128.04498"
   y="95.12706">4</text>
<text
   class="st3 st4 st5"
   id="text180"
   x="172.56548"
   y="95.12706">6</text>
<text
   class="st3 st4 st5"
   id="text182"
   x="217.08498"
   y="95.12706">8</text>
<text
   class="st3 st4 st5"
   id="text184"
   x="258.90527"
   y="95.12706">10</text>
<text
   class="st3 st4 st5"
   id="text186"
   x="303.42578"
   y="95.12706">12</text>
<text
   class="st3 st4 st5"
   id="text188"
   x="347.94537"
   y="95.12706">14</text>
<text
   class="st3 st4 st5"
   id="text190"
   x="392.46588"
   y="95.12706">16</text>
<text
   class="st3 st4 st5"
   id="text192"
   x="436.98538"
   y="95.12706">18</text>
<text
   class="st3 st4 st5"
   id="text194"
   x="481.50488"
   y="95.12706">20</text>
<text
   transform="rotate(-90)"
   class="st3 st4 st6"
   id="text196"
   x="-81.027153"
   y="14.605376">Current dq [A]</text>
<line
   class="st2"
   x1="42.04818"
   y1="80.367554"
   x2="42.04818"
   y2="15.567555"
   id="line198" />
<line
   class="st2"
   x1="487.24817"
   y1="80.367554"
   x2="487.24817"
   y2="15.567555"
   id="line200" />
<line
   class="st2"
   x1="42.04818"
   y1="80.367554"
   x2="46.448181"
   y2="80.367554"
   id="line202" />
<line
   class="st2"
   x1="42.04818"
   y1="47.967556"
   x2="46.448181"
   y2="47.967556"
   id="line204" />
<line
   class="st2"
   x1="42.04818"
   y1="15.567555"
   x2="46.448181"
   y2="15.567555"
   id="line206" />
<line
   class="st2"
   x1="487.24817"
   y1="80.367554"
   x2="482.74817"
   y2="80.367554"
   id="line208" />
<line
   class="st2"
   x1="487.24817"
   y1="47.967556"
   x2="482.74817"
   y2="47.967556"
   id="line210" />
<line
   class="st2"
   x1="487.24817"
   y1="15.567555"
   x2="482.74817"
   y2="15.567555"
   id="line212" />
<text
   class="st3 st4 st5"
   id="text214"
   x="23.004879"
   y="84.527458">-10</text>
<text
   class="st3 st4 st5"
   id="text216"
   x="32.004879"
   y="52.127052">0</text>
<text
   class="st3 st4 st5"
   id="text218"
   x="26.605478"
   y="19.727654">10</text>
<polyline
   class="st7"
   points="52,39.5 54.2,40 56.4,39.8 58.6,39.4 60.9,39.3 63.1,39.4 65.3,39.8 67.5,39.2 69.8,39.5 72,39.2   74.2,39.6 76.4,39.5 78.7,39.5 80.9,39.5 83.1,39.8 85.3,39.5 87.6,39.7 89.8,39.8 92,39.9 94.3,39.4 96.5,39.7 98.7,39.5   100.9,39.4 103.2,39.7 105.4,39.7 107.6,39.6 109.8,39.9 112.1,39.3 114.3,39.5 116.5,39.6 118.7,39.4 121,39.8 123.2,39.8   125.4,39.8 127.6,39.7 129.9,39.2 132.1,39.7 134.3,39.2 136.5,39.5 138.8,39.4 141,39.5 143.2,39.3 145.4,39.7 147.7,38.8   149.9,39.6 152.1,39.2 154.4,39.7 156.6,40 158.8,39.8 161,39.5 "
   id="polyline220"
   transform="translate(-9.9518216,0.26755474)" />
<polyline
   class="st7"
   points="161,39.5 163.3,39.1 165.5,39.2 167.7,39.5 169.9,39.5 172.2,39.5 174.4,39.7 176.6,39.6 178.8,39.7   181.1,39.4 183.3,39.3 185.5,39.5 187.7,39.6 190,39.7 192.2,39.5 194.4,39.9 196.6,39.4 198.9,39.4 201.1,39.3 203.3,39.4   205.6,39.3 207.8,39.9 210,39.1 212.2,39.5 214.5,39.8 216.7,39.5 218.9,39.6 221.1,39.4 223.4,39.3 225.6,39.6 227.8,39.4   230,39.5 232.3,39.2 234.5,39.2 236.7,39.6 238.9,40 241.2,39.3 243.4,39.5 245.6,39.5 247.8,39.2 250.1,40.1 252.3,39.3   254.5,39.7 256.7,39.8 259,39.9 261.2,39.4 263.4,39.4 265.7,40 267.9,39.6 270.1,39.3 "
   id="polyline222"
   transform="translate(-9.9518216,0.26755474)" />
<polyline
   class="st7"
   points="270.1,39.3 272.3,39.9 274.6,39.3 276.8,39.4 279,39.5 281.2,39.4 283.5,39.3 285.7,40 287.9,39.4   290.1,39.2 292.4,39.6 294.6,39.1 296.8,39.1 299,39.8 301.3,40 303.5,39.6 305.7,39.8 307.9,39.3 310.2,39.7 312.4,39.7   314.6,39.5 316.9,39.3 319.1,39.1 321.3,39.6 323.5,39 325.8,39.4 328,40 330.2,39.6 332.4,38.8 334.7,39.3 336.9,40 339.1,39.8   341.3,39.9 343.6,39.3 345.8,39.7 348,39.8 350.2,39.5 352.5,39.9 354.7,39.4 356.9,39.8 359.1,39.7 361.4,39.3 363.6,39.7   365.8,39.5 368,39.4 370.3,39.2 372.5,40 374.7,39 377,39.5 379.2,39.7 "
   id="polyline224"
   transform="translate(-9.9518216,0.26755474)" />
<polyline
   class="st7"
   points="379.2,39.7 381.4,39.1 383.6,39 385.9,39.5 388.1,39.6 390.3,39.2 392.5,40 394.8,39.4 397,39.8   399.2,39.9 401.4,39.7 403.7,39.4 405.9,39.4 408.1,39.4 410.3,39.7 412.6,39.3 414.8,39.5 417,39.8 419.2,39.2 421.5,39.6   423.7,39.6 425.9,39.4 428.2,39.2 430.4,40.1 432.6,39.6 434.8,39.5 437.1,39.3 439.3,39.6 441.5,39.6 443.7,39.5 446,39.3   448.2,39.5 450.4,39.6 452.6,39.6 454.9,39.4 457.1,39.8 459.3,40.2 461.5,39.2 463.8,40 466,39.8 468.2,39.5 470.4,39.4   472.7,39.6 474.9,39.4 477.1,39.5 479.3,40 481.6,39.5 483.8,40.4 486,39.5 488.3,39.6 "
   id="polyline226"
   transform="translate(-9.9518216,0.26755474)" />
<polyline
   class="st7"
   points="488.3,39.6 490.5,39.7 492.7,40.2 494.9,39.4 "
   id="polyline228"
   transform="translate(-9.9518216,0.26755474)" />
<polyline
   class="st8"
   points="52,47.4 54.2,47.3 56.4,46.6 58.6,46.5 60.9,46.9 63.1,46.8 65.3,46.5 67.5,47 69.8,47 72,47.1   74.2,62.4 76.4,63.3 78.7,62.2 80.9,61.3 83.1,59 85.3,57.8 87.6,56.6 89.8,55.2 92,55.1 94.3,53.5 96.5,52.7 98.7,51.7 100.9,51   103.2,50.3 105.4,49.7 107.6,48.8 109.8,48.8 112.1,48 114.3,48 116.5,47.1 118.7,47.4 121,46.6 123.2,46.5 125.4,47 127.6,46.6   129.9,45.8 132.1,46.5 134.3,45.6 136.5,45.3 138.8,45.4 141,45.9 143.2,45.3 145.4,45.9 147.7,45.4 149.9,45.2 152.1,45.4   154.4,45.5 156.6,45 158.8,45.4 161,45.3 "
   id="polyline230"
   transform="translate(-9.9518216,0.26755474)" />
<polyline
   class="st8"
   points="161,45.3 163.3,45.4 165.5,44.9 167.7,44.9 169.9,45.2 172.2,45.3 174.4,45.5 176.6,45.6 178.8,45.6   181.1,45.7 183.3,45.3 185.5,45.6 187.7,45.5 190,45.7 192.2,45.6 194.4,45.3 196.6,45.1 198.9,45.2 201.1,45.2 203.3,45.5   205.6,46.1 207.8,45.6 210,45.1 212.2,46.1 214.5,46 216.7,45.3 218.9,45.6 221.1,45.9 223.4,45.4 225.6,45.9 227.8,45.4 230,45.3   232.3,45.7 234.5,46 236.7,46.4 238.9,46 241.2,46.6 243.4,45.7 245.6,46.1 247.8,45.7 250.1,46.5 252.3,46.2 254.5,46.3   256.7,46.4 259,46.2 261.2,45.9 263.4,45.6 265.7,46.2 267.9,46.1 270.1,46.4 "
   id="polyline232"
   transform="translate(-9.9518216,0.26755474)" />
<polyline
   class="st8"
   points="270.1,46.4 272.3,46.6 274.6,45.7 276.8,45.6 279,47 281.2,46.4 283.5,46.5 285.7,46.1 287.9,46.5   290.1,46.4 292.4,46 294.6,46.1 296.8,45.7 299,46.4 301.3,46.4 303.5,46.7 305.7,46.3 307.9,46.1 310.2,46.6 312.4,46.3   314.6,46.9 316.9,46 319.1,46.7 321.3,47.1 323.5,46.8 325.8,46.5 328,47 330.2,46.8 332.4,46.5 334.7,45.9 336.9,46.8 339.1,46.1   341.3,47.1 343.6,46.4 345.8,46.7 348,46.8 350.2,47 352.5,46.5 354.7,46.9 356.9,47.2 359.1,46.3 361.4,46.1 363.6,46.2   365.8,46.3 368,47 370.3,46.4 372.5,46.7 374.7,46.3 377,47.7 379.2,46.9 "
   id="polyline234"
   transform="translate(-9.9518216,0.26755474)" />
<polyline
   class="st8"
   points="379.2,46.9 381.4,47.4 383.6,46.7 385.9,46.5 388.1,46 390.3,46.6 392.5,46.9 394.8,47.6 397,47   399.2,47.4 401.4,47.1 403.7,46.7 405.9,46.9 408.1,46.5 410.3,46.4 412.6,47.2 414.8,47 417,46.4 419.2,46.4 421.5,46.1   423.7,47.1 425.9,46.2 428.2,47.2 430.4,47.1 432.6,46.6 434.8,47 437.1,46.6 439.3,46.3 441.5,46.7 443.7,47.1 446,46.6   448.2,46.9 450.4,46.8 452.6,47.3 454.9,47.3 457.1,46.8 459.3,46.9 461.5,46.8 463.8,47.2 466,46.8 468.2,47.1 470.4,46.8   472.7,46.8 474.9,46.9 477.1,47.1 479.3,47.3 481.6,47.5 483.8,46.7 486,46.9 488.3,46.5 "
   id="polyline236"
   transform="translate(-9.9518216,0.26755474)" />
<polyline
   class="st8"
   points="488.3,46.5 490.5,47.2 492.7,47.1 494.9,47.5 "
   id="polyline238"
   transform="translate(-9.9518216,0.26755474)" />
<polyline
   class="st9"
   points="52,39.6 54.2,39.6 56.4,39.6 58.6,39.6 60.9,39.6 63.1,39.6 65.3,39.6 67.5,39.6 69.8,39.6 72,39.6   74.2,39.6 76.4,39.6 78.7,39.6 80.9,39.6 83.1,39.6 85.3,39.6 87.6,39.6 89.8,39.6 92,39.6 94.3,39.6 96.5,39.6 98.7,39.6   100.9,39.6 103.2,39.6 105.4,39.6 107.6,39.6 109.8,39.6 112.1,39.6 114.3,39.6 116.5,39.6 118.7,39.6 121,39.6 123.2,39.6   125.4,39.6 127.6,39.6 129.9,39.6 132.1,39.6 134.3,39.6 136.5,39.6 138.8,39.6 141,39.6 143.2,39.6 145.4,39.6 147.7,39.6   149.9,39.6 152.1,39.6 154.4,39.6 156.6,39.6 158.8,39.6 161,39.6 163.3,39.6 165.5,39.6 167.7,39.6 169.9,39.6 172.2,39.6   174.4,39.6 176.6,39.6 178.8,39.6 181.1,39.6 183.3,39.6 185.5,39.6 187.7,39.6 190,39.6 192.2,39.6 194.4,39.6 196.6,39.6   198.9,39.6 201.1,39.6 203.3,39.6 205.6,39.6 207.8,39.6 210,39.6 212.2,39.6 214.5,39.6 216.7,39.6 218.9,39.6 221.1,39.6   223.4,39.6 225.6,39.6 227.8,39.6 230,39.6 232.3,39.6 234.5,39.6 236.7,39.6 238.9,39.6 241.2,39.6 243.4,39.6 245.6,39.6   247.8,39.6 250.1,39.6 252.3,39.6 254.5,39.6 256.7,39.6 259,39.6 261.2,39.6 263.4,39.6 265.7,39.6 267.9,39.6 270.1,39.6   272.3,39.6 274.6,39.6 276.8,39.6 279,39.6 281.2,39.6 283.5,39.6 285.7,39.6 287.9,39.6 290.1,39.6 292.4,39.6 294.6,39.6   296.8,39.6 299,39.6 301.3,39.6 303.5,39.6 305.7,39.6 307.9,39.6 310.2,39.6 312.4,39.6 314.6,39.6 316.9,39.6 319.1,39.6   321.3,39.6 323.5,39.6 325.8,39.6 328,39.6 330.2,39.6 332.4,39.6 334.7,39.6 336.9,39.6 339.1,39.6 341.3,39.6 343.6,39.6   345.8,39.6 348,39.6 350.2,39.6 352.5,39.6 354.7,39.6 356.9,39.6 359.1,39.6 361.4,39.6 363.6,39.6 365.8,39.6 368,39.6   370.3,39.6 372.5,39.6 374.7,39.6 377,39.6 379.2,39.6 381.4,39.6 383.6,39.6 385.9,39.6 388.1,39.6 390.3,39.6 392.5,39.6   394.8,39.6 397,39.6 399.2,39.6 401.4,39.6 403.7,39.6 405.9,39.6 408.1,39.6 410.3,39.6 412.6,39.6 414.8,39.6 417,39.6   419.2,39.6 421.5,39.6 423.7,39.6 425.9,39.6 428.2,39.6 430.4,39.6 432.6,39.6 434.8,39.6 437.1,39.6 439.3,39.6 441.5,39.6   443.7,39.6 446,39.6 448.2,39.6 450.4,39.6 452.6,39.6 454.9,39.6 457.1,39.6 459.3,39.6 461.5,39.6 463.8,39.6 466,39.6   468.2,39.6 470.4,39.6 472.7,39.6 474.9,39.6 477.1,39.6 479.3,39.6 481.6,39.6 483.8,39.6 486,39.6 488.3,39.6 490.5,39.6   492.7,39.6 494.9,39.6 "
   id="polyline240"
   transform="translate(-9.9518216,0.26755474)" />
<polyline
   class="st10"
   points="52,47.4 54.2,47 56.4,46.6 58.6,47.1 60.9,47.1 63.1,46.8 65.3,47.1 67.5,46.8 69.8,47.3 72,47.5   74.2,62.8 76.4,63.4 78.7,62.1 80.9,60.7 83.1,59.4 85.3,57.8 87.6,56.4 89.8,55.3 92,54.6 94.3,53.2 96.5,52.4 98.7,51.6 100.9,51   103.2,50.3 105.4,49.4 107.6,48.9 109.8,48.8 112.1,48 114.3,48 116.5,47.5 118.7,47 121,47.1 123.2,46.8 125.4,46.5 127.6,46.5   129.9,46 132.1,46.3 134.3,45.6 136.5,45.7 138.8,45.6 141,45.7 143.2,45.4 145.4,45.8 147.7,45.3 149.9,45.6 152.1,45.4   154.4,45.9 156.6,45.6 158.8,45.2 161,44.7 163.3,45.7 165.5,45.1 167.7,45.2 169.9,45.3 172.2,45.1 174.4,45.4 176.6,45.2   178.8,45.4 181.1,45.4 183.3,45.2 185.5,45.6 187.7,45.5 190,45.3 192.2,45.6 194.4,45.5 196.6,45.7 198.9,46 201.1,45.8   203.3,45.2 205.6,45.7 207.8,45.7 210,45.4 212.2,45.7 214.5,45.4 216.7,45.7 218.9,45.9 221.1,45.6 223.4,45.6 225.6,45.9   227.8,45.6 230,46 232.3,45.9 234.5,45.7 236.7,46.3 238.9,45.7 241.2,46 243.4,45.5 245.6,45.9 247.8,45.7 250.1,46.9 252.3,46.6   254.5,46.1 256.7,46.1 259,46.2 261.2,46 263.4,46.1 265.7,46.1 267.9,46.2 270.1,46.1 272.3,46.2 274.6,46 276.8,46 279,46.2   281.2,46.2 283.5,46.2 285.7,46 287.9,46.4 290.1,46 292.4,46.2 294.6,46.2 296.8,46.3 299,46.1 301.3,46.2 303.5,47.2 305.7,46.4   307.9,46.1 310.2,46.7 312.4,46.5 314.6,46.6 316.9,46.5 319.1,46.5 321.3,46.6 323.5,46.7 325.8,46.7 328,46.4 330.2,46.7   332.4,46.5 334.7,46.4 336.9,46.6 339.1,46.6 341.3,46.7 343.6,46.6 345.8,46.7 348,46.4 350.2,47.1 352.5,46.4 354.7,46.6   356.9,46.7 359.1,47.1 361.4,46.4 363.6,47.1 365.8,46.6 368,47.1 370.3,46.8 372.5,46.9 374.7,46.4 377,47.2 379.2,46.8   381.4,46.4 383.6,46.4 385.9,46.9 388.1,46.5 390.3,46.8 392.5,46.8 394.8,47 397,47 399.2,47.1 401.4,46.8 403.7,46.9 405.9,47.3   408.1,47 410.3,46.9 412.6,46.8 414.8,47.1 417,46.7 419.2,47 421.5,46.8 423.7,47.2 425.9,47 428.2,47.1 430.4,46.8 432.6,47.1   434.8,47.6 437.1,46.9 439.3,46.5 441.5,46.7 443.7,47.4 446,46.9 448.2,46.9 450.4,47 452.6,46.9 454.9,46.9 457.1,46.4   459.3,47.4 461.5,47 463.8,47.2 466,46.7 468.2,46.9 470.4,47.2 472.7,46.7 474.9,47.1 477.1,47.1 479.3,47.3 481.6,47.1   483.8,47.3 486,47 488.3,46.9 490.5,47.1 492.7,46.7 494.9,47.4 "
   id="polyline242"
   transform="translate(-9.9518216,0.26755474)" />
<rect
   x="413.44815"
   y="25.767553"
   class="st0"
   width="63.599998"
   height="53.400002"
   id="rect244" />
<text
   class="st4 st11"
   id="text246"
   x="452.40527"
   y="37.312653">Id</text>
<line
   class="st12"
   x1="419.44815"
   y1="33.667557"
   x2="449.44815"
   y2="33.667557"
   id="line248" />
<text
   class="st4 st11"
   id="text250"
   x="452.40527"
   y="49.789154">Iq</text>
<line
   class="st13"
   x1="419.44815"
   y1="46.167557"
   x2="449.44815"
   y2="46.167557"
   id="line252" />
<text
   class="st4 st11"
   id="text254"
   x="452.40527"
   y="62.265755">IdRef</text>
<line
   class="st9"
   x1="419.44815"
   y1="58.667557"
   x2="449.44815"
   y2="58.667557"
   id="line256" />
<text
   class="st4 st11"
   id="text258"
   x="452.40527"
   y="74.742355">IqRef</text>
<line
   class="st10"
   x1="419.44815"
   y1="71.167557"
   x2="449.44815"
   y2="71.167557"
   id="line260" />
<polyline
   class="st2"
   points="423.4,78.9 423.4,25.5 487,25.5 487,78.9 423.4,78.9 "
   id="polyline262"
   transform="translate(-9.9518216,0.26755474)" />
<rect
   x="42.04818"
   y="105.56756"
   class="st0"
   width="445.20001"
   height="64.800003"
   id="rect264" />
<line
   class="st1"
   x1="42.04818"
   y1="170.36755"
   x2="42.04818"
   y2="105.56756"
   id="line266" />
<line
   class="st1"
   x1="50.948181"
   y1="170.36755"
   x2="50.948181"
   y2="105.56756"
   id="line268" />
<line
   class="st1"
   x1="59.848183"
   y1="170.36755"
   x2="59.848183"
   y2="105.56756"
   id="line270" />
<line
   class="st1"
   x1="68.748177"
   y1="170.36755"
   x2="68.748177"
   y2="105.56756"
   id="line272" />
<line
   class="st1"
   x1="77.648178"
   y1="170.36755"
   x2="77.648178"
   y2="105.56756"
   id="line274" />
<line
   class="st1"
   x1="86.54818"
   y1="170.36755"
   x2="86.54818"
   y2="105.56756"
   id="line276" />
<line
   class="st1"
   x1="95.448181"
   y1="170.36755"
   x2="95.448181"
   y2="105.56756"
   id="line278" />
<line
   class="st1"
   x1="104.34818"
   y1="170.36755"
   x2="104.34818"
   y2="105.56756"
   id="line280" />
<line
   class="st1"
   x1="113.24818"
   y1="170.36755"
   x2="113.24818"
   y2="105.56756"
   id="line282" />
<line
   class="st1"
   x1="122.14819"
   y1="170.36755"
   x2="122.14819"
   y2="105.56756"
   id="line284" />
<line
   class="st1"
   x1="131.04817"
   y1="170.36755"
   x2="131.04817"
   y2="105.56756"
   id="line286" />
<line
   class="st1"
   x1="139.94817"
   y1="170.36755"
   x2="139.94817"
   y2="105.56756"
   id="line288" />
<line
   class="st1"
   x1="148.84818"
   y1="170.36755"
   x2="148.84818"
   y2="105.56756"
   id="line290" />
<line
   class="st1"
   x1="157.74817"
   y1="170.36755"
   x2="157.74817"
   y2="105.56756"
   id="line292" />
<line
   class="st1"
   x1="166.64818"
   y1="170.36755"
   x2="166.64818"
   y2="105.56756"
   id="line294" />
<line
   class="st1"
   x1="175.54817"
   y1="170.36755"
   x2="175.54817"
   y2="105.56756"
   id="line296" />
<line
   class="st1"
   x1="184.44817"
   y1="170.36755"
   x2="184.44817"
   y2="105.56756"
   id="line298" />
<line
   class="st1"
   x1="193.34818"
   y1="170.36755"
   x2="193.34818"
   y2="105.56756"
   id="line300" />
<line
   class="st1"
   x1="202.24817"
   y1="170.36755"
   x2="202.24817"
   y2="105.56756"
   id="line302" />
<line
   class="st1"
   x1="211.14818"
   y1="170.36755"
   x2="211.14818"
   y2="105.56756"
   id="line304" />
<line
   class="st1"
   x1="220.04817"
   y1="170.36755"
   x2="220.04817"
   y2="105.56756"
   id="line306" />
<line
   class="st1"
   x1="228.94817"
   y1="170.36755"
   x2="228.94817"
   y2="105.56756"
   id="line308" />
<line
   class="st1"
   x1="237.84818"
   y1="170.36755"
   x2="237.84818"
   y2="105.56756"
   id="line310" />
<line
   class="st1"
   x1="246.74818"
   y1="170.36755"
   x2="246.74818"
   y2="105.56756"
   id="line312" />
<line
   class="st1"
   x1="255.74818"
   y1="170.36755"
   x2="255.74818"
   y2="105.56756"
   id="line314" />
<line
   class="st1"
   x1="264.64816"
   y1="170.36755"
   x2="264.64816"
   y2="105.56756"
   id="line316" />
<line
   class="st1"
   x1="273.54816"
   y1="170.36755"
   x2="273.54816"
   y2="105.56756"
   id="line318" />
<line
   class="st1"
   x1="282.44815"
   y1="170.36755"
   x2="282.44815"
   y2="105.56756"
   id="line320" />
<line
   class="st1"
   x1="291.34814"
   y1="170.36755"
   x2="291.34814"
   y2="105.56756"
   id="line322" />
<line
   class="st1"
   x1="300.24817"
   y1="170.36755"
   x2="300.24817"
   y2="105.56756"
   id="line324" />
<line
   class="st1"
   x1="309.14816"
   y1="170.36755"
   x2="309.14816"
   y2="105.56756"
   id="line326" />
<line
   class="st1"
   x1="318.04816"
   y1="170.36755"
   x2="318.04816"
   y2="105.56756"
   id="line328" />
<line
   class="st1"
   x1="326.94815"
   y1="170.36755"
   x2="326.94815"
   y2="105.56756"
   id="line330" />
<line
   class="st1"
   x1="335.84814"
   y1="170.36755"
   x2="335.84814"
   y2="105.56756"
   id="line332" />
<line
   class="st1"
   x1="344.74817"
   y1="170.36755"
   x2="344.74817"
   y2="105.56756"
   id="line334" />
<line
   class="st1"
   x1="353.64816"
   y1="170.36755"
   x2="353.64816"
   y2="105.56756"
   id="line336" />
<line
   class="st1"
   x1="362.54816"
   y1="170.36755"
   x2="362.54816"
   y2="105.56756"
   id="line338" />
<line
   class="st1"
   x1="371.44815"
   y1="170.36755"
   x2="371.44815"
   y2="105.56756"
   id="line340" />
<line
   class="st1"
   x1="380.34814"
   y1="170.36755"
   x2="380.34814"
   y2="105.56756"
   id="line342" />
<line
   class="st1"
   x1="389.24817"
   y1="170.36755"
   x2="389.24817"
   y2="105.56756"
   id="line344" />
<line
   class="st1"
   x1="398.14816"
   y1="170.36755"
   x2="398.14816"
   y2="105.56756"
   id="line346" />
<line
   class="st1"
   x1="407.04816"
   y1="170.36755"
   x2="407.04816"
   y2="105.56756"
   id="line348" />
<line
   class="st1"
   x1="415.94815"
   y1="170.36755"
   x2="415.94815"
   y2="105.56756"
   id="line350" />
<line
   class="st1"
   x1="424.84814"
   y1="170.36755"
   x2="424.84814"
   y2="105.56756"
   id="line352" />
<line
   class="st1"
   x1="433.74817"
   y1="170.36755"
   x2="433.74817"
   y2="105.56756"
   id="line354" />
<line
   class="st1"
   x1="442.64816"
   y1="170.36755"
   x2="442.64816"
   y2="105.56756"
   id="line356" />
<line
   class="st1"
   x1="451.54816"
   y1="170.36755"
   x2="451.54816"
   y2="105.56756"
   id="line358" />
<line
   class="st1"
   x1="460.44815"
   y1="170.36755"
   x2="460.44815"
   y2="105.56756"
   id="line360" />
<line
   class="st1"
   x1="469.34814"
   y1="170.36755"
   x2="469.34814"
   y2="105.56756"
   id="line362" />
<line
   class="st1"
   x1="478.34814"
   y1="170.36755"
   x2="478.34814"
   y2="105.56756"
   id="line364" />
<line
   class="st1"
   x1="487.24817"
   y1="170.36755"
   x2="487.24817"
   y2="105.56756"
   id="line366" />
<line
   class="st1"
   x1="487.24817"
   y1="170.36755"
   x2="42.04818"
   y2="170.36755"
   id="line368" />
<line
   class="st1"
   x1="487.24817"
   y1="162.26755"
   x2="42.04818"
   y2="162.26755"
   id="line370" />
<line
   class="st1"
   x1="487.24817"
   y1="154.16754"
   x2="42.04818"
   y2="154.16754"
   id="line372" />
<line
   class="st1"
   x1="487.24817"
   y1="146.06755"
   x2="42.04818"
   y2="146.06755"
   id="line374" />
<line
   class="st1"
   x1="487.24817"
   y1="137.96754"
   x2="42.04818"
   y2="137.96754"
   id="line376" />
<line
   class="st1"
   x1="487.24817"
   y1="129.86755"
   x2="42.04818"
   y2="129.86755"
   id="line378" />
<line
   class="st1"
   x1="487.24817"
   y1="121.76756"
   x2="42.04818"
   y2="121.76756"
   id="line380" />
<line
   class="st1"
   x1="487.24817"
   y1="113.66756"
   x2="42.04818"
   y2="113.66756"
   id="line382" />
<line
   class="st1"
   x1="487.24817"
   y1="105.56756"
   x2="42.04818"
   y2="105.56756"
   id="line384" />
<line
   class="st2"
   x1="42.04818"
   y1="170.36755"
   x2="487.24817"
   y2="170.36755"
   id="line386" />
<line
   class="st2"
   x1="42.04818"
   y1="105.56756"
   x2="487.24817"
   y2="105.56756"
   id="line388" />
<line
   class="st2"
   x1="42.04818"
   y1="170.36755"
   x2="42.04818"
   y2="165.86755"
   id="line390" />
<line
   class="st2"
   x1="86.54818"
   y1="170.36755"
   x2="86.54818"
   y2="165.86755"
   id="line392" />
<line
   class="st2"
   x1="131.04817"
   y1="170.36755"
   x2="131.04817"
   y2="165.86755"
   id="line394" />
<line
   class="st2"
   x1="175.54817"
   y1="170.36755"
   x2="175.54817"
   y2="165.86755"
   id="line396" />
<line
   class="st2"
   x1="220.04817"
   y1="170.36755"
   x2="220.04817"
   y2="165.86755"
   id="line398" />
<line
   class="st2"
   x1="264.64816"
   y1="170.36755"
   x2="264.64816"
   y2="165.86755"
   id="line400" />
<line
   class="st2"
   x1="309.14816"
   y1="170.36755"
   x2="309.14816"
   y2="165.86755"
   id="line402" />
<line
   class="st2"
   x1="353.64816"
   y1="170.36755"
   x2="353.64816"
   y2="165.86755"
   id="line404" />
<line
   class="st2"
   x1="398.14816"
   y1="170.36755"
   x2="398.14816"
   y2="165.86755"
   id="line406" />
<line
   class="st2"
   x1="442.64816"
   y1="170.36755"
   x2="442.64816"
   y2="165.86755"
   id="line408" />
<line
   class="st2"
   x1="487.24817"
   y1="170.36755"
   x2="487.24817"
   y2="165.86755"
   id="line410" />
<line
   class="st2"
   x1="42.04818"
   y1="105.56756"
   x2="42.04818"
   y2="109.96754"
   id="line412" />
<line
   class="st2"
   x1="86.54818"
   y1="105.56756"
   x2="86.54818"
   y2="109.96754"
   id="line414" />
<line
   class="st2"
   x1="131.04817"
   y1="105.56756"
   x2="131.04817"
   y2="109.96754"
   id="line416" />
<line
   class="st2"
   x1="175.54817"
   y1="105.56756"
   x2="175.54817"
   y2="109.96754"
   id="line418" />
<line
   class="st2"
   x1="220.04817"
   y1="105.56756"
   x2="220.04817"
   y2="109.96754"
   id="line420" />
<line
   class="st2"
   x1="264.64816"
   y1="105.56756"
   x2="264.64816"
   y2="109.96754"
   id="line422" />
<line
   class="st2"
   x1="309.14816"
   y1="105.56756"
   x2="309.14816"
   y2="109.96754"
   id="line424" />
<line
   class="st2"
   x1="353.64816"
   y1="105.56756"
   x2="353.64816"
   y2="109.96754"
   id="line426" />
<line
   class="st2"
   x1="398.14816"
   y1="105.56756"
   x2="398.14816"
   y2="109.96754"
   id="line428" />
<line
   class="st2"
   x1="442.64816"
   y1="105.56756"
   x2="442.64816"
   y2="109.96754"
   id="line430" />
<line
   class="st2"
   x1="487.24817"
   y1="105.56756"
   x2="487.24817"
   y2="109.96754"
   id="line432" />
<text
   class="st3 st4 st5"
   id="text434"
   x="39.004879"
   y="185.12704">0</text>
<text
   class="st3 st4 st5"
   id="text436"
   x="83.525375"
   y="185.12704">2</text>
<text
   class="st3 st4 st5"
   id="text438"
   x="128.04498"
   y="185.12704">4</text>
<text
   class="st3 st4 st5"
   id="text440"
   x="172.56548"
   y="185.12704">6</text>
<text
   class="st3 st4 st5"
   id="text442"
   x="217.08498"
   y="185.12704">8</text>
<text
   class="st3 st4 st5"
   id="text444"
   x="258.90527"
   y="185.12704">10</text>
<text
   class="st3 st4 st5"
   id="text446"
   x="303.42578"
   y="185.12704">12</text>
<text
   class="st3 st4 st5"
   id="text448"
   x="347.94537"
   y="185.12704">14</text>
<text
   class="st3 st4 st5"
   id="text450"
   x="392.46588"
   y="185.12704">16</text>
<text
   class="st3 st4 st5"
   id="text452"
   x="436.98538"
   y="185.12704">18</text>
<text
   class="st3 st4 st5"
   id="text454"
   x="481.50488"
   y="185.12704">20</text>
<text
   transform="rotate(-90)"
   class="st3 st4 st6"
   id="text456"
   x="-172.82695"
   y="14.005274">Current DC [A]</text>
<line
   class="st2"
   x1="42.04818"
   y1="170.36755"
   x2="42.04818"
   y2="105.56756"
   id="line458" />
<line
   class="st2"
   x1="487.24817"
   y1="170.36755"
   x2="487.24817"
   y2="105.56756"
   id="line460" />
<line
   class="st2"
   x1="42.04818"
   y1="170.36755"
   x2="46.448181"
   y2="170.36755"
   id="line462" />
<line
   class="st2"
   x1="42.04818"
   y1="137.96754"
   x2="46.448181"
   y2="137.96754"
   id="line464" />
<line
   class="st2"
   x1="42.04818"
   y1="105.56756"
   x2="46.448181"
   y2="105.56756"
   id="line466" />
<line
   class="st2"
   x1="487.24817"
   y1="170.36755"
   x2="482.74817"
   y2="170.36755"
   id="line468" />
<line
   class="st2"
   x1="487.24817"
   y1="137.96754"
   x2="482.74817"
   y2="137.96754"
   id="line470" />
<line
   class="st2"
   x1="487.24817"
   y1="105.56756"
   x2="482.74817"
   y2="105.56756"
   id="line472" />
<text
   class="st3 st4 st5"
   id="text474"
   x="28.405279"
   y="174.52745">-5</text>
<text
   class="st3 st4 st5"
   id="text476"
   x="32.004879"
   y="142.12704">0</text>
<text
   class="st3 st4 st5"
   id="text478"
   x="32.004879"
   y="109.72766">5</text>
<polyline
   class="st7"
   points="52,135.4 54.2,134.7 56.4,135.8 58.6,135.2 60.9,135.1 63.1,135.4 65.3,135.7 67.5,135.7 69.8,135.7   72,135.1 74.2,128.5 76.4,127.3 78.7,126.7 80.9,126.1 83.1,125.2 85.3,123.9 87.6,123.2 89.8,121.9 92,121.1 94.3,120.4   96.5,119.8 98.7,118.5 100.9,117.2 103.2,116.8 105.4,115.8 107.6,115.4 109.8,115.1 112.1,114.3 114.3,114.1 116.5,114 118.7,113   121,112.3 123.2,112.1 125.4,112.3 127.6,111.4 129.9,112 132.1,111.7 134.3,110.8 136.5,111.4 138.8,111.4 141,110.9 143.2,110.2   145.4,110.3 147.7,110.8 149.9,109.9 152.1,110.4 154.4,110.3 156.6,109.8 158.8,110.4 161,109.5 "
   id="polyline480"
   transform="translate(-9.9518216,0.26755474)" />
<polyline
   class="st7"
   points="161,109.5 163.3,110.5 165.5,110.2 167.7,110 169.9,110.2 172.2,110.4 174.4,110.4 176.6,110.1   178.8,110.2 181.1,110.2 183.3,110.2 185.5,110.2 187.7,110.3 190,110.4 192.2,110.1 194.4,110.6 196.6,110.9 198.9,109.9   201.1,111.5 203.3,110.3 205.6,110.7 207.8,110.5 210,110.7 212.2,110.7 214.5,110.8 216.7,110.2 218.9,111.5 221.1,111.7   223.4,110.9 225.6,110.8 227.8,110.2 230,111 232.3,111.7 234.5,110.5 236.7,111.3 238.9,111.1 241.2,110.4 243.4,112 245.6,110.8   247.8,111.2 250.1,111.3 252.3,111.5 254.5,111.6 256.7,110.4 259,111 261.2,111.2 263.4,112 265.7,112.3 267.9,111.2 270.1,112.1   "
   id="polyline482"
   transform="translate(-9.9518216,0.26755474)" />
<polyline
   class="st7"
   points="270.1,112.1 272.3,110.9 274.6,111.4 276.8,111.7 279,111.6 281.2,111.7 283.5,111.6 285.7,112.6   287.9,111.9 290.1,111.6 292.4,111.6 294.6,112 296.8,111.8 299,111.6 301.3,112.1 303.5,112.3 305.7,112.5 307.9,112.3   310.2,111.7 312.4,111.4 314.6,112.3 316.9,112.3 319.1,111.2 321.3,112.3 323.5,111.7 325.8,111.9 328,112.3 330.2,112.1   332.4,111.7 334.7,112.6 336.9,112.5 339.1,112.3 341.3,112.3 343.6,112 345.8,112 348,112 350.2,112.1 352.5,112.5 354.7,112.2   356.9,111.3 359.1,111.6 361.4,112.5 363.6,111.4 365.8,112.5 368,112.8 370.3,112.3 372.5,112.3 374.7,112 377,113.1 379.2,112.8   "
   id="polyline484"
   transform="translate(-9.9518216,0.26755474)" />
<polyline
   class="st7"
   points="379.2,112.8 381.4,113.7 383.6,111.5 385.9,112.5 388.1,112.9 390.3,113 392.5,112.5 394.8,113.4   397,113 399.2,112.5 401.4,112.9 403.7,112.6 405.9,112 408.1,112.3 410.3,112.6 412.6,113.1 414.8,112.5 417,111.6 419.2,112.7   421.5,111.5 423.7,112 425.9,111.8 428.2,111.5 430.4,112.9 432.6,113 434.8,112.7 437.1,113 439.3,112.1 441.5,112.6 443.7,112.5   446,112 448.2,112.2 450.4,112.5 452.6,112.6 454.9,112 457.1,112.9 459.3,112 461.5,111.9 463.8,112 466,113.2 468.2,112   470.4,111.7 472.7,112.5 474.9,112.5 477.1,112.5 479.3,112.3 481.6,112.8 483.8,113.4 486,112.8 488.3,112.1 "
   id="polyline486"
   transform="translate(-9.9518216,0.26755474)" />
<polyline
   class="st7"
   points="488.3,112.1 490.5,112.9 492.7,113.3 494.9,112.9 "
   id="polyline488"
   transform="translate(-9.9518216,0.26755474)" />
<polyline
   class="st8"
   points="52,139.8 54.2,138.2 56.4,140.5 58.6,140.3 60.9,139.5 63.1,140.1 65.3,140.8 67.5,140.7 69.8,140.3   72,139.8 74.2,123.2 76.4,124.6 78.7,125 80.9,125.9 83.1,126.8 85.3,127.8 87.6,129.1 89.8,130.1 92,130.8 94.3,131.8 96.5,132.8   98.7,133.7 100.9,134.2 103.2,135.5 105.4,135.8 107.6,136.7 109.8,136.8 112.1,137.7 114.3,138.4 116.5,139.2 118.7,139.1   121,139.4 123.2,140.3 125.4,140.8 127.6,140.1 129.9,141.6 132.1,141.1 134.3,141.1 136.5,142.3 138.8,142.6 141,141.7   143.2,141.7 145.4,142 147.7,142.6 149.9,141.7 152.1,142 154.4,142.1 156.6,141.8 158.8,142.4 161,142.1 "
   id="polyline490"
   transform="translate(-9.9518216,0.26755474)" />
<polyline
   class="st8"
   points="161,142.1 163.3,142.6 165.5,143 167.7,141.8 169.9,142.3 172.2,142.6 174.4,142.3 176.6,142.3   178.8,142.3 181.1,142.1 183.3,142.4 185.5,142.1 187.7,142.4 190,142 192.2,142.1 194.4,142.3 196.6,142.7 198.9,141.1   201.1,142.1 203.3,141.6 205.6,141.8 207.8,142.8 210,142.8 212.2,142 214.5,141.6 216.7,140.5 218.9,142.6 221.1,143.3   223.4,142.1 225.6,141.7 227.8,141.4 230,141.7 232.3,143.3 234.5,142 236.7,141.6 238.9,140.5 241.2,141 243.4,142.8 245.6,141.6   247.8,141.3 250.1,141.1 252.3,141.8 254.5,141.8 256.7,140.7 259,140.7 261.2,141.3 263.4,142.6 265.7,142.4 267.9,141.4   270.1,142.7 "
   id="polyline492"
   transform="translate(-9.9518216,0.26755474)" />
<polyline
   class="st8"
   points="270.1,142.7 272.3,140.7 274.6,141.4 276.8,140.8 279,140.8 281.2,141.3 283.5,140.3 285.7,141.7   287.9,140.8 290.1,141.4 292.4,141.6 294.6,142.3 296.8,141 299,140.8 301.3,142.1 303.5,141 305.7,141.8 307.9,143 310.2,141   312.4,140.3 314.6,141 316.9,142.1 319.1,140.4 321.3,140.4 323.5,141 325.8,140.5 328,141 330.2,140.8 332.4,141.1 334.7,141.4   336.9,140.4 339.1,141.7 341.3,140.7 343.6,140.3 345.8,140.3 348,141.1 350.2,140.5 352.5,141.7 354.7,141.3 356.9,140.1   359.1,140.3 361.4,140.7 363.6,139.8 365.8,140.5 368,141.8 370.3,139.2 372.5,139.2 374.7,139.4 377,141.4 379.2,141.3 "
   id="polyline494"
   transform="translate(-9.9518216,0.26755474)" />
<polyline
   class="st8"
   points="379.2,141.3 381.4,142.4 383.6,139.2 385.9,142.1 388.1,140.8 390.3,142.1 392.5,141.4 394.8,142.1   397,141.3 399.2,139 401.4,141 403.7,142 405.9,139.5 408.1,141.1 410.3,140.1 412.6,142 414.8,139.7 417,138.5 419.2,140   421.5,140.3 423.7,140.4 425.9,140.1 428.2,138.8 430.4,140.4 432.6,141.7 434.8,140.8 437.1,140.5 439.3,140.5 441.5,141.6   443.7,140.3 446,139.1 448.2,140.3 450.4,140.3 452.6,140.4 454.9,139.1 457.1,140.5 459.3,140.8 461.5,139.4 463.8,140.3   466,141.4 468.2,139.5 470.4,138.8 472.7,140 474.9,141.3 477.1,140.3 479.3,138.8 481.6,140 483.8,140.1 486,140.8 488.3,138.2 "
   id="polyline496"
   transform="translate(-9.9518216,0.26755474)" />
<polyline
   class="st8"
   points="488.3,138.2 490.5,140.5 492.7,141.6 494.9,140 "
   id="polyline498"
   transform="translate(-9.9518216,0.26755474)" />
<polyline
   class="st14"
   points="52,137.6 54.2,135.3 56.4,138.7 58.6,137.8 60.9,137 63.1,137.9 65.3,138.9 67.5,138.7 69.8,138.3   72,137.3 74.2,114 76.4,114.2 78.7,114.1 80.9,114.4 83.1,114.3 85.3,114 87.6,114.6 89.8,114.3 92,114.2 94.3,114.5 96.5,114.9   98.7,114.5 100.9,113.8 103.2,114.7 105.4,113.9 107.6,114.4 109.8,114.3 112.1,114.3 114.3,114.8 116.5,115.6 118.7,114.5 121,114   123.2,114.7 125.4,115.4 127.6,113.8 129.9,115.9 132.1,115.1 134.3,114.3 136.5,116 138.8,116.3 141,114.9 143.2,114.3   145.4,114.7 147.7,115.7 149.9,113.9 152.1,114.8 154.4,114.8 156.6,113.9 158.8,115.2 161,113.9 "
   id="polyline500"
   transform="translate(-9.9518216,0.26755474)" />
<polyline
   class="st14"
   points="161,113.9 163.3,115.4 165.5,115.6 167.7,114.1 169.9,114.8 172.2,115.3 174.4,115 176.6,114.8   178.8,114.8 181.1,114.7 183.3,115 185.5,114.7 187.7,115.1 190,114.8 192.2,114.6 194.4,115.2 196.6,116 198.9,113.3 201.1,116   203.3,114.2 205.6,114.9 207.8,115.7 210,115.9 212.2,115 214.5,114.7 216.7,113.1 218.9,116.4 221.1,117.3 223.4,115.4   225.6,114.9 227.8,114 230,115 232.3,117.3 234.5,114.8 236.7,115.2 238.9,114 241.2,113.7 243.4,117.1 245.6,114.7 247.8,114.8   250.1,114.8 252.3,115.7 254.5,115.8 256.7,113.5 259,114 261.2,114.8 263.4,116.9 265.7,117.1 267.9,114.9 270.1,117.1 "
   id="polyline502"
   transform="translate(-9.9518216,0.26755474)" />
<polyline
   class="st14"
   points="270.1,117.1 272.3,113.9 274.6,115.1 276.8,114.9 279,114.8 281.2,115.3 283.5,114.2 285.7,116.7   287.9,115 290.1,115.3 292.4,115.5 294.6,116.6 296.8,115.1 299,114.8 301.3,116.5 303.5,115.6 305.7,116.6 307.9,117.7 310.2,115   312.4,114 314.6,115.7 316.9,116.7 319.1,113.9 321.3,115.1 323.5,115 325.8,114.8 328,115.7 330.2,115.2 332.4,115.1 334.7,116.4   336.9,115.3 339.1,116.4 341.3,115.4 343.6,114.6 345.8,114.6 348,115.4 350.2,114.9 352.5,116.5 354.7,115.8 356.9,113.7   359.1,114.2 361.4,115.6 363.6,113.6 365.8,115.3 368,117 370.3,113.9 372.5,113.8 374.7,113.7 377,116.9 379.2,116.4 "
   id="polyline504"
   transform="translate(-9.9518216,0.26755474)" />
<polyline
   class="st14"
   points="379.2,116.4 381.4,118.4 383.6,113.1 385.9,117 388.1,116.1 390.3,117.5 392.5,116.3 394.8,117.9   397,116.6 399.2,113.9 401.4,116.2 403.7,117 405.9,113.8 408.1,115.7 410.3,115.1 412.6,117.4 414.8,114.6 417,112.5 419.2,115   421.5,114.1 423.7,114.7 425.9,114.2 428.2,112.7 430.4,115.7 432.6,117.1 434.8,115.9 437.1,115.9 439.3,114.9 441.5,116.5   443.7,115 446,113.4 448.2,114.8 450.4,115 452.6,115.4 454.9,113.4 457.1,115.8 459.3,115.1 461.5,113.6 463.8,114.6 466,117   468.2,113.8 470.4,112.8 472.7,114.8 474.9,116 477.1,115 479.3,113.5 481.6,115.1 483.8,115.9 486,116 488.3,112.6 "
   id="polyline506"
   transform="translate(-9.9518216,0.26755474)" />
<polyline
   class="st14"
   points="488.3,112.6 490.5,115.8 492.7,117.2 494.9,115.2 "
   id="polyline508"
   transform="translate(-9.9518216,0.26755474)" />
<rect
   x="415.24817"
   y="115.76756"
   class="st0"
   width="61.799999"
   height="40.799999"
   id="rect510" />
<text
   class="st4 st11"
   id="text512"
   x="454.20508"
   y="127.28826">Ibat</text>
<line
   class="st7"
   x1="421.24817"
   y1="123.66756"
   x2="451.24817"
   y2="123.66756"
   id="line514" />
<text
   class="st4 st11"
   id="text516"
   x="454.20508"
   y="139.72765">IFW</text>
<line
   class="st8"
   x1="421.24817"
   y1="136.16754"
   x2="451.24817"
   y2="136.16754"
   id="line518" />
<text
   class="st4 st11"
   id="text520"
   x="454.20508"
   y="152.16615">Iload</text>
<line
   class="st14"
   x1="421.24817"
   y1="148.56755"
   x2="451.24817"
   y2="148.56755"
   id="line522" />
<polyline
   class="st15"
   points="425.2,156.3 425.2,115.5 487,115.5 487,156.3 425.2,156.3 "
   id="polyline524"
   transform="translate(-9.9518216,0.26755474)" />
<rect
   x="42.04818"
   y="195.56755"
   class="st0"
   width="445.20001"
   height="64.800003"
   id="rect526" />
<line
   class="st1"
   x1="42.04818"
   y1="260.36755"
   x2="42.04818"
   y2="195.56755"
   id="line528" />
<line
   class="st1"
   x1="50.948181"
   y1="260.36755"
   x2="50.948181"
   y2="195.56755"
   id="line530" />
<line
   class="st1"
   x1="59.848183"
   y1="260.36755"
   x2="59.848183"
   y2="195.56755"
   id="line532" />
<line
   class="st1"
   x1="68.748177"
   y1="260.36755"
   x2="68.748177"
   y2="195.56755"
   id="line534" />
<line
   class="st1"
   x1="77.648178"
   y1="260.36755"
   x2="77.648178"
   y2="195.56755"
   id="line536" />
<line
   class="st1"
   x1="86.54818"
   y1="260.36755"
   x2="86.54818"
   y2="195.56755"
   id="line538" />
<line
   class="st1"
   x1="95.448181"
   y1="260.36755"
   x2="95.448181"
   y2="195.56755"
   id="line540" />
<line
   class="st1"
   x1="104.34818"
   y1="260.36755"
   x2="104.34818"
   y2="195.56755"
   id="line542" />
<line
   class="st1"
   x1="113.24818"
   y1="260.36755"
   x2="113.24818"
   y2="195.56755"
   id="line544" />
<line
   class="st1"
   x1="122.14819"
   y1="260.36755"
   x2="122.14819"
   y2="195.56755"
   id="line546" />
<line
   class="st1"
   x1="131.04817"
   y1="260.36755"
   x2="131.04817"
   y2="195.56755"
   id="line548" />
<line
   class="st1"
   x1="139.94817"
   y1="260.36755"
   x2="139.94817"
   y2="195.56755"
   id="line550" />
<line
   class="st1"
   x1="148.84818"
   y1="260.36755"
   x2="148.84818"
   y2="195.56755"
   id="line552" />
<line
   class="st1"
   x1="157.74817"
   y1="260.36755"
   x2="157.74817"
   y2="195.56755"
   id="line554" />
<line
   class="st1"
   x1="166.64818"
   y1="260.36755"
   x2="166.64818"
   y2="195.56755"
   id="line556" />
<line
   class="st1"
   x1="175.54817"
   y1="260.36755"
   x2="175.54817"
   y2="195.56755"
   id="line558" />
<line
   class="st1"
   x1="184.44817"
   y1="260.36755"
   x2="184.44817"
   y2="195.56755"
   id="line560" />
<line
   class="st1"
   x1="193.34818"
   y1="260.36755"
   x2="193.34818"
   y2="195.56755"
   id="line562" />
<line
   class="st1"
   x1="202.24817"
   y1="260.36755"
   x2="202.24817"
   y2="195.56755"
   id="line564" />
<line
   class="st1"
   x1="211.14818"
   y1="260.36755"
   x2="211.14818"
   y2="195.56755"
   id="line566" />
<line
   class="st1"
   x1="220.04817"
   y1="260.36755"
   x2="220.04817"
   y2="195.56755"
   id="line568" />
<line
   class="st1"
   x1="228.94817"
   y1="260.36755"
   x2="228.94817"
   y2="195.56755"
   id="line570" />
<line
   class="st1"
   x1="237.84818"
   y1="260.36755"
   x2="237.84818"
   y2="195.56755"
   id="line572" />
<line
   class="st1"
   x1="246.74818"
   y1="260.36755"
   x2="246.74818"
   y2="195.56755"
   id="line574" />
<line
   class="st1"
   x1="255.74818"
   y1="260.36755"
   x2="255.74818"
   y2="195.56755"
   id="line576" />
<line
   class="st1"
   x1="264.64816"
   y1="260.36755"
   x2="264.64816"
   y2="195.56755"
   id="line578" />
<line
   class="st1"
   x1="273.54816"
   y1="260.36755"
   x2="273.54816"
   y2="195.56755"
   id="line580" />
<line
   class="st1"
   x1="282.44815"
   y1="260.36755"
   x2="282.44815"
   y2="195.56755"
   id="line582" />
<line
   class="st1"
   x1="291.34814"
   y1="260.36755"
   x2="291.34814"
   y2="195.56755"
   id="line584" />
<line
   class="st1"
   x1="300.24817"
   y1="260.36755"
   x2="300.24817"
   y2="195.56755"
   id="line586" />
<line
   class="st1"
   x1="309.14816"
   y1="260.36755"
   x2="309.14816"
   y2="195.56755"
   id="line588" />
<line
   class="st1"
   x1="318.04816"
   y1="260.36755"
   x2="318.04816"
   y2="195.56755"
   id="line590" />
<line
   class="st1"
   x1="326.94815"
   y1="260.36755"
   x2="326.94815"
   y2="195.56755"
   id="line592" />
<line
   class="st1"
   x1="335.84814"
   y1="260.36755"
   x2="335.84814"
   y2="195.56755"
   id="line594" />
<line
   class="st1"
   x1="344.74817"
   y1="260.36755"
   x2="344.74817"
   y2="195.56755"
   id="line596" />
<line
   class="st1"
   x1="353.64816"
   y1="260.36755"
   x2="353.64816"
   y2="195.56755"
   id="line598" />
<line
   class="st1"
   x1="362.54816"
   y1="260.36755"
   x2="362.54816"
   y2="195.56755"
   id="line600" />
<line
   class="st1"
   x1="371.44815"
   y1="260.36755"
   x2="371.44815"
   y2="195.56755"
   id="line602" />
<line
   class="st1"
   x1="380.34814"
   y1="260.36755"
   x2="380.34814"
   y2="195.56755"
   id="line604" />
<line
   class="st1"
   x1="389.24817"
   y1="260.36755"
   x2="389.24817"
   y2="195.56755"
   id="line606" />
<line
   class="st1"
   x1="398.14816"
   y1="260.36755"
   x2="398.14816"
   y2="195.56755"
   id="line608" />
<line
   class="st1"
   x1="407.04816"
   y1="260.36755"
   x2="407.04816"
   y2="195.56755"
   id="line610" />
<line
   class="st1"
   x1="415.94815"
   y1="260.36755"
   x2="415.94815"
   y2="195.56755"
   id="line612" />
<line
   class="st1"
   x1="424.84814"
   y1="260.36755"
   x2="424.84814"
   y2="195.56755"
   id="line614" />
<line
   class="st1"
   x1="433.74817"
   y1="260.36755"
   x2="433.74817"
   y2="195.56755"
   id="line616" />
<line
   class="st1"
   x1="442.64816"
   y1="260.36755"
   x2="442.64816"
   y2="195.56755"
   id="line618" />
<line
   class="st1"
   x1="451.54816"
   y1="260.36755"
   x2="451.54816"
   y2="195.56755"
   id="line620" />
<line
   class="st1"
   x1="460.44815"
   y1="260.36755"
   x2="460.44815"
   y2="195.56755"
   id="line622" />
<line
   class="st1"
   x1="469.34814"
   y1="260.36755"
   x2="469.34814"
   y2="195.56755"
   id="line624" />
<line
   class="st1"
   x1="478.34814"
   y1="260.36755"
   x2="478.34814"
   y2="195.56755"
   id="line626" />
<line
   class="st1"
   x1="487.24817"
   y1="260.36755"
   x2="487.24817"
   y2="195.56755"
   id="line628" />
<line
   class="st1"
   x1="487.24817"
   y1="260.36755"
   x2="42.04818"
   y2="260.36755"
   id="line630" />
<line
   class="st1"
   x1="487.24817"
   y1="252.26755"
   x2="42.04818"
   y2="252.26755"
   id="line632" />
<line
   class="st1"
   x1="487.24817"
   y1="244.16754"
   x2="42.04818"
   y2="244.16754"
   id="line634" />
<line
   class="st1"
   x1="487.24817"
   y1="236.06755"
   x2="42.04818"
   y2="236.06755"
   id="line636" />
<line
   class="st1"
   x1="487.24817"
   y1="227.96754"
   x2="42.04818"
   y2="227.96754"
   id="line638" />
<line
   class="st1"
   x1="487.24817"
   y1="219.86755"
   x2="42.04818"
   y2="219.86755"
   id="line640" />
<line
   class="st1"
   x1="487.24817"
   y1="211.76755"
   x2="42.04818"
   y2="211.76755"
   id="line642" />
<line
   class="st1"
   x1="487.24817"
   y1="203.66754"
   x2="42.04818"
   y2="203.66754"
   id="line644" />
<line
   class="st1"
   x1="487.24817"
   y1="195.56755"
   x2="42.04818"
   y2="195.56755"
   id="line646" />
<line
   class="st2"
   x1="42.04818"
   y1="260.36755"
   x2="487.24817"
   y2="260.36755"
   id="line648" />
<line
   class="st2"
   x1="42.04818"
   y1="195.56755"
   x2="487.24817"
   y2="195.56755"
   id="line650" />
<line
   class="st2"
   x1="42.04818"
   y1="260.36755"
   x2="42.04818"
   y2="255.86755"
   id="line652" />
<line
   class="st2"
   x1="86.54818"
   y1="260.36755"
   x2="86.54818"
   y2="255.86755"
   id="line654" />
<line
   class="st2"
   x1="131.04817"
   y1="260.36755"
   x2="131.04817"
   y2="255.86755"
   id="line656" />
<line
   class="st2"
   x1="175.54817"
   y1="260.36755"
   x2="175.54817"
   y2="255.86755"
   id="line658" />
<line
   class="st2"
   x1="220.04817"
   y1="260.36755"
   x2="220.04817"
   y2="255.86755"
   id="line660" />
<line
   class="st2"
   x1="264.64816"
   y1="260.36755"
   x2="264.64816"
   y2="255.86755"
   id="line662" />
<line
   class="st2"
   x1="309.14816"
   y1="260.36755"
   x2="309.14816"
   y2="255.86755"
   id="line664" />
<line
   class="st2"
   x1="353.64816"
   y1="260.36755"
   x2="353.64816"
   y2="255.86755"
   id="line666" />
<line
   class="st2"
   x1="398.14816"
   y1="260.36755"
   x2="398.14816"
   y2="255.86755"
   id="line668" />
<line
   class="st2"
   x1="442.64816"
   y1="260.36755"
   x2="442.64816"
   y2="255.86755"
   id="line670" />
<line
   class="st2"
   x1="487.24817"
   y1="260.36755"
   x2="487.24817"
   y2="255.86755"
   id="line672" />
<line
   class="st2"
   x1="42.04818"
   y1="195.56755"
   x2="42.04818"
   y2="199.96754"
   id="line674" />
<line
   class="st2"
   x1="86.54818"
   y1="195.56755"
   x2="86.54818"
   y2="199.96754"
   id="line676" />
<line
   class="st2"
   x1="131.04817"
   y1="195.56755"
   x2="131.04817"
   y2="199.96754"
   id="line678" />
<line
   class="st2"
   x1="175.54817"
   y1="195.56755"
   x2="175.54817"
   y2="199.96754"
   id="line680" />
<line
   class="st2"
   x1="220.04817"
   y1="195.56755"
   x2="220.04817"
   y2="199.96754"
   id="line682" />
<line
   class="st2"
   x1="264.64816"
   y1="195.56755"
   x2="264.64816"
   y2="199.96754"
   id="line684" />
<line
   class="st2"
   x1="309.14816"
   y1="195.56755"
   x2="309.14816"
   y2="199.96754"
   id="line686" />
<line
   class="st2"
   x1="353.64816"
   y1="195.56755"
   x2="353.64816"
   y2="199.96754"
   id="line688" />
<line
   class="st2"
   x1="398.14816"
   y1="195.56755"
   x2="398.14816"
   y2="199.96754"
   id="line690" />
<line
   class="st2"
   x1="442.64816"
   y1="195.56755"
   x2="442.64816"
   y2="199.96754"
   id="line692" />
<line
   class="st2"
   x1="487.24817"
   y1="195.56755"
   x2="487.24817"
   y2="199.96754"
   id="line694" />
<text
   class="st3 st4 st5"
   id="text696"
   x="39.004879"
   y="275.12704">0</text>
<text
   class="st3 st4 st5"
   id="text698"
   x="83.525375"
   y="275.12704">2</text>
<text
   class="st3 st4 st5"
   id="text700"
   x="128.04498"
   y="275.12704">4</text>
<text
   class="st3 st4 st5"
   id="text702"
   x="172.56548"
   y="275.12704">6</text>
<text
   class="st3 st4 st5"
   id="text704"
   x="217.08498"
   y="275.12704">8</text>
<text
   class="st3 st4 st5"
   id="text706"
   x="258.90527"
   y="275.12704">10</text>
<text
   class="st3 st4 st5"
   id="text708"
   x="303.42578"
   y="275.12704">12</text>
<text
   class="st3 st4 st5"
   id="text710"
   x="347.94537"
   y="275.12704">14</text>
<text
   class="st3 st4 st5"
   id="text712"
   x="392.46588"
   y="275.12704">16</text>
<text
   class="st3 st4 st5"
   id="text714"
   x="436.98538"
   y="275.12704">18</text>
<text
   class="st3 st4 st5"
   id="text716"
   x="481.50488"
   y="275.12704">20</text>
<text
   transform="rotate(-90)"
   class="st3 st4 st6"
   id="text718"
   x="-253.52715"
   y="13.205469">Voltage [V]</text>
<line
   class="st2"
   x1="42.04818"
   y1="260.36755"
   x2="42.04818"
   y2="195.56755"
   id="line720" />
<line
   class="st2"
   x1="487.24817"
   y1="260.36755"
   x2="487.24817"
   y2="195.56755"
   id="line722" />
<line
   class="st2"
   x1="42.04818"
   y1="260.36755"
   x2="46.448181"
   y2="260.36755"
   id="line724" />
<line
   class="st2"
   x1="42.04818"
   y1="227.96754"
   x2="46.448181"
   y2="227.96754"
   id="line726" />
<line
   class="st2"
   x1="42.04818"
   y1="195.56755"
   x2="46.448181"
   y2="195.56755"
   id="line728" />
<line
   class="st2"
   x1="487.24817"
   y1="260.36755"
   x2="482.74817"
   y2="260.36755"
   id="line730" />
<line
   class="st2"
   x1="487.24817"
   y1="227.96754"
   x2="482.74817"
   y2="227.96754"
   id="line732" />
<line
   class="st2"
   x1="487.24817"
   y1="195.56755"
   x2="482.74817"
   y2="195.56755"
   id="line734" />
<text
   class="st3 st4 st5"
   id="text736"
   x="20.605478"
   y="264.52744">240</text>
<text
   class="st3 st4 st5"
   id="text738"
   x="20.605478"
   y="232.12704">260</text>
<text
   class="st3 st4 st5"
   id="text740"
   x="20.605478"
   y="199.72765">280</text>
<polyline
   class="st16"
   points="52,220.1 54.2,220.2 56.4,220.3 58.6,220.3 60.9,220.1 63.1,220.2 65.3,220.3 67.5,220.2 69.8,220.1   72,220.2 74.2,220.7 76.4,222.6 78.7,224.6 80.9,226.5 83.1,228.5 85.3,230.3 87.6,231.9 89.8,233.3 92,234.5 94.3,235.8 96.5,237   98.7,238.1 100.9,239.1 103.2,240 105.4,240.8 107.6,241.4 109.8,241.9 112.1,242.6 114.3,243.1 116.5,243.6 118.7,244.1 121,244.4   123.2,244.8 125.4,245.1 127.6,245.3 129.9,245.7 132.1,245.7 134.3,246 136.5,246 138.8,246.3 141,246.4 143.2,246.6 145.4,246.7   147.7,246.7 149.9,246.7 152.1,246.7 154.4,246.7 156.6,246.8 158.8,246.9 161,247 163.3,247 165.5,247 167.7,247 169.9,247   172.2,247 174.4,247 176.6,247 178.8,247 181.1,247.1 183.3,247 185.5,246.9 187.7,247 190,247 192.2,247 194.4,247 196.6,247   198.9,246.8 201.1,246.7 203.3,247 205.6,246.9 207.8,247 210,247 212.2,246.8 214.5,246.7 216.7,246.7 218.9,246.7 221.1,246.8   223.4,246.7 225.6,246.8 227.8,246.7 230,246.7 232.3,246.7 234.5,246.7 236.7,246.5 238.9,246.4 241.2,246.6 243.4,246.6   245.6,246.6 247.8,246.5 250.1,246.3 252.3,246.4 254.5,246.3 256.7,246.3 259,246.3 261.2,246.3 263.4,246.3 265.7,246.3   267.9,246.3 270.1,246.2 272.3,246 274.6,246.2 276.8,246.3 279,246.2 281.2,246 283.5,246 285.7,246 287.9,246 290.1,246   292.4,246 294.6,246 296.8,245.9 299,246 301.3,245.9 303.5,245.6 305.7,245.8 307.9,245.9 310.2,245.9 312.4,245.8 314.6,245.6   316.9,245.9 319.1,245.7 321.3,245.6 323.5,245.6 325.8,245.6 328,245.9 330.2,245.7 332.4,245.6 334.7,245.6 336.9,245.6   339.1,245.7 341.3,245.6 343.6,245.6 345.8,245.6 348,245.6 350.2,245.6 352.5,245.6 354.7,245.6 356.9,245.6 359.1,245.6   361.4,245.5 363.6,245.4 365.8,245.6 368,245.5 370.3,245.3 372.5,245.3 374.7,245.6 377,245.5 379.2,245.3 381.4,245.4   383.6,245.4 385.9,245.4 388.1,245.3 390.3,245.3 392.5,245.5 394.8,245.4 397,245.3 399.2,245.2 401.4,245.4 403.7,245.5   405.9,245.4 408.1,245.3 410.3,245.3 412.6,245.6 414.8,245.3 417,245.3 419.2,245.3 421.5,245.5 423.7,245.4 425.9,245.2   428.2,245.3 430.4,245.6 432.6,245.4 434.8,245.2 437.1,245.4 439.3,245.6 441.5,245.6 443.7,245.3 446,245.3 448.2,245.5   450.4,245.4 452.6,245.4 454.9,245.4 457.1,245.6 459.3,245.4 461.5,245.3 463.8,245.4 466,245.4 468.2,245.3 470.4,245.3   472.7,245.3 474.9,245.6 477.1,245.4 479.3,245.2 481.6,245.2 483.8,245.1 486,245.2 488.3,245.3 490.5,245.2 492.7,245.4   494.9,245.2 "
   id="polyline742"
   transform="translate(-9.9518216,0.26755474)" />
<polyline
   class="st17"
   points="52,220.3 54.2,220.2 56.4,220.2 58.6,220.3 60.9,220.2 63.1,220.1 65.3,220.3 67.5,220.2 69.8,220.2   72,220.4 74.2,226.1 76.4,227.5 78.7,228.3 80.9,229.2 83.1,230.4 85.3,231.3 87.6,232.3 89.8,233.3 92,234.3 94.3,235.1   96.5,236.1 98.7,237.1 100.9,238 103.2,238.8 105.4,239.5 107.6,240.1 109.8,240.8 112.1,241.3 114.3,241.9 116.5,242.5 118.7,243   121,243.5 123.2,244 125.4,244.3 127.6,244.6 129.9,244.8 132.1,245.1 134.3,245.2 136.5,245.4 138.8,245.7 141,245.9 143.2,246.1   145.4,246.4 147.7,246.3 149.9,246.5 152.1,246.4 154.4,246.6 156.6,246.7 158.8,246.6 161,246.7 "
   id="polyline744"
   transform="translate(-9.9518216,0.26755474)" />
<polyline
   class="st17"
   points="161,246.7 163.3,247 165.5,246.9 167.7,246.9 169.9,246.9 172.2,246.9 174.4,247 176.6,247   178.8,247 181.1,247.1 183.3,247 185.5,247 187.7,247.1 190,247 192.2,247.1 194.4,247.1 196.6,247.1 198.9,247 201.1,246.9   203.3,246.9 205.6,246.9 207.8,247.1 210,246.9 212.2,246.9 214.5,246.6 216.7,246.8 218.9,246.8 221.1,246.8 223.4,246.7   225.6,246.9 227.8,246.7 230,246.8 232.3,246.7 234.5,246.7 236.7,246.7 238.9,246.4 241.2,246.6 243.4,246.5 245.6,246.7   247.8,246.5 250.1,246.7 252.3,246.6 254.5,246.4 256.7,246.4 259,246.4 261.2,246.3 263.4,246.4 265.7,246.3 267.9,246.4   270.1,246.2 "
   id="polyline746"
   transform="translate(-9.9518216,0.26755474)" />
<polyline
   class="st17"
   points="270.1,246.2 272.3,246.2 274.6,246.2 276.8,246.2 279,246.3 281.2,246 283.5,246 285.7,246   287.9,246 290.1,245.9 292.4,245.9 294.6,245.9 296.8,245.9 299,246 301.3,245.9 303.5,246 305.7,245.9 307.9,245.9 310.2,246   312.4,245.9 314.6,245.7 316.9,245.9 319.1,245.7 321.3,245.7 323.5,245.7 325.8,245.7 328,245.8 330.2,245.7 332.4,245.6   334.7,245.6 336.9,245.6 339.1,245.7 341.3,245.6 343.6,245.6 345.8,245.6 348,245.5 350.2,245.7 352.5,245.5 354.7,245.6   356.9,245.6 359.1,245.7 361.4,245.4 363.6,245.6 365.8,245.6 368,245.7 370.3,245.3 372.5,245.4 374.7,245.4 377,245.6   379.2,245.3 "
   id="polyline748"
   transform="translate(-9.9518216,0.26755474)" />
<polyline
   class="st17"
   points="379.2,245.3 381.4,245.2 383.6,245.3 385.9,245.4 388.1,245.2 390.3,245.3 392.5,245.4 394.8,245.5   397,245.3 399.2,245.3 401.4,245.3 403.7,245.5 405.9,245.5 408.1,245.3 410.3,245.3 412.6,245.5 414.8,245.4 417,245.1   419.2,245.3 421.5,245.4 423.7,245.5 425.9,245.3 428.2,245.3 430.4,245.5 432.6,245.4 434.8,245.4 437.1,245.4 439.3,245.4   441.5,245.4 443.7,245.4 446,245.3 448.2,245.5 450.4,245.4 452.6,245.3 454.9,245.4 457.1,245.4 459.3,245.6 461.5,245.3   463.8,245.4 466,245.4 468.2,245.3 470.4,245.3 472.7,245.2 474.9,245.6 477.1,245.4 479.3,245.4 481.6,245.3 483.8,245.3   486,245.2 488.3,245.2 "
   id="polyline750"
   transform="translate(-9.9518216,0.26755474)" />
<polyline
   class="st17"
   points="488.3,245.2 490.5,245.2 492.7,245.3 494.9,245.3 "
   id="polyline752"
   transform="translate(-9.9518216,0.26755474)" />
<polyline
   class="st18"
   points="52,220.3 54.2,220.3 56.4,220.3 58.6,220.3 60.9,220.3 63.1,220.3 65.3,220.3 67.5,220.3 69.8,220.3   72,220.3 74.2,245.3 76.4,245.3 78.7,245.3 80.9,245.3 83.1,245.3 85.3,245.3 87.6,245.3 89.8,245.3 92,245.3 94.3,245.3   96.5,245.3 98.7,245.3 100.9,245.3 103.2,245.3 105.4,245.3 107.6,245.3 109.8,245.3 112.1,245.3 114.3,245.3 116.5,245.3   118.7,245.3 121,245.3 123.2,245.3 125.4,245.3 127.6,245.3 129.9,245.3 132.1,245.3 134.3,245.3 136.5,245.3 138.8,245.3   141,245.3 143.2,245.3 145.4,245.3 147.7,245.3 149.9,245.3 152.1,245.3 154.4,245.3 156.6,245.3 158.8,245.3 161,245.3   163.3,245.3 165.5,245.3 167.7,245.3 169.9,245.3 172.2,245.3 174.4,245.3 176.6,245.3 178.8,245.3 181.1,245.3 183.3,245.3   185.5,245.3 187.7,245.3 190,245.3 192.2,245.3 194.4,245.3 196.6,245.3 198.9,245.3 201.1,245.3 203.3,245.3 205.6,245.3   207.8,245.3 210,245.3 212.2,245.3 214.5,245.3 216.7,245.3 218.9,245.3 221.1,245.3 223.4,245.3 225.6,245.3 227.8,245.3   230,245.3 232.3,245.3 234.5,245.3 236.7,245.3 238.9,245.3 241.2,245.3 243.4,245.3 245.6,245.3 247.8,245.3 250.1,245.3   252.3,245.3 254.5,245.3 256.7,245.3 259,245.3 261.2,245.3 263.4,245.3 265.7,245.3 267.9,245.3 270.1,245.3 272.3,245.3   274.6,245.3 276.8,245.3 279,245.3 281.2,245.3 283.5,245.3 285.7,245.3 287.9,245.3 290.1,245.3 292.4,245.3 294.6,245.3   296.8,245.3 299,245.3 301.3,245.3 303.5,245.3 305.7,245.3 307.9,245.3 310.2,245.3 312.4,245.3 314.6,245.3 316.9,245.3   319.1,245.3 321.3,245.3 323.5,245.3 325.8,245.3 328,245.3 330.2,245.3 332.4,245.3 334.7,245.3 336.9,245.3 339.1,245.3   341.3,245.3 343.6,245.3 345.8,245.3 348,245.3 350.2,245.3 352.5,245.3 354.7,245.3 356.9,245.3 359.1,245.3 361.4,245.3   363.6,245.3 365.8,245.3 368,245.3 370.3,245.3 372.5,245.3 374.7,245.3 377,245.3 379.2,245.3 381.4,245.3 383.6,245.3   385.9,245.3 388.1,245.3 390.3,245.3 392.5,245.3 394.8,245.3 397,245.3 399.2,245.3 401.4,245.3 403.7,245.3 405.9,245.3   408.1,245.3 410.3,245.3 412.6,245.3 414.8,245.3 417,245.3 419.2,245.3 421.5,245.3 423.7,245.3 425.9,245.3 428.2,245.3   430.4,245.3 432.6,245.3 434.8,245.3 437.1,245.3 439.3,245.3 441.5,245.3 443.7,245.3 446,245.3 448.2,245.3 450.4,245.3   452.6,245.3 454.9,245.3 457.1,245.3 459.3,245.3 461.5,245.3 463.8,245.3 466,245.3 468.2,245.3 470.4,245.3 472.7,245.3   474.9,245.3 477.1,245.3 479.3,245.3 481.6,245.3 483.8,245.3 486,245.3 488.3,245.3 490.5,245.3 492.7,245.3 494.9,245.3 "
   id="polyline754"
   transform="translate(-9.9518216,0.26755474)" />
<rect
   x="392.44815"
   y="205.76755"
   class="st0"
   width="84.599998"
   height="40.799999"
   id="rect756" />
<text
   class="st4 st11"
   id="text758"
   x="431.40527"
   y="217.28825">VdcRef</text>
<line
   class="st16"
   x1="398.44815"
   y1="213.66754"
   x2="428.44815"
   y2="213.66754"
   id="line760" />
<text
   class="st4 st11"
   id="text762"
   x="431.40527"
   y="229.72765">Vdc</text>
<line
   class="st19"
   x1="398.44815"
   y1="226.16754"
   x2="428.44815"
   y2="226.16754"
   id="line764" />
<text
   class="st4 st11"
   id="text766"
   x="431.40527"
   y="242.16615">Natural.</text>
<line
   class="st18"
   x1="398.44815"
   y1="238.56755"
   x2="428.44815"
   y2="238.56755"
   id="line768" />
<polyline
   class="st2"
   points="402.4,246.3 402.4,205.5 487,205.5 487,246.3 402.4,246.3 "
   id="polyline770"
   transform="translate(-9.9518216,0.26755474)" />
<rect
   x="42.04818"
   y="285.56754"
   class="st0"
   width="445.20001"
   height="64.800003"
   id="rect772" />
<line
   class="st1"
   x1="42.04818"
   y1="350.36755"
   x2="42.04818"
   y2="285.56754"
   id="line774" />
<line
   class="st1"
   x1="50.948181"
   y1="350.36755"
   x2="50.948181"
   y2="285.56754"
   id="line776" />
<line
   class="st1"
   x1="59.848183"
   y1="350.36755"
   x2="59.848183"
   y2="285.56754"
   id="line778" />
<line
   class="st1"
   x1="68.748177"
   y1="350.36755"
   x2="68.748177"
   y2="285.56754"
   id="line780" />
<line
   class="st1"
   x1="77.648178"
   y1="350.36755"
   x2="77.648178"
   y2="285.56754"
   id="line782" />
<line
   class="st1"
   x1="86.54818"
   y1="350.36755"
   x2="86.54818"
   y2="285.56754"
   id="line784" />
<line
   class="st1"
   x1="95.448181"
   y1="350.36755"
   x2="95.448181"
   y2="285.56754"
   id="line786" />
<line
   class="st1"
   x1="104.34818"
   y1="350.36755"
   x2="104.34818"
   y2="285.56754"
   id="line788" />
<line
   class="st1"
   x1="113.24818"
   y1="350.36755"
   x2="113.24818"
   y2="285.56754"
   id="line790" />
<line
   class="st1"
   x1="122.14819"
   y1="350.36755"
   x2="122.14819"
   y2="285.56754"
   id="line792" />
<line
   class="st1"
   x1="131.04817"
   y1="350.36755"
   x2="131.04817"
   y2="285.56754"
   id="line794" />
<line
   class="st1"
   x1="139.94817"
   y1="350.36755"
   x2="139.94817"
   y2="285.56754"
   id="line796" />
<line
   class="st1"
   x1="148.84818"
   y1="350.36755"
   x2="148.84818"
   y2="285.56754"
   id="line798" />
<line
   class="st1"
   x1="157.74817"
   y1="350.36755"
   x2="157.74817"
   y2="285.56754"
   id="line800" />
<line
   class="st1"
   x1="166.64818"
   y1="350.36755"
   x2="166.64818"
   y2="285.56754"
   id="line802" />
<line
   class="st1"
   x1="175.54817"
   y1="350.36755"
   x2="175.54817"
   y2="285.56754"
   id="line804" />
<line
   class="st1"
   x1="184.44817"
   y1="350.36755"
   x2="184.44817"
   y2="285.56754"
   id="line806" />
<line
   class="st1"
   x1="193.34818"
   y1="350.36755"
   x2="193.34818"
   y2="285.56754"
   id="line808" />
<line
   class="st1"
   x1="202.24817"
   y1="350.36755"
   x2="202.24817"
   y2="285.56754"
   id="line810" />
<line
   class="st1"
   x1="211.14818"
   y1="350.36755"
   x2="211.14818"
   y2="285.56754"
   id="line812" />
<line
   class="st1"
   x1="220.04817"
   y1="350.36755"
   x2="220.04817"
   y2="285.56754"
   id="line814" />
<line
   class="st1"
   x1="228.94817"
   y1="350.36755"
   x2="228.94817"
   y2="285.56754"
   id="line816" />
<line
   class="st1"
   x1="237.84818"
   y1="350.36755"
   x2="237.84818"
   y2="285.56754"
   id="line818" />
<line
   class="st1"
   x1="246.74818"
   y1="350.36755"
   x2="246.74818"
   y2="285.56754"
   id="line820" />
<line
   class="st1"
   x1="255.74818"
   y1="350.36755"
   x2="255.74818"
   y2="285.56754"
   id="line822" />
<line
   class="st1"
   x1="264.64816"
   y1="350.36755"
   x2="264.64816"
   y2="285.56754"
   id="line824" />
<line
   class="st1"
   x1="273.54816"
   y1="350.36755"
   x2="273.54816"
   y2="285.56754"
   id="line826" />
<line
   class="st1"
   x1="282.44815"
   y1="350.36755"
   x2="282.44815"
   y2="285.56754"
   id="line828" />
<line
   class="st1"
   x1="291.34814"
   y1="350.36755"
   x2="291.34814"
   y2="285.56754"
   id="line830" />
<line
   class="st1"
   x1="300.24817"
   y1="350.36755"
   x2="300.24817"
   y2="285.56754"
   id="line832" />
<line
   class="st1"
   x1="309.14816"
   y1="350.36755"
   x2="309.14816"
   y2="285.56754"
   id="line834" />
<line
   class="st1"
   x1="318.04816"
   y1="350.36755"
   x2="318.04816"
   y2="285.56754"
   id="line836" />
<line
   class="st1"
   x1="326.94815"
   y1="350.36755"
   x2="326.94815"
   y2="285.56754"
   id="line838" />
<line
   class="st1"
   x1="335.84814"
   y1="350.36755"
   x2="335.84814"
   y2="285.56754"
   id="line840" />
<line
   class="st1"
   x1="344.74817"
   y1="350.36755"
   x2="344.74817"
   y2="285.56754"
   id="line842" />
<line
   class="st1"
   x1="353.64816"
   y1="350.36755"
   x2="353.64816"
   y2="285.56754"
   id="line844" />
<line
   class="st1"
   x1="362.54816"
   y1="350.36755"
   x2="362.54816"
   y2="285.56754"
   id="line846" />
<line
   class="st1"
   x1="371.44815"
   y1="350.36755"
   x2="371.44815"
   y2="285.56754"
   id="line848" />
<line
   class="st1"
   x1="380.34814"
   y1="350.36755"
   x2="380.34814"
   y2="285.56754"
   id="line850" />
<line
   class="st1"
   x1="389.24817"
   y1="350.36755"
   x2="389.24817"
   y2="285.56754"
   id="line852" />
<line
   class="st1"
   x1="398.14816"
   y1="350.36755"
   x2="398.14816"
   y2="285.56754"
   id="line854" />
<line
   class="st1"
   x1="407.04816"
   y1="350.36755"
   x2="407.04816"
   y2="285.56754"
   id="line856" />
<line
   class="st1"
   x1="415.94815"
   y1="350.36755"
   x2="415.94815"
   y2="285.56754"
   id="line858" />
<line
   class="st1"
   x1="424.84814"
   y1="350.36755"
   x2="424.84814"
   y2="285.56754"
   id="line860" />
<line
   class="st1"
   x1="433.74817"
   y1="350.36755"
   x2="433.74817"
   y2="285.56754"
   id="line862" />
<line
   class="st1"
   x1="442.64816"
   y1="350.36755"
   x2="442.64816"
   y2="285.56754"
   id="line864" />
<line
   class="st1"
   x1="451.54816"
   y1="350.36755"
   x2="451.54816"
   y2="285.56754"
   id="line866" />
<line
   class="st1"
   x1="460.44815"
   y1="350.36755"
   x2="460.44815"
   y2="285.56754"
   id="line868" />
<line
   class="st1"
   x1="469.34814"
   y1="350.36755"
   x2="469.34814"
   y2="285.56754"
   id="line870" />
<line
   class="st1"
   x1="478.34814"
   y1="350.36755"
   x2="478.34814"
   y2="285.56754"
   id="line872" />
<line
   class="st1"
   x1="487.24817"
   y1="350.36755"
   x2="487.24817"
   y2="285.56754"
   id="line874" />
<line
   class="st1"
   x1="487.24817"
   y1="350.36755"
   x2="42.04818"
   y2="350.36755"
   id="line876" />
<line
   class="st1"
   x1="487.24817"
   y1="342.26755"
   x2="42.04818"
   y2="342.26755"
   id="line878" />
<line
   class="st1"
   x1="487.24817"
   y1="334.16754"
   x2="42.04818"
   y2="334.16754"
   id="line880" />
<line
   class="st1"
   x1="487.24817"
   y1="326.06754"
   x2="42.04818"
   y2="326.06754"
   id="line882" />
<line
   class="st1"
   x1="487.24817"
   y1="317.96756"
   x2="42.04818"
   y2="317.96756"
   id="line884" />
<line
   class="st1"
   x1="487.24817"
   y1="309.86755"
   x2="42.04818"
   y2="309.86755"
   id="line886" />
<line
   class="st1"
   x1="487.24817"
   y1="301.76755"
   x2="42.04818"
   y2="301.76755"
   id="line888" />
<line
   class="st1"
   x1="487.24817"
   y1="293.66754"
   x2="42.04818"
   y2="293.66754"
   id="line890" />
<line
   class="st1"
   x1="487.24817"
   y1="285.56754"
   x2="42.04818"
   y2="285.56754"
   id="line892" />
<text
   class="st3 st4 st6"
   id="text894"
   x="255.60547"
   y="379.92786">t [s]</text>
<line
   class="st2"
   x1="42.04818"
   y1="350.36755"
   x2="487.24817"
   y2="350.36755"
   id="line896" />
<line
   class="st2"
   x1="42.04818"
   y1="285.56754"
   x2="487.24817"
   y2="285.56754"
   id="line898" />
<line
   class="st2"
   x1="42.04818"
   y1="350.36755"
   x2="42.04818"
   y2="345.86755"
   id="line900" />
<line
   class="st2"
   x1="86.54818"
   y1="350.36755"
   x2="86.54818"
   y2="345.86755"
   id="line902" />
<line
   class="st2"
   x1="131.04817"
   y1="350.36755"
   x2="131.04817"
   y2="345.86755"
   id="line904" />
<line
   class="st2"
   x1="175.54817"
   y1="350.36755"
   x2="175.54817"
   y2="345.86755"
   id="line906" />
<line
   class="st2"
   x1="220.04817"
   y1="350.36755"
   x2="220.04817"
   y2="345.86755"
   id="line908" />
<line
   class="st2"
   x1="264.64816"
   y1="350.36755"
   x2="264.64816"
   y2="345.86755"
   id="line910" />
<line
   class="st2"
   x1="309.14816"
   y1="350.36755"
   x2="309.14816"
   y2="345.86755"
   id="line912" />
<line
   class="st2"
   x1="353.64816"
   y1="350.36755"
   x2="353.64816"
   y2="345.86755"
   id="line914" />
<line
   class="st2"
   x1="398.14816"
   y1="350.36755"
   x2="398.14816"
   y2="345.86755"
   id="line916" />
<line
   class="st2"
   x1="442.64816"
   y1="350.36755"
   x2="442.64816"
   y2="345.86755"
   id="line918" />
<line
   class="st2"
   x1="487.24817"
   y1="350.36755"
   x2="487.24817"
   y2="345.86755"
   id="line920" />
<line
   class="st2"
   x1="42.04818"
   y1="285.56754"
   x2="42.04818"
   y2="289.96756"
   id="line922" />
<line
   class="st2"
   x1="86.54818"
   y1="285.56754"
   x2="86.54818"
   y2="289.96756"
   id="line924" />
<line
   class="st2"
   x1="131.04817"
   y1="285.56754"
   x2="131.04817"
   y2="289.96756"
   id="line926" />
<line
   class="st2"
   x1="175.54817"
   y1="285.56754"
   x2="175.54817"
   y2="289.96756"
   id="line928" />
<line
   class="st2"
   x1="220.04817"
   y1="285.56754"
   x2="220.04817"
   y2="289.96756"
   id="line930" />
<line
   class="st2"
   x1="264.64816"
   y1="285.56754"
   x2="264.64816"
   y2="289.96756"
   id="line932" />
<line
   class="st2"
   x1="309.14816"
   y1="285.56754"
   x2="309.14816"
   y2="289.96756"
   id="line934" />
<line
   class="st2"
   x1="353.64816"
   y1="285.56754"
   x2="353.64816"
   y2="289.96756"
   id="line936" />
<line
   class="st2"
   x1="398.14816"
   y1="285.56754"
   x2="398.14816"
   y2="289.96756"
   id="line938" />
<line
   class="st2"
   x1="442.64816"
   y1="285.56754"
   x2="442.64816"
   y2="289.96756"
   id="line940" />
<line
   class="st2"
   x1="487.24817"
   y1="285.56754"
   x2="487.24817"
   y2="289.96756"
   id="line942" />
<text
   class="st3 st4 st5"
   id="text944"
   x="39.004879"
   y="365.12704">0</text>
<text
   class="st3 st4 st5"
   id="text946"
   x="83.525375"
   y="365.12704">2</text>
<text
   class="st3 st4 st5"
   id="text948"
   x="128.04498"
   y="365.12704">4</text>
<text
   class="st3 st4 st5"
   id="text950"
   x="172.56548"
   y="365.12704">6</text>
<text
   class="st3 st4 st5"
   id="text952"
   x="217.08498"
   y="365.12704">8</text>
<text
   class="st3 st4 st5"
   id="text954"
   x="258.90527"
   y="365.12704">10</text>
<text
   class="st3 st4 st5"
   id="text956"
   x="303.42578"
   y="365.12704">12</text>
<text
   class="st3 st4 st5"
   id="text958"
   x="347.94537"
   y="365.12704">14</text>
<text
   class="st3 st4 st5"
   id="text960"
   x="392.46588"
   y="365.12704">16</text>
<text
   class="st3 st4 st5"
   id="text962"
   x="436.98538"
   y="365.12704">18</text>
<text
   class="st3 st4 st5"
   id="text964"
   x="481.50488"
   y="365.12704">20</text>
<text
   transform="rotate(-90)"
   class="st3 st4 st6"
   id="text966"
   x="-339.52713"
   y="13.805069"> [RPM]</text>
<line
   class="st2"
   x1="42.04818"
   y1="350.36755"
   x2="42.04818"
   y2="285.56754"
   id="line968" />
<line
   class="st2"
   x1="487.24817"
   y1="350.36755"
   x2="487.24817"
   y2="285.56754"
   id="line970" />
<line
   class="st2"
   x1="42.04818"
   y1="350.36755"
   x2="46.448181"
   y2="350.36755"
   id="line972" />
<line
   class="st2"
   x1="42.04818"
   y1="317.96756"
   x2="46.448181"
   y2="317.96756"
   id="line974" />
<line
   class="st2"
   x1="42.04818"
   y1="285.56754"
   x2="46.448181"
   y2="285.56754"
   id="line976" />
<line
   class="st2"
   x1="487.24817"
   y1="350.36755"
   x2="482.74817"
   y2="350.36755"
   id="line978" />
<line
   class="st2"
   x1="487.24817"
   y1="317.96756"
   x2="482.74817"
   y2="317.96756"
   id="line980" />
<line
   class="st2"
   x1="487.24817"
   y1="285.56754"
   x2="482.74817"
   y2="285.56754"
   id="line982" />
<text
   class="st3 st4 st5"
   id="text984"
   x="15.205079"
   y="354.52744">1200</text>
<text
   class="st3 st4 st5"
   id="text986"
   x="15.205079"
   y="322.12704">1300</text>
<text
   class="st3 st4 st5"
   id="text988"
   x="15.205079"
   y="289.72766">1400</text>
<polyline
   class="st7"
   points="52,299.4 54.2,299.7 56.4,299.7 58.6,299.4 60.9,299.5 63.1,299.6 65.3,299.6 67.5,299.4 69.8,299.6   72,299.7 74.2,300.6 76.4,303.6 78.7,307.2 80.9,310.4 83.1,313.4 85.3,315.9 87.6,317.9 89.8,320.1 92,322.3 94.3,323.9   96.5,325.5 98.7,326.9 100.9,327.5 103.2,328.3 105.4,329.2 107.6,330 109.8,330.3 112.1,330.9 114.3,331.2 116.5,331.4   118.7,331.8 121,331.8 123.2,331.5 125.4,331.4 127.6,331.2 129.9,331.3 132.1,330.9 134.3,330.8 136.5,330.5 138.8,330.1 141,330   143.2,329.6 145.4,329 147.7,328.7 149.9,328.2 152.1,327.8 154.4,327.6 156.6,327.1 158.8,326.8 161,326.5 "
   id="polyline990"
   transform="translate(-9.9518216,0.26755474)" />
<polyline
   class="st7"
   points="161,326.5 163.3,325.7 165.5,325.2 167.7,324.8 169.9,324.4 172.2,324.2 174.4,323.7 176.6,323.5   178.8,322.7 181.1,322.4 183.3,321.9 185.5,321.4 187.7,321.3 190,320.8 192.2,320.7 194.4,319.8 196.6,319.4 198.9,319.1   201.1,318.9 203.3,318.7 205.6,318.5 207.8,318.1 210,317.4 212.2,317.1 214.5,316.7 216.7,316.7 218.9,316.5 221.1,315.9   223.4,315.4 225.6,315.2 227.8,315 230,314.8 232.3,314.6 234.5,313.8 236.7,313.5 238.9,313.4 241.2,313.4 243.4,313.1   245.6,312.7 247.8,312.3 250.1,312.1 252.3,311.9 254.5,311.9 256.7,311.4 259,311 261.2,311 263.4,310.8 265.7,310.8 267.9,310.3   270.1,309.9 "
   id="polyline992"
   transform="translate(-9.9518216,0.26755474)" />
<polyline
   class="st7"
   points="270.1,309.9 272.3,309.8 274.6,309.7 276.8,309.6 279,309.1 281.2,308.7 283.5,308.9 285.7,308.9   287.9,308.4 290.1,308 292.4,307.9 294.6,307.9 296.8,307.9 299,307.6 301.3,307.2 303.5,307.2 305.7,307.1 307.9,306.8   310.2,306.6 312.4,306.6 314.6,306.4 316.9,306.5 319.1,306.1 321.3,306 323.5,306 325.8,305.9 328,305.7 330.2,305.4 332.4,305.5   334.7,305.5 336.9,305.4 339.1,305.1 341.3,304.8 343.6,304.9 345.8,305.1 348,304.5 350.2,304.6 352.5,304.6 354.7,304.6   356.9,304.1 359.1,304 361.4,304.2 363.6,304 365.8,304 368,303.6 370.3,303.6 372.5,303.9 374.7,303.8 377,303.4 379.2,303.5 "
   id="polyline994"
   transform="translate(-9.9518216,0.26755474)" />
<polyline
   class="st7"
   points="379.2,303.5 381.4,303.6 383.6,303.5 385.9,303 388.1,303 390.3,303.3 392.5,303.3 394.8,302.9   397,302.9 399.2,302.9 401.4,303.3 403.7,302.8 405.9,302.7 408.1,302.9 410.3,302.8 412.6,302.7 414.8,302.6 417,302.7   419.2,302.6 421.5,302.5 423.7,302.3 425.9,302.5 428.2,302.6 430.4,302.2 432.6,302.1 434.8,302.5 437.1,302.5 439.3,302.2   441.5,302 443.7,302.2 446,302.1 448.2,302 450.4,301.9 452.6,302 454.9,302.1 457.1,301.7 459.3,301.5 461.5,301.6 463.8,301.7   466,301.5 468.2,301.4 470.4,301.6 472.7,301.5 474.9,301.5 477.1,301.2 479.3,301.4 481.6,301.4 483.8,301.2 486,301.2   488.3,301.6 "
   id="polyline996"
   transform="translate(-9.9518216,0.26755474)" />
<polyline
   class="st7"
   points="488.3,301.6 490.5,301.5 492.7,301.3 494.9,300.9 "
   id="polyline998"
   transform="translate(-9.9518216,0.26755474)" />
<polyline
   class="st20"
   points="52,301.5 54.2,301.5 56.4,301.5 58.6,301.5 60.9,301.5 63.1,301.5 65.3,301.5 67.5,301.5 69.8,301.5   72,301.5 74.2,301.5 76.4,301.5 78.7,301.5 80.9,301.5 83.1,301.5 85.3,301.5 87.6,301.5 89.8,301.5 92,301.5 94.3,301.5   96.5,301.5 98.7,301.5 100.9,301.5 103.2,301.5 105.4,301.5 107.6,301.5 109.8,301.5 112.1,301.5 114.3,301.5 116.5,301.5   118.7,301.5 121,301.5 123.2,301.5 125.4,301.5 127.6,301.5 129.9,301.5 132.1,301.5 134.3,301.5 136.5,301.5 138.8,301.5   141,301.5 143.2,301.5 145.4,301.5 147.7,301.5 149.9,301.5 152.1,301.5 154.4,301.5 156.6,301.5 158.8,301.5 161,301.5   163.3,301.5 165.5,301.5 167.7,301.5 169.9,301.5 172.2,301.5 174.4,301.5 176.6,301.5 178.8,301.5 181.1,301.5 183.3,301.5   185.5,301.5 187.7,301.5 190,301.5 192.2,301.5 194.4,301.5 196.6,301.5 198.9,301.5 201.1,301.5 203.3,301.5 205.6,301.5   207.8,301.5 210,301.5 212.2,301.5 214.5,301.5 216.7,301.5 218.9,301.5 221.1,301.5 223.4,301.5 225.6,301.5 227.8,301.5   230,301.5 232.3,301.5 234.5,301.5 236.7,301.5 238.9,301.5 241.2,301.5 243.4,301.5 245.6,301.5 247.8,301.5 250.1,301.5   252.3,301.5 254.5,301.5 256.7,301.5 259,301.5 261.2,301.5 263.4,301.5 265.7,301.5 267.9,301.5 270.1,301.5 272.3,301.5   274.6,301.5 276.8,301.5 279,301.5 281.2,301.5 283.5,301.5 285.7,301.5 287.9,301.5 290.1,301.5 292.4,301.5 294.6,301.5   296.8,301.5 299,301.5 301.3,301.5 303.5,301.5 305.7,301.5 307.9,301.5 310.2,301.5 312.4,301.5 314.6,301.5 316.9,301.5   319.1,301.5 321.3,301.5 323.5,301.5 325.8,301.5 328,301.5 330.2,301.5 332.4,301.5 334.7,301.5 336.9,301.5 339.1,301.5   341.3,301.5 343.6,301.5 345.8,301.5 348,301.5 350.2,301.5 352.5,301.5 354.7,301.5 356.9,301.5 359.1,301.5 361.4,301.5   363.6,301.5 365.8,301.5 368,301.5 370.3,301.5 372.5,301.5 374.7,301.5 377,301.5 379.2,301.5 381.4,301.5 383.6,301.5   385.9,301.5 388.1,301.5 390.3,301.5 392.5,301.5 394.8,301.5 397,301.5 399.2,301.5 401.4,301.5 403.7,301.5 405.9,301.5   408.1,301.5 410.3,301.5 412.6,301.5 414.8,301.5 417,301.5 419.2,301.5 421.5,301.5 423.7,301.5 425.9,301.5 428.2,301.5   430.4,301.5 432.6,301.5 434.8,301.5 437.1,301.5 439.3,301.5 441.5,301.5 443.7,301.5 446,301.5 448.2,301.5 450.4,301.5   452.6,301.5 454.9,301.5 457.1,301.5 459.3,301.5 461.5,301.5 463.8,301.5 466,301.5 468.2,301.5 470.4,301.5 472.7,301.5   474.9,301.5 477.1,301.5 479.3,301.5 481.6,301.5 483.8,301.5 486,301.5 488.3,301.5 490.5,301.5 492.7,301.5 494.9,301.5 "
   id="polyline1000"
   transform="translate(-9.9518216,0.26755474)" />
<rect
   x="395.44815"
   y="295.76755"
   class="st0"
   width="81.599998"
   height="28.200001"
   id="rect1002" />
<text
   class="st4 st11"
   id="text1004"
   x="434.40527"
   y="307.24326">Speed</text>
<line
   class="st12"
   x1="401.44815"
   y1="303.66754"
   x2="431.44815"
   y2="303.66754"
   id="line1006" />
<text
   class="st4 st11"
   id="text1008"
   x="434.40527"
   y="319.61145">StandBy</text>
<line
   class="st20"
   x1="401.44815"
   y1="315.96756"
   x2="431.44815"
   y2="315.96756"
   id="line1010" />
<polyline
   class="st2"
   points="405.4,323.7 405.4,295.5 487,295.5 487,323.7 405.4,323.7 "
   id="polyline1012"
   transform="translate(-9.9518216,0.26755474)" />
</svg>
